M48
;DRILL file {KiCad (5.0.0)} date 11/07/18 01:04:41
;FORMAT={3:3/ absolute / metric / suppress leading zeros}
FMAT,2
METRIC,TZ
T1C0.400
T2C0.500
T3C0.650
T4C0.700
T5C0.760
T6C0.800
T7C0.950
T8C1.016
T9C1.200
T10C0.900
T11C1.800
T12C2.700
T13C3.200
%
G90
G05
M71
T1
X104269Y-117444
X105474Y-82044
X108786Y-114711
X109698Y-87054
X117001Y-80479
X117385Y-105951
X119898Y-129747
X120298Y-108861
X121533Y-131799
X123521Y-108096
X123588Y-102475
X123686Y-120478
X124189Y-124224
X124411Y-118961
X124542Y-113390
X124607Y-122756
X126761Y-126438
X127829Y-132351
X129433Y-116406
X133164Y-109490
X137411Y-128619
X139865Y-125978
X141135Y-83311
X141286Y-102110
X141585Y-106721
X142840Y-99529
X143218Y-123072
X144116Y-82142
X144573Y-118624
X148412Y-98272
X165144Y-147426
X167638Y-111572
X168964Y-114706
T2
X122000Y-83000
X123000Y-83000
X124000Y-83000
X125000Y-83000
T3
X166000Y-145000
X166000Y-146270
T4
X109000Y-83000
X110270Y-83000
X111540Y-83000
X112810Y-83000
X129000Y-81000
X128000Y-84000
T5
X133610Y-132460
X134880Y-135000
X136150Y-132460
X137420Y-135000
X138690Y-132460
X139960Y-135000
X141230Y-132460
X142500Y-135000
T6
X138000Y-82121
X138000Y-84661
X138000Y-87201
X138000Y-89741
X138000Y-92281
X138000Y-94821
X138000Y-97361
X138000Y-99901
X138000Y-102441
X138000Y-104981
X138000Y-110061
X138000Y-112601
X138000Y-115141
X138000Y-117681
X138000Y-120221
X138000Y-122761
X138000Y-125301
X153000Y-141000
X153000Y-148620
X155540Y-141000
X155540Y-148620
X158080Y-141000
X158080Y-148620
X160620Y-141000
X160620Y-148620
X115500Y-141000
X115500Y-148620
X118040Y-141000
X118040Y-148620
X120580Y-141000
X120580Y-148620
X123120Y-141000
X123120Y-148620
T7
X130500Y-86750
X130500Y-89290
X130500Y-91830
X130500Y-94370
X130500Y-96910
X130500Y-99450
X130500Y-101990
X130500Y-104530
X130500Y-107070
X130500Y-109610
X130500Y-112150
X130500Y-114690
X145750Y-86750
X145750Y-89290
X145750Y-91830
X145750Y-94370
X145750Y-96910
X145750Y-99450
X145750Y-101990
X145750Y-104530
X145750Y-107070
X145750Y-109610
X145750Y-112150
X145750Y-114690
T8
X153240Y-77041
X153240Y-79581
X153240Y-82121
X153240Y-84661
X153240Y-87201
X153240Y-89741
X153240Y-92281
X153240Y-94821
X153240Y-97361
X153240Y-99901
X153240Y-102441
X153240Y-104981
X153240Y-107521
X153240Y-110061
X153240Y-112601
X153240Y-115141
X153240Y-117681
X153240Y-120221
X153240Y-122761
X153240Y-125352
T9
X157408Y-85592
X161000Y-82000
X164592Y-78408
X157750Y-91000
X157750Y-93000
X157750Y-95000
X164500Y-101750
X166500Y-101750
X168500Y-101750
X157750Y-129000
X157750Y-131000
X157750Y-133000
X164500Y-122250
X166500Y-122250
X168500Y-122250
X107500Y-122250
X109500Y-122250
X111500Y-122250
X118250Y-129000
X118250Y-131000
X118250Y-133000
X107500Y-101750
X109500Y-101750
X111500Y-101750
X118250Y-91000
X118250Y-93000
X118250Y-95000
T10
X101500Y-112041
X104500Y-112041
X171500Y-111959
X174500Y-111959
T11
X160500Y-87000
X172500Y-99000
X160500Y-137000
X172500Y-125000
X103500Y-125000
X115500Y-137000
X103500Y-99000
X115500Y-87000
T12
X171000Y-145000
X171000Y-79000
X105000Y-145000
X105000Y-79000
T13
X132340Y-141350
X143770Y-141350
T0
M30
