G04 #@! TF.GenerationSoftware,KiCad,Pcbnew,(5.0.0)*
G04 #@! TF.CreationDate,2018-11-07T01:04:36+09:00*
G04 #@! TF.ProjectId,handheld_machine_back,68616E6468656C645F6D616368696E65,rev?*
G04 #@! TF.SameCoordinates,Original*
G04 #@! TF.FileFunction,Copper,L2,Bot,Signal*
G04 #@! TF.FilePolarity,Positive*
%FSLAX46Y46*%
G04 Gerber Fmt 4.6, Leading zero omitted, Abs format (unit mm)*
G04 Created by KiCad (PCBNEW (5.0.0)) date 11/07/18 01:04:36*
%MOMM*%
%LPD*%
G01*
G04 APERTURE LIST*
G04 #@! TA.AperFunction,ComponentPad*
%ADD10C,1.600000*%
G04 #@! TD*
G04 #@! TA.AperFunction,ComponentPad*
%ADD11O,2.250000X1.727200*%
G04 #@! TD*
G04 #@! TA.AperFunction,ComponentPad*
%ADD12O,1.600000X1.600000*%
G04 #@! TD*
G04 #@! TA.AperFunction,ComponentPad*
%ADD13R,1.600000X1.600000*%
G04 #@! TD*
G04 #@! TA.AperFunction,ComponentPad*
%ADD14C,1.425000*%
G04 #@! TD*
G04 #@! TA.AperFunction,ComponentPad*
%ADD15R,1.425000X1.425000*%
G04 #@! TD*
G04 #@! TA.AperFunction,SMDPad,CuDef*
%ADD16R,1.050000X0.650000*%
G04 #@! TD*
G04 #@! TA.AperFunction,SMDPad,CuDef*
%ADD17R,1.400000X1.500000*%
G04 #@! TD*
G04 #@! TA.AperFunction,SMDPad,CuDef*
%ADD18R,1.550000X0.600000*%
G04 #@! TD*
G04 #@! TA.AperFunction,SMDPad,CuDef*
%ADD19R,1.800000X1.200000*%
G04 #@! TD*
G04 #@! TA.AperFunction,ComponentPad*
%ADD20R,1.500000X1.500000*%
G04 #@! TD*
G04 #@! TA.AperFunction,ComponentPad*
%ADD21C,1.500000*%
G04 #@! TD*
G04 #@! TA.AperFunction,SMDPad,CuDef*
%ADD22R,1.000000X1.500000*%
G04 #@! TD*
G04 #@! TA.AperFunction,Conductor*
%ADD23C,0.100000*%
G04 #@! TD*
G04 #@! TA.AperFunction,SMDPad,CuDef*
%ADD24C,1.150000*%
G04 #@! TD*
G04 #@! TA.AperFunction,ComponentPad*
%ADD25C,1.800000*%
G04 #@! TD*
G04 #@! TA.AperFunction,ComponentPad*
%ADD26C,1.400000*%
G04 #@! TD*
G04 #@! TA.AperFunction,ComponentPad*
%ADD27R,1.000000X1.000000*%
G04 #@! TD*
G04 #@! TA.AperFunction,ComponentPad*
%ADD28O,1.000000X1.000000*%
G04 #@! TD*
G04 #@! TA.AperFunction,ComponentPad*
%ADD29R,0.850000X0.850000*%
G04 #@! TD*
G04 #@! TA.AperFunction,ComponentPad*
%ADD30O,0.850000X0.850000*%
G04 #@! TD*
G04 #@! TA.AperFunction,ViaPad*
%ADD31C,0.800000*%
G04 #@! TD*
G04 #@! TA.AperFunction,Conductor*
%ADD32C,0.300000*%
G04 #@! TD*
G04 #@! TA.AperFunction,Conductor*
%ADD33C,0.250000*%
G04 #@! TD*
G04 #@! TA.AperFunction,Conductor*
%ADD34C,0.254000*%
G04 #@! TD*
G04 APERTURE END LIST*
D10*
G04 #@! TO.P,U4,6*
G04 #@! TO.N,VCC*
X111500000Y-122250000D03*
G04 #@! TO.P,U4,5*
G04 #@! TO.N,JOY4B*
X109500000Y-122250000D03*
G04 #@! TO.P,U4,4*
G04 #@! TO.N,GND*
X107500000Y-122250000D03*
G04 #@! TO.P,U4,3*
G04 #@! TO.N,VCC*
X118250000Y-133000000D03*
G04 #@! TO.P,U4,2*
G04 #@! TO.N,JOY4A*
X118250000Y-131000000D03*
G04 #@! TO.P,U4,1*
G04 #@! TO.N,GND*
X118250000Y-129000000D03*
G04 #@! TD*
G04 #@! TO.P,U3,6*
G04 #@! TO.N,VCC*
X157750000Y-129000000D03*
G04 #@! TO.P,U3,5*
G04 #@! TO.N,JOY2B*
X157750000Y-131000000D03*
G04 #@! TO.P,U3,4*
G04 #@! TO.N,GND*
X157750000Y-133000000D03*
G04 #@! TO.P,U3,3*
G04 #@! TO.N,VCC*
X168500000Y-122250000D03*
G04 #@! TO.P,U3,2*
G04 #@! TO.N,JOY2A*
X166500000Y-122250000D03*
G04 #@! TO.P,U3,1*
G04 #@! TO.N,GND*
X164500000Y-122250000D03*
G04 #@! TD*
G04 #@! TO.P,U2,6*
G04 #@! TO.N,VCC*
X164500000Y-101750000D03*
G04 #@! TO.P,U2,5*
G04 #@! TO.N,JOY3B*
X166500000Y-101750000D03*
G04 #@! TO.P,U2,4*
G04 #@! TO.N,GND*
X168500000Y-101750000D03*
G04 #@! TO.P,U2,3*
G04 #@! TO.N,VCC*
X157750000Y-91000000D03*
G04 #@! TO.P,U2,2*
G04 #@! TO.N,JOY3A*
X157750000Y-93000000D03*
G04 #@! TO.P,U2,1*
G04 #@! TO.N,GND*
X157750000Y-95000000D03*
G04 #@! TD*
G04 #@! TO.P,U1,6*
G04 #@! TO.N,VCC*
X118250000Y-95000000D03*
G04 #@! TO.P,U1,5*
G04 #@! TO.N,JOY1B*
X118250000Y-93000000D03*
G04 #@! TO.P,U1,4*
G04 #@! TO.N,GND*
X118250000Y-91000000D03*
G04 #@! TO.P,U1,3*
G04 #@! TO.N,VCC*
X107500000Y-101750000D03*
G04 #@! TO.P,U1,2*
G04 #@! TO.N,JOY1A*
X109500000Y-101750000D03*
G04 #@! TO.P,U1,1*
G04 #@! TO.N,GND*
X111500000Y-101750000D03*
G04 #@! TD*
D11*
G04 #@! TO.P,U6,40*
G04 #@! TO.N,VCC*
X153240000Y-125351600D03*
G04 #@! TO.P,U6,39*
G04 #@! TO.N,GND*
X153240000Y-122760800D03*
G04 #@! TO.P,U6,38*
G04 #@! TO.N,USBVCC*
X153240000Y-120220800D03*
G04 #@! TO.P,U6,37*
G04 #@! TO.N,col4*
X153240000Y-117680800D03*
G04 #@! TO.P,U6,36*
G04 #@! TO.N,col3*
X153240000Y-115140800D03*
G04 #@! TO.P,U6,35*
G04 #@! TO.N,col2*
X153240000Y-112600800D03*
G04 #@! TO.P,U6,34*
G04 #@! TO.N,col1*
X153240000Y-110060800D03*
G04 #@! TO.P,U6,33*
G04 #@! TO.N,row4*
X153240000Y-107520800D03*
G04 #@! TO.P,U6,32*
G04 #@! TO.N,row3*
X153240000Y-104980800D03*
G04 #@! TO.P,U6,31*
G04 #@! TO.N,row2*
X153240000Y-102440800D03*
G04 #@! TO.P,U6,30*
G04 #@! TO.N,row1*
X153240000Y-99900800D03*
G04 #@! TO.P,U6,29*
G04 #@! TO.N,PROMICRO_D+*
X153240000Y-97360800D03*
G04 #@! TO.P,U6,28*
G04 #@! TO.N,PROMICRO_D-*
X153240000Y-94820800D03*
G04 #@! TO.P,U6,27*
G04 #@! TO.N,RX*
X153240000Y-92280800D03*
G04 #@! TO.P,U6,26*
G04 #@! TO.N,TX*
X153240000Y-89740800D03*
G04 #@! TO.P,U6,25*
G04 #@! TO.N,pwm1*
X153240000Y-87200800D03*
G04 #@! TO.P,U6,24*
G04 #@! TO.N,DIN*
X153240000Y-84660800D03*
G04 #@! TO.P,U6,23*
G04 #@! TO.N,DOUT*
X153240000Y-82120800D03*
G04 #@! TO.P,U6,22*
G04 #@! TO.N,CLK*
X153240000Y-79580800D03*
G04 #@! TO.P,U6,21*
G04 #@! TO.N,CS*
X153240000Y-77040800D03*
D12*
G04 #@! TO.P,U6,18*
G04 #@! TO.N,VCC*
X138000000Y-82120800D03*
G04 #@! TO.P,U6,17*
G04 #@! TO.N,N/C*
X138000000Y-84660800D03*
G04 #@! TO.P,U6,16*
G04 #@! TO.N,SDA*
X138000000Y-87200800D03*
G04 #@! TO.P,U6,15*
G04 #@! TO.N,SCL*
X138000000Y-89740800D03*
G04 #@! TO.P,U6,14*
G04 #@! TO.N,Net-(JP3-Pad1)*
X138000000Y-92280800D03*
G04 #@! TO.P,U6,13*
G04 #@! TO.N,Net-(JP4-Pad1)*
X138000000Y-94820800D03*
G04 #@! TO.P,U6,12*
G04 #@! TO.N,LED_D1*
X138000000Y-97360800D03*
G04 #@! TO.P,U6,11*
G04 #@! TO.N,MISO1*
X138000000Y-99900800D03*
G04 #@! TO.P,U6,10*
G04 #@! TO.N,SCK1*
X138000000Y-102440800D03*
G04 #@! TO.P,U6,9*
G04 #@! TO.N,SS1*
X138000000Y-104980800D03*
G04 #@! TO.P,U6,7*
G04 #@! TO.N,Net-(JP5-Pad1)*
X138000000Y-110060800D03*
G04 #@! TO.P,U6,6*
G04 #@! TO.N,Net-(JP6-Pad1)*
X138000000Y-112600800D03*
G04 #@! TO.P,U6,5*
G04 #@! TO.N,enter*
X138000000Y-115140800D03*
G04 #@! TO.P,U6,4*
G04 #@! TO.N,mode2*
X138000000Y-117680800D03*
G04 #@! TO.P,U6,3*
G04 #@! TO.N,mode1*
X138000000Y-120220800D03*
G04 #@! TO.P,U6,2*
G04 #@! TO.N,N/C*
X138000000Y-122760800D03*
D13*
G04 #@! TO.P,U6,1*
X138000000Y-125300800D03*
G04 #@! TD*
D12*
G04 #@! TO.P,SW6,8*
G04 #@! TO.N,pin4*
X153000000Y-148620000D03*
G04 #@! TO.P,SW6,4*
G04 #@! TO.N,MISO1*
X160620000Y-141000000D03*
G04 #@! TO.P,SW6,7*
G04 #@! TO.N,pin4*
X155540000Y-148620000D03*
G04 #@! TO.P,SW6,3*
G04 #@! TO.N,LED_D1*
X158080000Y-141000000D03*
G04 #@! TO.P,SW6,6*
G04 #@! TO.N,pin5*
X158080000Y-148620000D03*
G04 #@! TO.P,SW6,2*
G04 #@! TO.N,MISO1*
X155540000Y-141000000D03*
G04 #@! TO.P,SW6,5*
G04 #@! TO.N,pin5*
X160620000Y-148620000D03*
D13*
G04 #@! TO.P,SW6,1*
G04 #@! TO.N,LED_D1*
X153000000Y-141000000D03*
G04 #@! TD*
G04 #@! TO.P,SW5,1*
G04 #@! TO.N,TX*
X115500000Y-141000000D03*
D12*
G04 #@! TO.P,SW5,5*
G04 #@! TO.N,pin3*
X123120000Y-148620000D03*
G04 #@! TO.P,SW5,2*
G04 #@! TO.N,RX*
X118040000Y-141000000D03*
G04 #@! TO.P,SW5,6*
G04 #@! TO.N,pin3*
X120580000Y-148620000D03*
G04 #@! TO.P,SW5,3*
G04 #@! TO.N,TX*
X120580000Y-141000000D03*
G04 #@! TO.P,SW5,7*
G04 #@! TO.N,pin2*
X118040000Y-148620000D03*
G04 #@! TO.P,SW5,4*
G04 #@! TO.N,RX*
X123120000Y-141000000D03*
G04 #@! TO.P,SW5,8*
G04 #@! TO.N,pin2*
X115500000Y-148620000D03*
G04 #@! TD*
D14*
G04 #@! TO.P,IC1,24*
G04 #@! TO.N,VCC*
X130500000Y-86750000D03*
G04 #@! TO.P,IC1,23*
G04 #@! TO.N,GND*
X130500000Y-89290000D03*
G04 #@! TO.P,IC1,22*
G04 #@! TO.N,Net-(IC1-Pad22)*
X130500000Y-91830000D03*
G04 #@! TO.P,IC1,21*
G04 #@! TO.N,VCC*
X130500000Y-94370000D03*
G04 #@! TO.P,IC1,20*
G04 #@! TO.N,LED_D1*
X130500000Y-96910000D03*
G04 #@! TO.P,IC1,19*
G04 #@! TO.N,enter*
X130500000Y-99450000D03*
G04 #@! TO.P,IC1,18*
G04 #@! TO.N,mode2*
X130500000Y-101990000D03*
G04 #@! TO.P,IC1,17*
G04 #@! TO.N,mode1*
X130500000Y-104530000D03*
G04 #@! TO.P,IC1,16*
G04 #@! TO.N,CLK*
X130500000Y-107070000D03*
G04 #@! TO.P,IC1,15*
G04 #@! TO.N,DOUT*
X130500000Y-109610000D03*
G04 #@! TO.P,IC1,14*
G04 #@! TO.N,DIN*
X130500000Y-112150000D03*
G04 #@! TO.P,IC1,13*
G04 #@! TO.N,col4*
X130500000Y-114690000D03*
G04 #@! TO.P,IC1,12*
G04 #@! TO.N,col3*
X145750000Y-114690000D03*
G04 #@! TO.P,IC1,11*
G04 #@! TO.N,col2*
X145750000Y-112150000D03*
G04 #@! TO.P,IC1,10*
G04 #@! TO.N,col1*
X145750000Y-109610000D03*
G04 #@! TO.P,IC1,9*
G04 #@! TO.N,row4*
X145750000Y-107070000D03*
G04 #@! TO.P,IC1,8*
G04 #@! TO.N,row3*
X145750000Y-104530000D03*
G04 #@! TO.P,IC1,7*
G04 #@! TO.N,row2*
X145750000Y-101990000D03*
G04 #@! TO.P,IC1,6*
G04 #@! TO.N,row1*
X145750000Y-99450000D03*
G04 #@! TO.P,IC1,5*
G04 #@! TO.N,CS*
X145750000Y-96910000D03*
G04 #@! TO.P,IC1,4*
G04 #@! TO.N,GND*
X145750000Y-94370000D03*
G04 #@! TO.P,IC1,3*
X145750000Y-91830000D03*
G04 #@! TO.P,IC1,2*
G04 #@! TO.N,RX*
X145750000Y-89290000D03*
D15*
G04 #@! TO.P,IC1,1*
G04 #@! TO.N,TX*
X145750000Y-86750000D03*
G04 #@! TD*
D16*
G04 #@! TO.P,SW1,1*
G04 #@! TO.N,Net-(IC1-Pad22)*
X121675000Y-90075000D03*
X125825000Y-90075000D03*
G04 #@! TO.P,SW1,2*
G04 #@! TO.N,GND*
X121675000Y-87925000D03*
X125825000Y-87925000D03*
G04 #@! TD*
D17*
G04 #@! TO.P,SW2,2*
G04 #@! TO.N,GND*
X174699635Y-114858817D03*
G04 #@! TO.P,SW2,1*
G04 #@! TO.N,mode1*
X171299635Y-114858817D03*
G04 #@! TO.P,SW2,4*
G04 #@! TO.N,GND*
X174699635Y-109058817D03*
G04 #@! TO.P,SW2,3*
G04 #@! TO.N,mode1*
X171299635Y-109058817D03*
G04 #@! TD*
G04 #@! TO.P,SW3,3*
G04 #@! TO.N,mode2*
X104700365Y-114941183D03*
G04 #@! TO.P,SW3,4*
G04 #@! TO.N,GND*
X101300365Y-114941183D03*
G04 #@! TO.P,SW3,1*
G04 #@! TO.N,mode2*
X104700365Y-109141183D03*
G04 #@! TO.P,SW3,2*
G04 #@! TO.N,GND*
X101300365Y-109141183D03*
G04 #@! TD*
D18*
G04 #@! TO.P,J3,1*
G04 #@! TO.N,row1*
X117000000Y-108500000D03*
G04 #@! TO.P,J3,2*
G04 #@! TO.N,row2*
X117000000Y-109500000D03*
G04 #@! TO.P,J3,3*
G04 #@! TO.N,row3*
X117000000Y-110500000D03*
G04 #@! TO.P,J3,4*
G04 #@! TO.N,row4*
X117000000Y-111500000D03*
G04 #@! TO.P,J3,5*
G04 #@! TO.N,mode1*
X117000000Y-112500000D03*
G04 #@! TO.P,J3,6*
G04 #@! TO.N,mode2*
X117000000Y-113500000D03*
G04 #@! TO.P,J3,7*
G04 #@! TO.N,VCC*
X117000000Y-114500000D03*
G04 #@! TO.P,J3,8*
G04 #@! TO.N,GND*
X117000000Y-115500000D03*
D19*
G04 #@! TO.P,J3,MP*
G04 #@! TO.N,N/C*
X120875000Y-107200000D03*
X120875000Y-116800000D03*
G04 #@! TD*
D20*
G04 #@! TO.P,J4,1*
G04 #@! TO.N,VCC*
X142500000Y-135000000D03*
D21*
G04 #@! TO.P,J4,2*
G04 #@! TO.N,pin2*
X141230000Y-132460000D03*
G04 #@! TO.P,J4,3*
G04 #@! TO.N,pin3*
X139960000Y-135000000D03*
G04 #@! TO.P,J4,4*
G04 #@! TO.N,pin4*
X138690000Y-132460000D03*
G04 #@! TO.P,J4,5*
G04 #@! TO.N,pin5*
X137420000Y-135000000D03*
G04 #@! TO.P,J4,6*
G04 #@! TO.N,SCK1*
X136150000Y-132460000D03*
G04 #@! TO.P,J4,7*
G04 #@! TO.N,SS1*
X134880000Y-135000000D03*
G04 #@! TO.P,J4,8*
G04 #@! TO.N,GND*
X133610000Y-132460000D03*
G04 #@! TD*
D22*
G04 #@! TO.P,JP1,1*
G04 #@! TO.N,VCC*
X103000000Y-83000000D03*
G04 #@! TO.P,JP1,2*
G04 #@! TO.N,Net-(C1-Pad1)*
X101700000Y-83000000D03*
G04 #@! TD*
G04 #@! TO.P,JP2,2*
G04 #@! TO.N,Net-(C1-Pad1)*
X101700000Y-86750000D03*
G04 #@! TO.P,JP2,1*
G04 #@! TO.N,USBVCC*
X103000000Y-86750000D03*
G04 #@! TD*
D23*
G04 #@! TO.N,VCC*
G04 #@! TO.C,R3*
G36*
X170099505Y-85051204D02*
X170123773Y-85054804D01*
X170147572Y-85060765D01*
X170170671Y-85069030D01*
X170192850Y-85079520D01*
X170213893Y-85092132D01*
X170233599Y-85106747D01*
X170251777Y-85123223D01*
X170268253Y-85141401D01*
X170282868Y-85161107D01*
X170295480Y-85182150D01*
X170305970Y-85204329D01*
X170314235Y-85227428D01*
X170320196Y-85251227D01*
X170323796Y-85275495D01*
X170325000Y-85299999D01*
X170325000Y-86200001D01*
X170323796Y-86224505D01*
X170320196Y-86248773D01*
X170314235Y-86272572D01*
X170305970Y-86295671D01*
X170295480Y-86317850D01*
X170282868Y-86338893D01*
X170268253Y-86358599D01*
X170251777Y-86376777D01*
X170233599Y-86393253D01*
X170213893Y-86407868D01*
X170192850Y-86420480D01*
X170170671Y-86430970D01*
X170147572Y-86439235D01*
X170123773Y-86445196D01*
X170099505Y-86448796D01*
X170075001Y-86450000D01*
X169424999Y-86450000D01*
X169400495Y-86448796D01*
X169376227Y-86445196D01*
X169352428Y-86439235D01*
X169329329Y-86430970D01*
X169307150Y-86420480D01*
X169286107Y-86407868D01*
X169266401Y-86393253D01*
X169248223Y-86376777D01*
X169231747Y-86358599D01*
X169217132Y-86338893D01*
X169204520Y-86317850D01*
X169194030Y-86295671D01*
X169185765Y-86272572D01*
X169179804Y-86248773D01*
X169176204Y-86224505D01*
X169175000Y-86200001D01*
X169175000Y-85299999D01*
X169176204Y-85275495D01*
X169179804Y-85251227D01*
X169185765Y-85227428D01*
X169194030Y-85204329D01*
X169204520Y-85182150D01*
X169217132Y-85161107D01*
X169231747Y-85141401D01*
X169248223Y-85123223D01*
X169266401Y-85106747D01*
X169286107Y-85092132D01*
X169307150Y-85079520D01*
X169329329Y-85069030D01*
X169352428Y-85060765D01*
X169376227Y-85054804D01*
X169400495Y-85051204D01*
X169424999Y-85050000D01*
X170075001Y-85050000D01*
X170099505Y-85051204D01*
X170099505Y-85051204D01*
G37*
D24*
G04 #@! TD*
G04 #@! TO.P,R3,1*
G04 #@! TO.N,VCC*
X169750000Y-85750000D03*
D23*
G04 #@! TO.N,enter*
G04 #@! TO.C,R3*
G36*
X168049505Y-85051204D02*
X168073773Y-85054804D01*
X168097572Y-85060765D01*
X168120671Y-85069030D01*
X168142850Y-85079520D01*
X168163893Y-85092132D01*
X168183599Y-85106747D01*
X168201777Y-85123223D01*
X168218253Y-85141401D01*
X168232868Y-85161107D01*
X168245480Y-85182150D01*
X168255970Y-85204329D01*
X168264235Y-85227428D01*
X168270196Y-85251227D01*
X168273796Y-85275495D01*
X168275000Y-85299999D01*
X168275000Y-86200001D01*
X168273796Y-86224505D01*
X168270196Y-86248773D01*
X168264235Y-86272572D01*
X168255970Y-86295671D01*
X168245480Y-86317850D01*
X168232868Y-86338893D01*
X168218253Y-86358599D01*
X168201777Y-86376777D01*
X168183599Y-86393253D01*
X168163893Y-86407868D01*
X168142850Y-86420480D01*
X168120671Y-86430970D01*
X168097572Y-86439235D01*
X168073773Y-86445196D01*
X168049505Y-86448796D01*
X168025001Y-86450000D01*
X167374999Y-86450000D01*
X167350495Y-86448796D01*
X167326227Y-86445196D01*
X167302428Y-86439235D01*
X167279329Y-86430970D01*
X167257150Y-86420480D01*
X167236107Y-86407868D01*
X167216401Y-86393253D01*
X167198223Y-86376777D01*
X167181747Y-86358599D01*
X167167132Y-86338893D01*
X167154520Y-86317850D01*
X167144030Y-86295671D01*
X167135765Y-86272572D01*
X167129804Y-86248773D01*
X167126204Y-86224505D01*
X167125000Y-86200001D01*
X167125000Y-85299999D01*
X167126204Y-85275495D01*
X167129804Y-85251227D01*
X167135765Y-85227428D01*
X167144030Y-85204329D01*
X167154520Y-85182150D01*
X167167132Y-85161107D01*
X167181747Y-85141401D01*
X167198223Y-85123223D01*
X167216401Y-85106747D01*
X167236107Y-85092132D01*
X167257150Y-85079520D01*
X167279329Y-85069030D01*
X167302428Y-85060765D01*
X167326227Y-85054804D01*
X167350495Y-85051204D01*
X167374999Y-85050000D01*
X168025001Y-85050000D01*
X168049505Y-85051204D01*
X168049505Y-85051204D01*
G37*
D24*
G04 #@! TD*
G04 #@! TO.P,R3,2*
G04 #@! TO.N,enter*
X167700000Y-85750000D03*
D25*
G04 #@! TO.P,SW4,1*
G04 #@! TO.N,enter*
X164592102Y-78407898D03*
G04 #@! TO.P,SW4,2*
G04 #@! TO.N,GND*
X161000000Y-82000000D03*
G04 #@! TO.P,SW4,3*
G04 #@! TO.N,N/C*
X157407898Y-85592102D03*
G04 #@! TD*
D26*
G04 #@! TO.P,TP1,1*
G04 #@! TO.N,PROMICRO_D+*
X129000000Y-81000000D03*
G04 #@! TD*
G04 #@! TO.P,TP2,1*
G04 #@! TO.N,PROMICRO_D-*
X128000000Y-84000000D03*
G04 #@! TD*
D27*
G04 #@! TO.P,J5,1*
G04 #@! TO.N,VCC*
X109000000Y-83000000D03*
D28*
G04 #@! TO.P,J5,2*
G04 #@! TO.N,SDA*
X110270000Y-83000000D03*
G04 #@! TO.P,J5,3*
G04 #@! TO.N,SCL*
X111540000Y-83000000D03*
G04 #@! TO.P,J5,4*
G04 #@! TO.N,GND*
X112810000Y-83000000D03*
G04 #@! TD*
D29*
G04 #@! TO.P,J1,1*
G04 #@! TO.N,VCC*
X122000000Y-83000000D03*
D30*
G04 #@! TO.P,J1,2*
G04 #@! TO.N,PROMICRO_D-*
X123000000Y-83000000D03*
G04 #@! TO.P,J1,3*
G04 #@! TO.N,PROMICRO_D+*
X124000000Y-83000000D03*
G04 #@! TO.P,J1,4*
G04 #@! TO.N,GND*
X125000000Y-83000000D03*
G04 #@! TD*
D27*
G04 #@! TO.P,J6,1*
G04 #@! TO.N,pwm1*
X166000000Y-145000000D03*
D28*
G04 #@! TO.P,J6,2*
G04 #@! TO.N,GND*
X166000000Y-146270000D03*
G04 #@! TD*
D31*
G04 #@! TO.N,row1*
X133164300Y-109489900D03*
X129433200Y-116405500D03*
X123685800Y-120477900D03*
G04 #@! TO.N,row2*
X124411200Y-118960800D03*
G04 #@! TO.N,row3*
X124607100Y-122756300D03*
G04 #@! TO.N,row4*
X124188600Y-124223800D03*
G04 #@! TO.N,DIN*
X144115900Y-82141800D03*
G04 #@! TO.N,DOUT*
X141285600Y-102110000D03*
G04 #@! TO.N,CLK*
X142840300Y-99528500D03*
G04 #@! TO.N,JOY1B*
X124541600Y-113390400D03*
G04 #@! TO.N,JOY2B*
X141585200Y-106720900D03*
G04 #@! TO.N,JOY4A*
X119897700Y-129746600D03*
X120297500Y-108860800D03*
G04 #@! TO.N,JOY4B*
X126760500Y-126438000D03*
X123520600Y-108095900D03*
G04 #@! TO.N,Net-(C1-Pad1)*
X105474200Y-82044200D03*
X167637700Y-111572100D03*
X165144200Y-147426200D03*
G04 #@! TO.N,Net-(D1-Pad2)*
X117000700Y-80479300D03*
X127829000Y-132351300D03*
G04 #@! TO.N,Net-(D3-Pad2)*
X104268800Y-117443900D03*
X121533500Y-131798600D03*
G04 #@! TO.N,mode2*
X123588300Y-102475000D03*
X108785500Y-114711100D03*
G04 #@! TO.N,mode1*
X117385000Y-105951100D03*
X168963900Y-114705500D03*
G04 #@! TO.N,TX*
X141135400Y-83311300D03*
G04 #@! TO.N,USBVCC*
X148412200Y-98272000D03*
X109698000Y-87053500D03*
G04 #@! TO.N,Net-(JP3-Pad1)*
X144572500Y-118623700D03*
G04 #@! TO.N,Net-(JP4-Pad1)*
X143218300Y-123071600D03*
G04 #@! TO.N,Net-(JP5-Pad1)*
X139864500Y-125978400D03*
G04 #@! TO.N,Net-(JP6-Pad1)*
X137411500Y-128619500D03*
G04 #@! TD*
D32*
G04 #@! TO.N,GND*
X117811300Y-91188300D02*
X118061700Y-91188300D01*
X118061700Y-91188300D02*
X118250000Y-91000000D01*
X112810000Y-83000000D02*
X112810000Y-86187000D01*
X112810000Y-86187000D02*
X117811300Y-91188300D01*
X111500000Y-101750000D02*
X111500000Y-97499600D01*
X111500000Y-97499600D02*
X117811300Y-91188300D01*
X102350700Y-109141200D02*
X105398700Y-106093200D01*
X105398700Y-106093200D02*
X107156800Y-106093200D01*
X107156800Y-106093200D02*
X111500000Y-101750000D01*
X171725100Y-106423700D02*
X164500000Y-113648800D01*
X164500000Y-113648800D02*
X164500000Y-122250000D01*
X174699600Y-107958500D02*
X173259900Y-107958500D01*
X173259900Y-107958500D02*
X171725100Y-106423700D01*
X171725100Y-106423700D02*
X171725100Y-104975100D01*
X171725100Y-104975100D02*
X168500000Y-101750000D01*
X107500000Y-122250000D02*
X107500000Y-119614000D01*
X107500000Y-119614000D02*
X104579600Y-116693600D01*
X104579600Y-116693600D02*
X104103100Y-116693600D01*
X104103100Y-116693600D02*
X102350700Y-114941200D01*
X101300400Y-114941200D02*
X102350700Y-114941200D01*
X101300400Y-109141200D02*
X102350700Y-109141200D01*
X174699600Y-109058800D02*
X174699600Y-107958500D01*
X166000000Y-146270000D02*
X165149700Y-146270000D01*
X165149700Y-146270000D02*
X165149700Y-139813300D01*
X165149700Y-139813300D02*
X158336400Y-133000000D01*
X158336400Y-133000000D02*
X157750000Y-133000000D01*
X125000000Y-87739500D02*
X125185500Y-87925000D01*
X125185500Y-87925000D02*
X125387400Y-87925000D01*
X125000000Y-83775300D02*
X125000000Y-87739500D01*
X125000000Y-87739500D02*
X122735800Y-87739500D01*
X122735800Y-87739500D02*
X122550300Y-87925000D01*
X121675000Y-87925000D02*
X122550300Y-87925000D01*
X153240000Y-122760800D02*
X153240000Y-123974700D01*
X153240000Y-123974700D02*
X153846900Y-123974700D01*
X153846900Y-123974700D02*
X156036500Y-126164300D01*
X156036500Y-126164300D02*
X156036500Y-131286500D01*
X156036500Y-131286500D02*
X157750000Y-133000000D01*
X125825000Y-87925000D02*
X126700300Y-87925000D01*
X130500000Y-89290000D02*
X128065300Y-89290000D01*
X128065300Y-89290000D02*
X126700300Y-87925000D01*
X125825000Y-87925000D02*
X125387400Y-87925000D01*
X174699600Y-109058800D02*
X174699600Y-110159100D01*
X174699600Y-114858800D02*
X174699600Y-113758500D01*
X174699600Y-110159100D02*
X175345800Y-110805300D01*
X175345800Y-110805300D02*
X175345800Y-113112300D01*
X175345800Y-113112300D02*
X174699600Y-113758500D01*
X101300400Y-109141200D02*
X101300400Y-110241500D01*
X101300400Y-114941200D02*
X101300400Y-113840900D01*
X101300400Y-113840900D02*
X100654100Y-113194600D01*
X100654100Y-113194600D02*
X100654100Y-110887800D01*
X100654100Y-110887800D02*
X101300400Y-110241500D01*
X117000000Y-115500000D02*
X118125300Y-115500000D01*
X118125300Y-115500000D02*
X118125300Y-128875300D01*
X118125300Y-128875300D02*
X118250000Y-129000000D01*
X125000000Y-83000000D02*
X125000000Y-83775300D01*
D33*
G04 #@! TO.N,CS*
X153240000Y-78229700D02*
X152645600Y-78229700D01*
X152645600Y-78229700D02*
X147039100Y-83836200D01*
X147039100Y-83836200D02*
X147039100Y-95620900D01*
X147039100Y-95620900D02*
X145750000Y-96910000D01*
X153240000Y-77040800D02*
X153240000Y-78229700D01*
G04 #@! TO.N,row1*
X133164300Y-109489900D02*
X133164300Y-111006000D01*
X133164300Y-111006000D02*
X130750300Y-113420000D01*
X130750300Y-113420000D02*
X130277800Y-113420000D01*
X130277800Y-113420000D02*
X129433200Y-114264600D01*
X129433200Y-114264600D02*
X129433200Y-116405500D01*
X123685800Y-120477900D02*
X123919900Y-120477900D01*
X123919900Y-120477900D02*
X125136500Y-119261300D01*
X125136500Y-119261300D02*
X125136500Y-117418100D01*
X125136500Y-117418100D02*
X120429300Y-112710900D01*
X120429300Y-112710900D02*
X120429300Y-110829000D01*
X120429300Y-110829000D02*
X118100300Y-108500000D01*
X117000000Y-108500000D02*
X118100300Y-108500000D01*
G04 #@! TO.N,row2*
X118100300Y-109500000D02*
X119580900Y-110980600D01*
X119580900Y-110980600D02*
X119580900Y-112767900D01*
X119580900Y-112767900D02*
X124411200Y-117598200D01*
X124411200Y-117598200D02*
X124411200Y-118960800D01*
X117000000Y-109500000D02*
X118100300Y-109500000D01*
G04 #@! TO.N,row3*
X118100300Y-110500000D02*
X119051100Y-111450800D01*
X119051100Y-111450800D02*
X119051100Y-117200300D01*
X119051100Y-117200300D02*
X124607100Y-122756300D01*
X117000000Y-110500000D02*
X118100300Y-110500000D01*
G04 #@! TO.N,row4*
X118100300Y-111500000D02*
X118600700Y-112000400D01*
X118600700Y-112000400D02*
X118600700Y-118635900D01*
X118600700Y-118635900D02*
X124188600Y-124223800D01*
X117000000Y-111500000D02*
X118100300Y-111500000D01*
G04 #@! TO.N,col2*
X153240000Y-112600800D02*
X151789700Y-112600800D01*
X145750000Y-112150000D02*
X151338900Y-112150000D01*
X151338900Y-112150000D02*
X151789700Y-112600800D01*
G04 #@! TO.N,col3*
X153240000Y-115140800D02*
X151789700Y-115140800D01*
X145750000Y-114690000D02*
X151338900Y-114690000D01*
X151338900Y-114690000D02*
X151789700Y-115140800D01*
G04 #@! TO.N,DIN*
X144115900Y-82141800D02*
X140326900Y-85930800D01*
X140326900Y-85930800D02*
X137612900Y-85930800D01*
X137612900Y-85930800D02*
X132990800Y-90552900D01*
X132990800Y-90552900D02*
X132990800Y-95896900D01*
X132990800Y-95896900D02*
X130707700Y-98180000D01*
X130707700Y-98180000D02*
X130282300Y-98180000D01*
X130282300Y-98180000D02*
X129444600Y-99017700D01*
X129444600Y-99017700D02*
X129444600Y-111094600D01*
X129444600Y-111094600D02*
X130500000Y-112150000D01*
G04 #@! TO.N,DOUT*
X153240000Y-82120800D02*
X153240000Y-83309700D01*
X141285600Y-102110000D02*
X142675600Y-100720000D01*
X142675600Y-100720000D02*
X146004700Y-100720000D01*
X146004700Y-100720000D02*
X147246300Y-99478400D01*
X147246300Y-99478400D02*
X147246300Y-98403000D01*
X147246300Y-98403000D02*
X151318200Y-94331100D01*
X151318200Y-94331100D02*
X151318200Y-84637100D01*
X151318200Y-84637100D02*
X152645600Y-83309700D01*
X152645600Y-83309700D02*
X153240000Y-83309700D01*
G04 #@! TO.N,CLK*
X153240000Y-79580800D02*
X153240000Y-80769700D01*
X142840300Y-99528500D02*
X144144300Y-98224500D01*
X144144300Y-98224500D02*
X145908100Y-98224500D01*
X145908100Y-98224500D02*
X150735300Y-93397300D01*
X150735300Y-93397300D02*
X150735300Y-82680000D01*
X150735300Y-82680000D02*
X152645600Y-80769700D01*
X152645600Y-80769700D02*
X153240000Y-80769700D01*
D32*
G04 #@! TO.N,VCC*
X109000000Y-83000000D02*
X109000000Y-83850300D01*
X109000000Y-83850300D02*
X110471600Y-85321900D01*
X110471600Y-85321900D02*
X110471600Y-98778400D01*
X110471600Y-98778400D02*
X107500000Y-101750000D01*
X109000000Y-83000000D02*
X103850300Y-83000000D01*
X121224700Y-83000000D02*
X117937800Y-79713100D01*
X117937800Y-79713100D02*
X112286900Y-79713100D01*
X112286900Y-79713100D02*
X109000000Y-83000000D01*
X103000000Y-83000000D02*
X103850300Y-83000000D01*
X131360300Y-87610200D02*
X131566100Y-87816100D01*
X131566100Y-87816100D02*
X131566100Y-93303900D01*
X131566100Y-93303900D02*
X130500000Y-94370000D01*
X130500000Y-86750000D02*
X131360300Y-87610200D01*
X136849700Y-82120800D02*
X131360300Y-87610200D01*
X138000000Y-82120800D02*
X136849700Y-82120800D01*
X122000000Y-83000000D02*
X121224700Y-83000000D01*
X117000000Y-114500000D02*
X115874700Y-114500000D01*
X111500000Y-122250000D02*
X111500000Y-118874700D01*
X111500000Y-118874700D02*
X115874700Y-114500000D01*
X118250000Y-133000000D02*
X111500000Y-126250000D01*
X111500000Y-126250000D02*
X111500000Y-122250000D01*
X164500000Y-101750000D02*
X163349600Y-102900400D01*
X163349600Y-102900400D02*
X163349600Y-122727400D01*
X163349600Y-122727400D02*
X164032400Y-123410200D01*
X164032400Y-123410200D02*
X167339800Y-123410200D01*
X167339800Y-123410200D02*
X168500000Y-122250000D01*
X161125000Y-94375000D02*
X164500000Y-97750000D01*
X164500000Y-97750000D02*
X164500000Y-101750000D01*
X157750000Y-91000000D02*
X161125000Y-94375000D01*
X161125000Y-94375000D02*
X169750000Y-85750000D01*
D33*
G04 #@! TO.N,Net-(IC1-Pad22)*
X125825000Y-90075000D02*
X126675300Y-90075000D01*
X126675300Y-90075000D02*
X128430300Y-91830000D01*
X128430300Y-91830000D02*
X130500000Y-91830000D01*
X121675000Y-90075000D02*
X125825000Y-90075000D01*
G04 #@! TO.N,JOY1B*
X118250000Y-93000000D02*
X124541600Y-99291600D01*
X124541600Y-99291600D02*
X124541600Y-113390400D01*
G04 #@! TO.N,JOY2B*
X141585200Y-106720900D02*
X144572600Y-109708300D01*
X144572600Y-109708300D02*
X144572600Y-114996000D01*
X144572600Y-114996000D02*
X151067400Y-121490800D01*
X151067400Y-121490800D02*
X153919500Y-121490800D01*
X153919500Y-121490800D02*
X156511900Y-124083200D01*
X156511900Y-124083200D02*
X156511900Y-129761900D01*
X156511900Y-129761900D02*
X157750000Y-131000000D01*
G04 #@! TO.N,JOY4A*
X119897700Y-129746600D02*
X125586800Y-124057500D01*
X125586800Y-124057500D02*
X125586800Y-117231500D01*
X125586800Y-117231500D02*
X122784600Y-114429300D01*
X122784600Y-114429300D02*
X122784600Y-111347900D01*
X122784600Y-111347900D02*
X120297500Y-108860800D01*
X118250000Y-131000000D02*
X119503400Y-129746600D01*
X119503400Y-129746600D02*
X119897700Y-129746600D01*
G04 #@! TO.N,JOY4B*
X126136700Y-126169700D02*
X126136700Y-117064800D01*
X126136700Y-117064800D02*
X123520600Y-114448700D01*
X123520600Y-114448700D02*
X123520600Y-108095900D01*
X126136700Y-126169700D02*
X126405000Y-126438000D01*
X126405000Y-126438000D02*
X126760500Y-126438000D01*
X126136700Y-126169700D02*
X120808200Y-131498200D01*
X120808200Y-131498200D02*
X120808200Y-132074300D01*
X120808200Y-132074300D02*
X118748000Y-134134500D01*
X118748000Y-134134500D02*
X117769100Y-134134500D01*
X117769100Y-134134500D02*
X109500000Y-125865400D01*
X109500000Y-125865400D02*
X109500000Y-122250000D01*
D32*
G04 #@! TO.N,Net-(C1-Pad1)*
X101700000Y-83000000D02*
X101700000Y-81899700D01*
X101700000Y-81899700D02*
X105329700Y-81899700D01*
X105329700Y-81899700D02*
X105474200Y-82044200D01*
X101700000Y-86750000D02*
X101700000Y-83000000D01*
X167637700Y-111572100D02*
X167637700Y-116761300D01*
X167637700Y-116761300D02*
X169691300Y-118814900D01*
X169691300Y-118814900D02*
X169691300Y-143837000D01*
X169691300Y-143837000D02*
X166102200Y-147426100D01*
X166102200Y-147426100D02*
X165144200Y-147426100D01*
X165144200Y-147426100D02*
X165144200Y-147426200D01*
D33*
G04 #@! TO.N,LED_D1*
X138000000Y-98486100D02*
X138240400Y-98486100D01*
X138240400Y-98486100D02*
X139659700Y-99905400D01*
X139659700Y-99905400D02*
X139659700Y-103436500D01*
X139659700Y-103436500D02*
X140053100Y-103829900D01*
X140053100Y-103829900D02*
X140053100Y-105953500D01*
X140053100Y-105953500D02*
X139959300Y-106047300D01*
X139959300Y-106047300D02*
X139959300Y-107394500D01*
X139959300Y-107394500D02*
X142466700Y-109901900D01*
X142466700Y-109901900D02*
X142466700Y-123345900D01*
X142466700Y-123345900D02*
X158080000Y-138959200D01*
X158080000Y-138959200D02*
X158080000Y-139874700D01*
X158080000Y-141000000D02*
X158080000Y-139874700D01*
X138000000Y-97360800D02*
X138000000Y-98486100D01*
G04 #@! TO.N,Net-(D1-Pad2)*
X117000700Y-80479300D02*
X117000700Y-88159100D01*
X117000700Y-88159100D02*
X127829000Y-98987400D01*
X127829000Y-98987400D02*
X127829000Y-132351300D01*
G04 #@! TO.N,Net-(D3-Pad2)*
X121533500Y-131798600D02*
X121533500Y-132056400D01*
X121533500Y-132056400D02*
X118950200Y-134639700D01*
X118950200Y-134639700D02*
X117566100Y-134639700D01*
X117566100Y-134639700D02*
X104268800Y-121342400D01*
X104268800Y-121342400D02*
X104268800Y-117443900D01*
G04 #@! TO.N,enter*
X130500000Y-99450000D02*
X134151200Y-95798800D01*
X134151200Y-95798800D02*
X134151200Y-91926800D01*
X134151200Y-91926800D02*
X137471000Y-88607000D01*
X137471000Y-88607000D02*
X139164500Y-88607000D01*
X139164500Y-88607000D02*
X151923800Y-75847700D01*
X151923800Y-75847700D02*
X162031900Y-75847700D01*
X162031900Y-75847700D02*
X164592100Y-78407900D01*
X130500000Y-99450000D02*
X130500000Y-100143300D01*
X130500000Y-100143300D02*
X136874700Y-106518000D01*
X136874700Y-106518000D02*
X136874700Y-113083000D01*
X136874700Y-113083000D02*
X137807200Y-114015500D01*
X137807200Y-114015500D02*
X138000000Y-114015500D01*
X167700000Y-85750000D02*
X167700000Y-81515800D01*
X167700000Y-81515800D02*
X164592100Y-78407900D01*
X138000000Y-115140800D02*
X138000000Y-114015500D01*
G04 #@! TO.N,mode2*
X115446700Y-113497200D02*
X109999400Y-113497200D01*
X109999400Y-113497200D02*
X108785500Y-114711100D01*
X117000000Y-113500000D02*
X115449500Y-113500000D01*
X115449500Y-113500000D02*
X115446700Y-113497200D01*
X115446700Y-113497200D02*
X115446700Y-106842800D01*
X115446700Y-106842800D02*
X119814500Y-102475000D01*
X119814500Y-102475000D02*
X123588300Y-102475000D01*
X108785500Y-114711100D02*
X105955800Y-114711100D01*
X105955800Y-114711100D02*
X105725700Y-114941200D01*
X105725700Y-109141200D02*
X105725700Y-114481000D01*
X105725700Y-114481000D02*
X105955800Y-114711100D01*
X138000000Y-116555500D02*
X137718700Y-116555500D01*
X137718700Y-116555500D02*
X136304800Y-115141600D01*
X136304800Y-115141600D02*
X136304800Y-107794800D01*
X136304800Y-107794800D02*
X130500000Y-101990000D01*
X104700400Y-109141200D02*
X105725700Y-109141200D01*
X104700400Y-114941200D02*
X105725700Y-114941200D01*
X138000000Y-117680800D02*
X138000000Y-116555500D01*
G04 #@! TO.N,mode1*
X138000000Y-120220800D02*
X138000000Y-119095500D01*
X130500000Y-104530000D02*
X135297100Y-109327100D01*
X135297100Y-109327100D02*
X135297100Y-116673900D01*
X135297100Y-116673900D02*
X137718700Y-119095500D01*
X137718700Y-119095500D02*
X138000000Y-119095500D01*
X117000000Y-112500000D02*
X115899700Y-112500000D01*
X115899700Y-112500000D02*
X115899700Y-107436400D01*
X115899700Y-107436400D02*
X117385000Y-105951100D01*
X170695700Y-113179600D02*
X170489800Y-113179600D01*
X170489800Y-113179600D02*
X168963900Y-114705500D01*
X170695700Y-113179600D02*
X171299600Y-113783500D01*
X171299600Y-110134100D02*
X170695700Y-110738000D01*
X170695700Y-110738000D02*
X170695700Y-113179600D01*
X171299600Y-114858800D02*
X171299600Y-113783500D01*
X171299600Y-109058800D02*
X171299600Y-110134100D01*
G04 #@! TO.N,RX*
X145750000Y-89290000D02*
X144029200Y-91010800D01*
X144029200Y-91010800D02*
X137644100Y-91010800D01*
X137644100Y-91010800D02*
X136874700Y-91780200D01*
X136874700Y-91780200D02*
X136874700Y-105739400D01*
X136874700Y-105739400D02*
X138000000Y-106864700D01*
X138000000Y-106864700D02*
X138000000Y-108393200D01*
X138000000Y-108393200D02*
X140383900Y-110777100D01*
X140383900Y-110777100D02*
X140383900Y-124204400D01*
X140383900Y-124204400D02*
X140609100Y-124429600D01*
X140609100Y-124429600D02*
X140609100Y-126447700D01*
X140609100Y-126447700D02*
X137712000Y-129344800D01*
X137712000Y-129344800D02*
X135197200Y-129344800D01*
X135197200Y-129344800D02*
X124245300Y-140296700D01*
X124245300Y-140296700D02*
X124245300Y-141000000D01*
X123120000Y-141000000D02*
X124245300Y-141000000D01*
G04 #@! TO.N,TX*
X120580000Y-139874700D02*
X121331400Y-139874700D01*
X121331400Y-139874700D02*
X128554300Y-132651800D01*
X128554300Y-132651800D02*
X128554300Y-97383300D01*
X128554300Y-97383300D02*
X130297600Y-95640000D01*
X130297600Y-95640000D02*
X130739800Y-95640000D01*
X130739800Y-95640000D02*
X132149000Y-94230800D01*
X132149000Y-94230800D02*
X132149000Y-88918000D01*
X132149000Y-88918000D02*
X137755700Y-83311300D01*
X137755700Y-83311300D02*
X141135400Y-83311300D01*
X116625300Y-141000000D02*
X116625300Y-140718600D01*
X116625300Y-140718600D02*
X117469200Y-139874700D01*
X117469200Y-139874700D02*
X120580000Y-139874700D01*
X120580000Y-139987300D02*
X120580000Y-139874700D01*
X115500000Y-141000000D02*
X116625300Y-141000000D01*
X120580000Y-141000000D02*
X120580000Y-139987300D01*
G04 #@! TO.N,PROMICRO_D+*
X124000000Y-83000000D02*
X124000000Y-82249700D01*
X124000000Y-82249700D02*
X127750300Y-82249700D01*
X127750300Y-82249700D02*
X129000000Y-81000000D01*
G04 #@! TO.N,pin2*
X119165300Y-148620000D02*
X119165300Y-148414900D01*
X119165300Y-148414900D02*
X130356200Y-137224000D01*
X130356200Y-137224000D02*
X134185300Y-137224000D01*
X134185300Y-137224000D02*
X136150000Y-135259300D01*
X136150000Y-135259300D02*
X136150000Y-134165100D01*
X136150000Y-134165100D02*
X137579400Y-132735700D01*
X137579400Y-132735700D02*
X137579400Y-132049800D01*
X137579400Y-132049800D02*
X138271100Y-131358100D01*
X138271100Y-131358100D02*
X140128100Y-131358100D01*
X140128100Y-131358100D02*
X141230000Y-132460000D01*
X118040000Y-148620000D02*
X119165300Y-148620000D01*
G04 #@! TO.N,pin3*
X123120000Y-148620000D02*
X123120000Y-147494700D01*
X139960000Y-135000000D02*
X135912600Y-139047400D01*
X135912600Y-139047400D02*
X131567300Y-139047400D01*
X131567300Y-139047400D02*
X123120000Y-147494700D01*
G04 #@! TO.N,pin4*
X153000000Y-148620000D02*
X153000000Y-147494700D01*
X138690000Y-132460000D02*
X138949500Y-132460000D01*
X138949500Y-132460000D02*
X141424600Y-134935100D01*
X141424600Y-134935100D02*
X141424600Y-135919300D01*
X141424600Y-135919300D02*
X153000000Y-147494700D01*
G04 #@! TO.N,MISO1*
X138000000Y-101026100D02*
X138281300Y-101026100D01*
X138281300Y-101026100D02*
X139209400Y-101954200D01*
X139209400Y-101954200D02*
X139209400Y-103623100D01*
X139209400Y-103623100D02*
X139602800Y-104016500D01*
X139602800Y-104016500D02*
X139602800Y-105766900D01*
X139602800Y-105766900D02*
X139509000Y-105860700D01*
X139509000Y-105860700D02*
X139509000Y-107581100D01*
X139509000Y-107581100D02*
X141960100Y-110032200D01*
X141960100Y-110032200D02*
X141960100Y-123662800D01*
X141960100Y-123662800D02*
X155540000Y-137242700D01*
X155540000Y-137242700D02*
X155540000Y-139874700D01*
X155540000Y-141000000D02*
X155540000Y-139874700D01*
X138000000Y-99900800D02*
X138000000Y-101026100D01*
G04 #@! TO.N,SCK1*
X138000000Y-103566100D02*
X138207500Y-103566100D01*
X138207500Y-103566100D02*
X139152500Y-104511100D01*
X139152500Y-104511100D02*
X139152500Y-105580300D01*
X139152500Y-105580300D02*
X139058700Y-105674100D01*
X139058700Y-105674100D02*
X139058700Y-107819600D01*
X139058700Y-107819600D02*
X141284500Y-110045400D01*
X141284500Y-110045400D02*
X141284500Y-123662500D01*
X141284500Y-123662500D02*
X141524100Y-123902100D01*
X141524100Y-123902100D02*
X141524100Y-127085900D01*
X141524100Y-127085900D02*
X136150000Y-132460000D01*
X138000000Y-102440800D02*
X138000000Y-103566100D01*
G04 #@! TO.N,SS1*
X138000000Y-106106100D02*
X138569600Y-106675700D01*
X138569600Y-106675700D02*
X138569600Y-108325900D01*
X138569600Y-108325900D02*
X140834200Y-110590500D01*
X140834200Y-110590500D02*
X140834200Y-123980500D01*
X140834200Y-123980500D02*
X141059500Y-124205800D01*
X141059500Y-124205800D02*
X141059500Y-126634200D01*
X141059500Y-126634200D02*
X137898600Y-129795100D01*
X137898600Y-129795100D02*
X137259100Y-129795100D01*
X137259100Y-129795100D02*
X134880000Y-132174200D01*
X134880000Y-132174200D02*
X134880000Y-135000000D01*
X138000000Y-104980800D02*
X138000000Y-106106100D01*
G04 #@! TO.N,pwm1*
X166000000Y-145000000D02*
X166000000Y-131000400D01*
X166000000Y-131000400D02*
X155948500Y-120948900D01*
X155948500Y-120948900D02*
X155948500Y-90503800D01*
X155948500Y-90503800D02*
X153834400Y-88389700D01*
X153834400Y-88389700D02*
X153240000Y-88389700D01*
X153240000Y-87200800D02*
X153240000Y-88389700D01*
D32*
G04 #@! TO.N,USBVCC*
X153240000Y-119006900D02*
X153908800Y-119006900D01*
X153908800Y-119006900D02*
X154736200Y-118179500D01*
X154736200Y-118179500D02*
X154736200Y-112041100D01*
X154736200Y-112041100D02*
X154025900Y-111330800D01*
X154025900Y-111330800D02*
X152509000Y-111330800D01*
X152509000Y-111330800D02*
X148412200Y-107234000D01*
X148412200Y-107234000D02*
X148412200Y-98272000D01*
X103850300Y-86750000D02*
X104153800Y-87053500D01*
X104153800Y-87053500D02*
X109698000Y-87053500D01*
X103000000Y-86750000D02*
X103850300Y-86750000D01*
X153240000Y-120220800D02*
X153240000Y-119006900D01*
D33*
G04 #@! TO.N,Net-(JP3-Pad1)*
X138000000Y-93406100D02*
X138218800Y-93406100D01*
X138218800Y-93406100D02*
X140560300Y-95747600D01*
X140560300Y-95747600D02*
X140560300Y-103063300D01*
X140560300Y-103063300D02*
X140953700Y-103456700D01*
X140953700Y-103456700D02*
X140953700Y-106326700D01*
X140953700Y-106326700D02*
X140859900Y-106420500D01*
X140859900Y-106420500D02*
X140859900Y-107021300D01*
X140859900Y-107021300D02*
X144067700Y-110229100D01*
X144067700Y-110229100D02*
X144067700Y-118119000D01*
X144067700Y-118119000D02*
X144067800Y-118119000D01*
X144067800Y-118119000D02*
X144572500Y-118623700D01*
X138000000Y-92280800D02*
X138000000Y-93406100D01*
G04 #@! TO.N,Net-(JP4-Pad1)*
X138000000Y-95946100D02*
X138176900Y-95946100D01*
X138176900Y-95946100D02*
X140110000Y-97879200D01*
X140110000Y-97879200D02*
X140110000Y-103249900D01*
X140110000Y-103249900D02*
X140503400Y-103643300D01*
X140503400Y-103643300D02*
X140503400Y-106140100D01*
X140503400Y-106140100D02*
X140409600Y-106233900D01*
X140409600Y-106233900D02*
X140409600Y-107207900D01*
X140409600Y-107207900D02*
X143218300Y-110016600D01*
X143218300Y-110016600D02*
X143218300Y-123071600D01*
X138000000Y-94820800D02*
X138000000Y-95946100D01*
G04 #@! TO.N,Net-(JP5-Pad1)*
X138000000Y-111186100D02*
X138196300Y-111186100D01*
X138196300Y-111186100D02*
X139864500Y-112854300D01*
X139864500Y-112854300D02*
X139864500Y-125978400D01*
X138000000Y-110060800D02*
X138000000Y-111186100D01*
G04 #@! TO.N,Net-(JP6-Pad1)*
X138000000Y-112600800D02*
X139132300Y-113733100D01*
X139132300Y-113733100D02*
X139132300Y-126898700D01*
X139132300Y-126898700D02*
X137411500Y-128619500D01*
G04 #@! TD*
D34*
G04 #@! TO.N,GND*
G36*
X171759192Y-74780578D02*
X172494389Y-74981705D01*
X173182351Y-75309846D01*
X173801331Y-75754628D01*
X174331761Y-76301988D01*
X174756884Y-76934639D01*
X175063251Y-77632561D01*
X175242499Y-78379183D01*
X175290000Y-79026030D01*
X175290000Y-107673817D01*
X174985385Y-107673817D01*
X174826635Y-107832567D01*
X174826635Y-108931817D01*
X174846635Y-108931817D01*
X174846635Y-109185817D01*
X174826635Y-109185817D01*
X174826635Y-110285067D01*
X174985385Y-110443817D01*
X175290000Y-110443817D01*
X175290000Y-111214761D01*
X175114238Y-111038999D01*
X174715455Y-110873817D01*
X174283815Y-110873817D01*
X173885032Y-111038999D01*
X173579817Y-111344214D01*
X173414635Y-111742997D01*
X173414635Y-112174637D01*
X173579817Y-112573420D01*
X173885032Y-112878635D01*
X174283815Y-113043817D01*
X174715455Y-113043817D01*
X175114238Y-112878635D01*
X175290001Y-112702872D01*
X175290001Y-113473817D01*
X174985385Y-113473817D01*
X174826635Y-113632567D01*
X174826635Y-114731817D01*
X174846635Y-114731817D01*
X174846635Y-114985817D01*
X174826635Y-114985817D01*
X174826635Y-116085067D01*
X174985385Y-116243817D01*
X175290001Y-116243817D01*
X175290001Y-144968370D01*
X175219422Y-145759193D01*
X175018295Y-146494389D01*
X174690152Y-147182355D01*
X174245374Y-147801328D01*
X173698012Y-148331761D01*
X173065362Y-148756883D01*
X172367439Y-149063251D01*
X171620819Y-149242499D01*
X170973970Y-149290000D01*
X161898180Y-149290000D01*
X161971740Y-149179909D01*
X162083113Y-148620000D01*
X161971740Y-148060091D01*
X161654577Y-147585423D01*
X161179909Y-147268260D01*
X160761333Y-147185000D01*
X160478667Y-147185000D01*
X160060091Y-147268260D01*
X159585423Y-147585423D01*
X159350000Y-147937758D01*
X159114577Y-147585423D01*
X158639909Y-147268260D01*
X158221333Y-147185000D01*
X157938667Y-147185000D01*
X157520091Y-147268260D01*
X157045423Y-147585423D01*
X156810000Y-147937758D01*
X156574577Y-147585423D01*
X156099909Y-147268260D01*
X155681333Y-147185000D01*
X155398667Y-147185000D01*
X154980091Y-147268260D01*
X154505423Y-147585423D01*
X154270000Y-147937758D01*
X154034577Y-147585423D01*
X153755896Y-147399214D01*
X153715904Y-147198163D01*
X153715904Y-147198162D01*
X153590329Y-147010227D01*
X153547929Y-146946771D01*
X153484473Y-146904371D01*
X142977541Y-136397440D01*
X143250000Y-136397440D01*
X143497765Y-136348157D01*
X143707809Y-136207809D01*
X143848157Y-135997765D01*
X143897440Y-135750000D01*
X143897440Y-134250000D01*
X143848157Y-134002235D01*
X143707809Y-133792191D01*
X143497765Y-133651843D01*
X143250000Y-133602560D01*
X142046127Y-133602560D01*
X142404147Y-133244540D01*
X142615000Y-132735494D01*
X142615000Y-132184506D01*
X142404147Y-131675460D01*
X142014540Y-131285853D01*
X141505494Y-131075000D01*
X140954506Y-131075000D01*
X140929966Y-131085165D01*
X140718431Y-130873630D01*
X140676029Y-130810171D01*
X140424637Y-130642196D01*
X140202952Y-130598100D01*
X140202947Y-130598100D01*
X140128100Y-130583212D01*
X140053253Y-130598100D01*
X139086701Y-130598100D01*
X142008573Y-127676229D01*
X142072029Y-127633829D01*
X142240004Y-127382437D01*
X142284100Y-127160752D01*
X142284100Y-127160748D01*
X142298988Y-127085901D01*
X142284100Y-127011054D01*
X142284100Y-125061601D01*
X154780000Y-137557502D01*
X154780001Y-139781956D01*
X154505423Y-139965423D01*
X154424785Y-140086106D01*
X154398157Y-139952235D01*
X154257809Y-139742191D01*
X154047765Y-139601843D01*
X153800000Y-139552560D01*
X152200000Y-139552560D01*
X151952235Y-139601843D01*
X151742191Y-139742191D01*
X151601843Y-139952235D01*
X151552560Y-140200000D01*
X151552560Y-141800000D01*
X151601843Y-142047765D01*
X151742191Y-142257809D01*
X151952235Y-142398157D01*
X152200000Y-142447440D01*
X153800000Y-142447440D01*
X154047765Y-142398157D01*
X154257809Y-142257809D01*
X154398157Y-142047765D01*
X154424785Y-141913894D01*
X154505423Y-142034577D01*
X154980091Y-142351740D01*
X155398667Y-142435000D01*
X155681333Y-142435000D01*
X156099909Y-142351740D01*
X156574577Y-142034577D01*
X156810000Y-141682242D01*
X157045423Y-142034577D01*
X157520091Y-142351740D01*
X157938667Y-142435000D01*
X158221333Y-142435000D01*
X158639909Y-142351740D01*
X159114577Y-142034577D01*
X159350000Y-141682242D01*
X159585423Y-142034577D01*
X160060091Y-142351740D01*
X160478667Y-142435000D01*
X160761333Y-142435000D01*
X161179909Y-142351740D01*
X161654577Y-142034577D01*
X161971740Y-141559909D01*
X162083113Y-141000000D01*
X161971740Y-140440091D01*
X161654577Y-139965423D01*
X161179909Y-139648260D01*
X160761333Y-139565000D01*
X160478667Y-139565000D01*
X160060091Y-139648260D01*
X159585423Y-139965423D01*
X159350000Y-140317758D01*
X159114577Y-139965423D01*
X158840000Y-139781957D01*
X158840000Y-139034048D01*
X158854888Y-138959200D01*
X158840000Y-138884352D01*
X158840000Y-138884348D01*
X158795904Y-138662663D01*
X158627929Y-138411271D01*
X158564473Y-138368871D01*
X156890272Y-136694670D01*
X158965000Y-136694670D01*
X158965000Y-137305330D01*
X159198690Y-137869507D01*
X159630493Y-138301310D01*
X160194670Y-138535000D01*
X160805330Y-138535000D01*
X161369507Y-138301310D01*
X161801310Y-137869507D01*
X162035000Y-137305330D01*
X162035000Y-136694670D01*
X161801310Y-136130493D01*
X161369507Y-135698690D01*
X160805330Y-135465000D01*
X160194670Y-135465000D01*
X159630493Y-135698690D01*
X159198690Y-136130493D01*
X158965000Y-136694670D01*
X156890272Y-136694670D01*
X154203347Y-134007745D01*
X156921861Y-134007745D01*
X156995995Y-134253864D01*
X157533223Y-134446965D01*
X158103454Y-134419778D01*
X158504005Y-134253864D01*
X158578139Y-134007745D01*
X157750000Y-133179605D01*
X156921861Y-134007745D01*
X154203347Y-134007745D01*
X143974606Y-123779005D01*
X144095731Y-123657880D01*
X144253300Y-123277474D01*
X144253300Y-122865726D01*
X144095731Y-122485320D01*
X143978300Y-122367889D01*
X143978300Y-119493211D01*
X143986220Y-119501131D01*
X144366626Y-119658700D01*
X144778374Y-119658700D01*
X145158780Y-119501131D01*
X145449931Y-119209980D01*
X145607500Y-118829574D01*
X145607500Y-118417826D01*
X145449931Y-118037420D01*
X145158780Y-117746269D01*
X144827700Y-117609131D01*
X144827700Y-116325901D01*
X150477070Y-121975272D01*
X150519471Y-122038729D01*
X150770863Y-122206704D01*
X150992548Y-122250800D01*
X150992552Y-122250800D01*
X151067399Y-122265688D01*
X151142246Y-122250800D01*
X151575203Y-122250800D01*
X151545473Y-122304643D01*
X151523642Y-122401774D01*
X151644783Y-122633800D01*
X153113000Y-122633800D01*
X153113000Y-122613800D01*
X153367000Y-122613800D01*
X153367000Y-122633800D01*
X153387000Y-122633800D01*
X153387000Y-122887800D01*
X153367000Y-122887800D01*
X153367000Y-122907800D01*
X153113000Y-122907800D01*
X153113000Y-122887800D01*
X151644783Y-122887800D01*
X151523642Y-123119826D01*
X151545473Y-123216957D01*
X151829127Y-123730668D01*
X152229207Y-124049978D01*
X151898170Y-124271170D01*
X151566950Y-124766875D01*
X151450641Y-125351600D01*
X151566950Y-125936325D01*
X151898170Y-126432030D01*
X152393875Y-126763250D01*
X152831002Y-126850200D01*
X153648998Y-126850200D01*
X154086125Y-126763250D01*
X154581830Y-126432030D01*
X154913050Y-125936325D01*
X155029359Y-125351600D01*
X154913050Y-124766875D01*
X154581830Y-124271170D01*
X154250793Y-124049978D01*
X154650873Y-123730668D01*
X154805155Y-123451256D01*
X155751900Y-124398002D01*
X155751901Y-129687048D01*
X155737012Y-129761900D01*
X155751901Y-129836752D01*
X155795997Y-130058437D01*
X155963972Y-130309829D01*
X156027428Y-130352229D01*
X156336897Y-130661698D01*
X156315000Y-130714561D01*
X156315000Y-131285439D01*
X156533466Y-131812862D01*
X156702484Y-131981880D01*
X156627378Y-132056986D01*
X156742253Y-132171861D01*
X156496136Y-132245995D01*
X156303035Y-132783223D01*
X156330222Y-133353454D01*
X156496136Y-133754005D01*
X156742255Y-133828139D01*
X157570395Y-133000000D01*
X157556252Y-132985858D01*
X157735858Y-132806253D01*
X157750000Y-132820395D01*
X157764143Y-132806253D01*
X157943748Y-132985858D01*
X157929605Y-133000000D01*
X158757745Y-133828139D01*
X159003864Y-133754005D01*
X159196965Y-133216777D01*
X159169778Y-132646546D01*
X159003864Y-132245995D01*
X158757747Y-132171861D01*
X158872622Y-132056986D01*
X158797516Y-131981880D01*
X158966534Y-131812862D01*
X159185000Y-131285439D01*
X159185000Y-130714561D01*
X158966534Y-130187138D01*
X158779396Y-130000000D01*
X158966534Y-129812862D01*
X159185000Y-129285439D01*
X159185000Y-128714561D01*
X158966534Y-128187138D01*
X158562862Y-127783466D01*
X158035439Y-127565000D01*
X157464561Y-127565000D01*
X157271900Y-127644803D01*
X157271900Y-124158046D01*
X157286788Y-124083199D01*
X157271900Y-124008352D01*
X157271900Y-124008348D01*
X157227804Y-123786663D01*
X157059829Y-123535271D01*
X156996373Y-123492871D01*
X154671112Y-121167611D01*
X154913050Y-120805525D01*
X155029359Y-120220800D01*
X154913050Y-119636075D01*
X154703458Y-119322399D01*
X155188500Y-118837358D01*
X155188500Y-120874053D01*
X155173612Y-120948900D01*
X155188500Y-121023747D01*
X155188500Y-121023751D01*
X155232596Y-121245436D01*
X155400571Y-121496829D01*
X155464030Y-121539231D01*
X165240001Y-131315203D01*
X165240000Y-143910018D01*
X165042191Y-144042191D01*
X164901843Y-144252235D01*
X164852560Y-144500000D01*
X164852560Y-145500000D01*
X164901843Y-145747765D01*
X164960678Y-145835817D01*
X164905881Y-145968126D01*
X165032046Y-146143000D01*
X165477678Y-146143000D01*
X165500000Y-146147440D01*
X166147000Y-146147440D01*
X166147000Y-146271143D01*
X166001143Y-146417000D01*
X165873000Y-146417000D01*
X165873000Y-146397000D01*
X165364076Y-146397000D01*
X165350074Y-146391200D01*
X164938326Y-146391200D01*
X164557920Y-146548769D01*
X164266769Y-146839920D01*
X164109200Y-147220326D01*
X164109200Y-147632074D01*
X164266769Y-148012480D01*
X164557920Y-148303631D01*
X164938326Y-148461200D01*
X165350074Y-148461200D01*
X165730480Y-148303631D01*
X165823011Y-148211100D01*
X166024888Y-148211100D01*
X166102200Y-148226478D01*
X166179512Y-148211100D01*
X166179516Y-148211100D01*
X166408492Y-148165554D01*
X166668153Y-147992053D01*
X166711949Y-147926508D01*
X169081960Y-145556497D01*
X169317199Y-146124412D01*
X169875588Y-146682801D01*
X170605159Y-146985000D01*
X171394841Y-146985000D01*
X172124412Y-146682801D01*
X172682801Y-146124412D01*
X172985000Y-145394841D01*
X172985000Y-144605159D01*
X172682801Y-143875588D01*
X172124412Y-143317199D01*
X171394841Y-143015000D01*
X170605159Y-143015000D01*
X170476300Y-143068375D01*
X170476300Y-124694670D01*
X170965000Y-124694670D01*
X170965000Y-125305330D01*
X171198690Y-125869507D01*
X171630493Y-126301310D01*
X172194670Y-126535000D01*
X172805330Y-126535000D01*
X173369507Y-126301310D01*
X173801310Y-125869507D01*
X174035000Y-125305330D01*
X174035000Y-124694670D01*
X173801310Y-124130493D01*
X173369507Y-123698690D01*
X172805330Y-123465000D01*
X172194670Y-123465000D01*
X171630493Y-123698690D01*
X171198690Y-124130493D01*
X170965000Y-124694670D01*
X170476300Y-124694670D01*
X170476300Y-118892212D01*
X170491678Y-118814900D01*
X170476300Y-118737588D01*
X170476300Y-118737584D01*
X170430754Y-118508608D01*
X170410904Y-118478900D01*
X170301049Y-118314491D01*
X170301047Y-118314489D01*
X170257253Y-118248947D01*
X170191711Y-118205153D01*
X168422700Y-116436143D01*
X168422700Y-115601604D01*
X168758026Y-115740500D01*
X169169774Y-115740500D01*
X169550180Y-115582931D01*
X169841331Y-115291780D01*
X169952195Y-115024130D01*
X169952195Y-115608817D01*
X170001478Y-115856582D01*
X170141826Y-116066626D01*
X170351870Y-116206974D01*
X170599635Y-116256257D01*
X171999635Y-116256257D01*
X172247400Y-116206974D01*
X172457444Y-116066626D01*
X172597792Y-115856582D01*
X172647075Y-115608817D01*
X172647075Y-115144567D01*
X173364635Y-115144567D01*
X173364635Y-115735127D01*
X173461308Y-115968516D01*
X173639937Y-116147144D01*
X173873326Y-116243817D01*
X174413885Y-116243817D01*
X174572635Y-116085067D01*
X174572635Y-114985817D01*
X173523385Y-114985817D01*
X173364635Y-115144567D01*
X172647075Y-115144567D01*
X172647075Y-114108817D01*
X172621951Y-113982507D01*
X173364635Y-113982507D01*
X173364635Y-114573067D01*
X173523385Y-114731817D01*
X174572635Y-114731817D01*
X174572635Y-113632567D01*
X174413885Y-113473817D01*
X173873326Y-113473817D01*
X173639937Y-113570490D01*
X173461308Y-113749118D01*
X173364635Y-113982507D01*
X172621951Y-113982507D01*
X172597792Y-113861052D01*
X172457444Y-113651008D01*
X172247400Y-113510660D01*
X171999635Y-113461377D01*
X171998408Y-113461377D01*
X171847529Y-113235571D01*
X171784073Y-113193171D01*
X171634719Y-113043817D01*
X171715455Y-113043817D01*
X172114238Y-112878635D01*
X172419453Y-112573420D01*
X172584635Y-112174637D01*
X172584635Y-111742997D01*
X172419453Y-111344214D01*
X172114238Y-111038999D01*
X171715455Y-110873817D01*
X171634685Y-110873817D01*
X171784073Y-110724429D01*
X171847529Y-110682029D01*
X171998385Y-110456257D01*
X171999635Y-110456257D01*
X172247400Y-110406974D01*
X172457444Y-110266626D01*
X172597792Y-110056582D01*
X172647075Y-109808817D01*
X172647075Y-109344567D01*
X173364635Y-109344567D01*
X173364635Y-109935127D01*
X173461308Y-110168516D01*
X173639937Y-110347144D01*
X173873326Y-110443817D01*
X174413885Y-110443817D01*
X174572635Y-110285067D01*
X174572635Y-109185817D01*
X173523385Y-109185817D01*
X173364635Y-109344567D01*
X172647075Y-109344567D01*
X172647075Y-108308817D01*
X172621951Y-108182507D01*
X173364635Y-108182507D01*
X173364635Y-108773067D01*
X173523385Y-108931817D01*
X174572635Y-108931817D01*
X174572635Y-107832567D01*
X174413885Y-107673817D01*
X173873326Y-107673817D01*
X173639937Y-107770490D01*
X173461308Y-107949118D01*
X173364635Y-108182507D01*
X172621951Y-108182507D01*
X172597792Y-108061052D01*
X172457444Y-107851008D01*
X172247400Y-107710660D01*
X171999635Y-107661377D01*
X170599635Y-107661377D01*
X170351870Y-107710660D01*
X170141826Y-107851008D01*
X170001478Y-108061052D01*
X169952195Y-108308817D01*
X169952195Y-109808817D01*
X170001478Y-110056582D01*
X170119222Y-110232797D01*
X169979796Y-110441464D01*
X169935700Y-110663149D01*
X169935700Y-110663153D01*
X169920812Y-110738000D01*
X169935700Y-110812847D01*
X169935701Y-112640905D01*
X169899473Y-112695124D01*
X168924098Y-113670500D01*
X168758026Y-113670500D01*
X168422700Y-113809396D01*
X168422700Y-112250811D01*
X168515131Y-112158380D01*
X168672700Y-111777974D01*
X168672700Y-111366226D01*
X168515131Y-110985820D01*
X168223980Y-110694669D01*
X167843574Y-110537100D01*
X167431826Y-110537100D01*
X167051420Y-110694669D01*
X166760269Y-110985820D01*
X166602700Y-111366226D01*
X166602700Y-111777974D01*
X166760269Y-112158380D01*
X166852700Y-112250811D01*
X166852701Y-116683983D01*
X166837322Y-116761300D01*
X166898246Y-117067591D01*
X167027951Y-117261708D01*
X167027954Y-117261711D01*
X167071748Y-117327253D01*
X167137290Y-117371047D01*
X168906300Y-119140058D01*
X168906300Y-120865062D01*
X168785439Y-120815000D01*
X168214561Y-120815000D01*
X167687138Y-121033466D01*
X167500000Y-121220604D01*
X167312862Y-121033466D01*
X166785439Y-120815000D01*
X166214561Y-120815000D01*
X165687138Y-121033466D01*
X165518120Y-121202484D01*
X165443014Y-121127378D01*
X165328139Y-121242253D01*
X165254005Y-120996136D01*
X164716777Y-120803035D01*
X164146546Y-120830222D01*
X164134600Y-120835170D01*
X164134600Y-103225557D01*
X164186698Y-103173459D01*
X164214561Y-103185000D01*
X164785439Y-103185000D01*
X165312862Y-102966534D01*
X165500000Y-102779396D01*
X165687138Y-102966534D01*
X166214561Y-103185000D01*
X166785439Y-103185000D01*
X167312862Y-102966534D01*
X167481880Y-102797516D01*
X167556986Y-102872622D01*
X167671861Y-102757747D01*
X167745995Y-103003864D01*
X168283223Y-103196965D01*
X168853454Y-103169778D01*
X169254005Y-103003864D01*
X169328139Y-102757745D01*
X168500000Y-101929605D01*
X168485858Y-101943748D01*
X168306253Y-101764143D01*
X168320395Y-101750000D01*
X168679605Y-101750000D01*
X169507745Y-102578139D01*
X169753864Y-102504005D01*
X169946965Y-101966777D01*
X169919778Y-101396546D01*
X169753864Y-100995995D01*
X169507745Y-100921861D01*
X168679605Y-101750000D01*
X168320395Y-101750000D01*
X168306253Y-101735858D01*
X168485858Y-101556252D01*
X168500000Y-101570395D01*
X169328139Y-100742255D01*
X169254005Y-100496136D01*
X168716777Y-100303035D01*
X168146546Y-100330222D01*
X167745995Y-100496136D01*
X167671861Y-100742253D01*
X167556986Y-100627378D01*
X167481880Y-100702484D01*
X167312862Y-100533466D01*
X166785439Y-100315000D01*
X166214561Y-100315000D01*
X165687138Y-100533466D01*
X165500000Y-100720604D01*
X165312862Y-100533466D01*
X165285000Y-100521925D01*
X165285000Y-98694670D01*
X170965000Y-98694670D01*
X170965000Y-99305330D01*
X171198690Y-99869507D01*
X171630493Y-100301310D01*
X172194670Y-100535000D01*
X172805330Y-100535000D01*
X173369507Y-100301310D01*
X173801310Y-99869507D01*
X174035000Y-99305330D01*
X174035000Y-98694670D01*
X173801310Y-98130493D01*
X173369507Y-97698690D01*
X172805330Y-97465000D01*
X172194670Y-97465000D01*
X171630493Y-97698690D01*
X171198690Y-98130493D01*
X170965000Y-98694670D01*
X165285000Y-98694670D01*
X165285000Y-97827312D01*
X165300378Y-97750000D01*
X165285000Y-97672688D01*
X165285000Y-97672684D01*
X165239454Y-97443708D01*
X165065953Y-97184047D01*
X165000408Y-97140251D01*
X162235157Y-94375000D01*
X169512718Y-87097440D01*
X170075001Y-87097440D01*
X170418436Y-87029127D01*
X170709586Y-86834586D01*
X170904127Y-86543436D01*
X170972440Y-86200001D01*
X170972440Y-85299999D01*
X170904127Y-84956564D01*
X170709586Y-84665414D01*
X170418436Y-84470873D01*
X170075001Y-84402560D01*
X169424999Y-84402560D01*
X169081564Y-84470873D01*
X168790414Y-84665414D01*
X168725000Y-84763313D01*
X168659586Y-84665414D01*
X168460000Y-84532054D01*
X168460000Y-81590646D01*
X168474888Y-81515799D01*
X168460000Y-81440952D01*
X168460000Y-81440948D01*
X168415904Y-81219263D01*
X168335762Y-81099322D01*
X168290329Y-81031326D01*
X168290327Y-81031324D01*
X168247929Y-80967871D01*
X168184476Y-80925473D01*
X166081741Y-78822739D01*
X166127102Y-78713228D01*
X166127102Y-78605159D01*
X169015000Y-78605159D01*
X169015000Y-79394841D01*
X169317199Y-80124412D01*
X169875588Y-80682801D01*
X170605159Y-80985000D01*
X171394841Y-80985000D01*
X172124412Y-80682801D01*
X172682801Y-80124412D01*
X172985000Y-79394841D01*
X172985000Y-78605159D01*
X172682801Y-77875588D01*
X172124412Y-77317199D01*
X171394841Y-77015000D01*
X170605159Y-77015000D01*
X169875588Y-77317199D01*
X169317199Y-77875588D01*
X169015000Y-78605159D01*
X166127102Y-78605159D01*
X166127102Y-78102568D01*
X165893412Y-77538391D01*
X165461609Y-77106588D01*
X164897432Y-76872898D01*
X164286772Y-76872898D01*
X164177261Y-76918259D01*
X162622231Y-75363230D01*
X162579829Y-75299771D01*
X162328437Y-75131796D01*
X162106752Y-75087700D01*
X162106747Y-75087700D01*
X162031900Y-75072812D01*
X161957053Y-75087700D01*
X151998646Y-75087700D01*
X151923799Y-75072812D01*
X151848952Y-75087700D01*
X151848948Y-75087700D01*
X151627263Y-75131796D01*
X151375871Y-75299771D01*
X151333471Y-75363227D01*
X146336191Y-80360507D01*
X146565940Y-79855201D01*
X146592983Y-79762722D01*
X146621158Y-79670565D01*
X146622440Y-79661986D01*
X146702829Y-79100653D01*
X146702829Y-79092643D01*
X146707189Y-79063115D01*
X146780578Y-78240808D01*
X146981705Y-77505611D01*
X147309846Y-76817649D01*
X147754628Y-76198669D01*
X148301988Y-75668239D01*
X148934639Y-75243116D01*
X149632561Y-74936749D01*
X150379183Y-74757501D01*
X151026030Y-74710000D01*
X170968382Y-74710000D01*
X171759192Y-74780578D01*
X171759192Y-74780578D01*
G37*
X171759192Y-74780578D02*
X172494389Y-74981705D01*
X173182351Y-75309846D01*
X173801331Y-75754628D01*
X174331761Y-76301988D01*
X174756884Y-76934639D01*
X175063251Y-77632561D01*
X175242499Y-78379183D01*
X175290000Y-79026030D01*
X175290000Y-107673817D01*
X174985385Y-107673817D01*
X174826635Y-107832567D01*
X174826635Y-108931817D01*
X174846635Y-108931817D01*
X174846635Y-109185817D01*
X174826635Y-109185817D01*
X174826635Y-110285067D01*
X174985385Y-110443817D01*
X175290000Y-110443817D01*
X175290000Y-111214761D01*
X175114238Y-111038999D01*
X174715455Y-110873817D01*
X174283815Y-110873817D01*
X173885032Y-111038999D01*
X173579817Y-111344214D01*
X173414635Y-111742997D01*
X173414635Y-112174637D01*
X173579817Y-112573420D01*
X173885032Y-112878635D01*
X174283815Y-113043817D01*
X174715455Y-113043817D01*
X175114238Y-112878635D01*
X175290001Y-112702872D01*
X175290001Y-113473817D01*
X174985385Y-113473817D01*
X174826635Y-113632567D01*
X174826635Y-114731817D01*
X174846635Y-114731817D01*
X174846635Y-114985817D01*
X174826635Y-114985817D01*
X174826635Y-116085067D01*
X174985385Y-116243817D01*
X175290001Y-116243817D01*
X175290001Y-144968370D01*
X175219422Y-145759193D01*
X175018295Y-146494389D01*
X174690152Y-147182355D01*
X174245374Y-147801328D01*
X173698012Y-148331761D01*
X173065362Y-148756883D01*
X172367439Y-149063251D01*
X171620819Y-149242499D01*
X170973970Y-149290000D01*
X161898180Y-149290000D01*
X161971740Y-149179909D01*
X162083113Y-148620000D01*
X161971740Y-148060091D01*
X161654577Y-147585423D01*
X161179909Y-147268260D01*
X160761333Y-147185000D01*
X160478667Y-147185000D01*
X160060091Y-147268260D01*
X159585423Y-147585423D01*
X159350000Y-147937758D01*
X159114577Y-147585423D01*
X158639909Y-147268260D01*
X158221333Y-147185000D01*
X157938667Y-147185000D01*
X157520091Y-147268260D01*
X157045423Y-147585423D01*
X156810000Y-147937758D01*
X156574577Y-147585423D01*
X156099909Y-147268260D01*
X155681333Y-147185000D01*
X155398667Y-147185000D01*
X154980091Y-147268260D01*
X154505423Y-147585423D01*
X154270000Y-147937758D01*
X154034577Y-147585423D01*
X153755896Y-147399214D01*
X153715904Y-147198163D01*
X153715904Y-147198162D01*
X153590329Y-147010227D01*
X153547929Y-146946771D01*
X153484473Y-146904371D01*
X142977541Y-136397440D01*
X143250000Y-136397440D01*
X143497765Y-136348157D01*
X143707809Y-136207809D01*
X143848157Y-135997765D01*
X143897440Y-135750000D01*
X143897440Y-134250000D01*
X143848157Y-134002235D01*
X143707809Y-133792191D01*
X143497765Y-133651843D01*
X143250000Y-133602560D01*
X142046127Y-133602560D01*
X142404147Y-133244540D01*
X142615000Y-132735494D01*
X142615000Y-132184506D01*
X142404147Y-131675460D01*
X142014540Y-131285853D01*
X141505494Y-131075000D01*
X140954506Y-131075000D01*
X140929966Y-131085165D01*
X140718431Y-130873630D01*
X140676029Y-130810171D01*
X140424637Y-130642196D01*
X140202952Y-130598100D01*
X140202947Y-130598100D01*
X140128100Y-130583212D01*
X140053253Y-130598100D01*
X139086701Y-130598100D01*
X142008573Y-127676229D01*
X142072029Y-127633829D01*
X142240004Y-127382437D01*
X142284100Y-127160752D01*
X142284100Y-127160748D01*
X142298988Y-127085901D01*
X142284100Y-127011054D01*
X142284100Y-125061601D01*
X154780000Y-137557502D01*
X154780001Y-139781956D01*
X154505423Y-139965423D01*
X154424785Y-140086106D01*
X154398157Y-139952235D01*
X154257809Y-139742191D01*
X154047765Y-139601843D01*
X153800000Y-139552560D01*
X152200000Y-139552560D01*
X151952235Y-139601843D01*
X151742191Y-139742191D01*
X151601843Y-139952235D01*
X151552560Y-140200000D01*
X151552560Y-141800000D01*
X151601843Y-142047765D01*
X151742191Y-142257809D01*
X151952235Y-142398157D01*
X152200000Y-142447440D01*
X153800000Y-142447440D01*
X154047765Y-142398157D01*
X154257809Y-142257809D01*
X154398157Y-142047765D01*
X154424785Y-141913894D01*
X154505423Y-142034577D01*
X154980091Y-142351740D01*
X155398667Y-142435000D01*
X155681333Y-142435000D01*
X156099909Y-142351740D01*
X156574577Y-142034577D01*
X156810000Y-141682242D01*
X157045423Y-142034577D01*
X157520091Y-142351740D01*
X157938667Y-142435000D01*
X158221333Y-142435000D01*
X158639909Y-142351740D01*
X159114577Y-142034577D01*
X159350000Y-141682242D01*
X159585423Y-142034577D01*
X160060091Y-142351740D01*
X160478667Y-142435000D01*
X160761333Y-142435000D01*
X161179909Y-142351740D01*
X161654577Y-142034577D01*
X161971740Y-141559909D01*
X162083113Y-141000000D01*
X161971740Y-140440091D01*
X161654577Y-139965423D01*
X161179909Y-139648260D01*
X160761333Y-139565000D01*
X160478667Y-139565000D01*
X160060091Y-139648260D01*
X159585423Y-139965423D01*
X159350000Y-140317758D01*
X159114577Y-139965423D01*
X158840000Y-139781957D01*
X158840000Y-139034048D01*
X158854888Y-138959200D01*
X158840000Y-138884352D01*
X158840000Y-138884348D01*
X158795904Y-138662663D01*
X158627929Y-138411271D01*
X158564473Y-138368871D01*
X156890272Y-136694670D01*
X158965000Y-136694670D01*
X158965000Y-137305330D01*
X159198690Y-137869507D01*
X159630493Y-138301310D01*
X160194670Y-138535000D01*
X160805330Y-138535000D01*
X161369507Y-138301310D01*
X161801310Y-137869507D01*
X162035000Y-137305330D01*
X162035000Y-136694670D01*
X161801310Y-136130493D01*
X161369507Y-135698690D01*
X160805330Y-135465000D01*
X160194670Y-135465000D01*
X159630493Y-135698690D01*
X159198690Y-136130493D01*
X158965000Y-136694670D01*
X156890272Y-136694670D01*
X154203347Y-134007745D01*
X156921861Y-134007745D01*
X156995995Y-134253864D01*
X157533223Y-134446965D01*
X158103454Y-134419778D01*
X158504005Y-134253864D01*
X158578139Y-134007745D01*
X157750000Y-133179605D01*
X156921861Y-134007745D01*
X154203347Y-134007745D01*
X143974606Y-123779005D01*
X144095731Y-123657880D01*
X144253300Y-123277474D01*
X144253300Y-122865726D01*
X144095731Y-122485320D01*
X143978300Y-122367889D01*
X143978300Y-119493211D01*
X143986220Y-119501131D01*
X144366626Y-119658700D01*
X144778374Y-119658700D01*
X145158780Y-119501131D01*
X145449931Y-119209980D01*
X145607500Y-118829574D01*
X145607500Y-118417826D01*
X145449931Y-118037420D01*
X145158780Y-117746269D01*
X144827700Y-117609131D01*
X144827700Y-116325901D01*
X150477070Y-121975272D01*
X150519471Y-122038729D01*
X150770863Y-122206704D01*
X150992548Y-122250800D01*
X150992552Y-122250800D01*
X151067399Y-122265688D01*
X151142246Y-122250800D01*
X151575203Y-122250800D01*
X151545473Y-122304643D01*
X151523642Y-122401774D01*
X151644783Y-122633800D01*
X153113000Y-122633800D01*
X153113000Y-122613800D01*
X153367000Y-122613800D01*
X153367000Y-122633800D01*
X153387000Y-122633800D01*
X153387000Y-122887800D01*
X153367000Y-122887800D01*
X153367000Y-122907800D01*
X153113000Y-122907800D01*
X153113000Y-122887800D01*
X151644783Y-122887800D01*
X151523642Y-123119826D01*
X151545473Y-123216957D01*
X151829127Y-123730668D01*
X152229207Y-124049978D01*
X151898170Y-124271170D01*
X151566950Y-124766875D01*
X151450641Y-125351600D01*
X151566950Y-125936325D01*
X151898170Y-126432030D01*
X152393875Y-126763250D01*
X152831002Y-126850200D01*
X153648998Y-126850200D01*
X154086125Y-126763250D01*
X154581830Y-126432030D01*
X154913050Y-125936325D01*
X155029359Y-125351600D01*
X154913050Y-124766875D01*
X154581830Y-124271170D01*
X154250793Y-124049978D01*
X154650873Y-123730668D01*
X154805155Y-123451256D01*
X155751900Y-124398002D01*
X155751901Y-129687048D01*
X155737012Y-129761900D01*
X155751901Y-129836752D01*
X155795997Y-130058437D01*
X155963972Y-130309829D01*
X156027428Y-130352229D01*
X156336897Y-130661698D01*
X156315000Y-130714561D01*
X156315000Y-131285439D01*
X156533466Y-131812862D01*
X156702484Y-131981880D01*
X156627378Y-132056986D01*
X156742253Y-132171861D01*
X156496136Y-132245995D01*
X156303035Y-132783223D01*
X156330222Y-133353454D01*
X156496136Y-133754005D01*
X156742255Y-133828139D01*
X157570395Y-133000000D01*
X157556252Y-132985858D01*
X157735858Y-132806253D01*
X157750000Y-132820395D01*
X157764143Y-132806253D01*
X157943748Y-132985858D01*
X157929605Y-133000000D01*
X158757745Y-133828139D01*
X159003864Y-133754005D01*
X159196965Y-133216777D01*
X159169778Y-132646546D01*
X159003864Y-132245995D01*
X158757747Y-132171861D01*
X158872622Y-132056986D01*
X158797516Y-131981880D01*
X158966534Y-131812862D01*
X159185000Y-131285439D01*
X159185000Y-130714561D01*
X158966534Y-130187138D01*
X158779396Y-130000000D01*
X158966534Y-129812862D01*
X159185000Y-129285439D01*
X159185000Y-128714561D01*
X158966534Y-128187138D01*
X158562862Y-127783466D01*
X158035439Y-127565000D01*
X157464561Y-127565000D01*
X157271900Y-127644803D01*
X157271900Y-124158046D01*
X157286788Y-124083199D01*
X157271900Y-124008352D01*
X157271900Y-124008348D01*
X157227804Y-123786663D01*
X157059829Y-123535271D01*
X156996373Y-123492871D01*
X154671112Y-121167611D01*
X154913050Y-120805525D01*
X155029359Y-120220800D01*
X154913050Y-119636075D01*
X154703458Y-119322399D01*
X155188500Y-118837358D01*
X155188500Y-120874053D01*
X155173612Y-120948900D01*
X155188500Y-121023747D01*
X155188500Y-121023751D01*
X155232596Y-121245436D01*
X155400571Y-121496829D01*
X155464030Y-121539231D01*
X165240001Y-131315203D01*
X165240000Y-143910018D01*
X165042191Y-144042191D01*
X164901843Y-144252235D01*
X164852560Y-144500000D01*
X164852560Y-145500000D01*
X164901843Y-145747765D01*
X164960678Y-145835817D01*
X164905881Y-145968126D01*
X165032046Y-146143000D01*
X165477678Y-146143000D01*
X165500000Y-146147440D01*
X166147000Y-146147440D01*
X166147000Y-146271143D01*
X166001143Y-146417000D01*
X165873000Y-146417000D01*
X165873000Y-146397000D01*
X165364076Y-146397000D01*
X165350074Y-146391200D01*
X164938326Y-146391200D01*
X164557920Y-146548769D01*
X164266769Y-146839920D01*
X164109200Y-147220326D01*
X164109200Y-147632074D01*
X164266769Y-148012480D01*
X164557920Y-148303631D01*
X164938326Y-148461200D01*
X165350074Y-148461200D01*
X165730480Y-148303631D01*
X165823011Y-148211100D01*
X166024888Y-148211100D01*
X166102200Y-148226478D01*
X166179512Y-148211100D01*
X166179516Y-148211100D01*
X166408492Y-148165554D01*
X166668153Y-147992053D01*
X166711949Y-147926508D01*
X169081960Y-145556497D01*
X169317199Y-146124412D01*
X169875588Y-146682801D01*
X170605159Y-146985000D01*
X171394841Y-146985000D01*
X172124412Y-146682801D01*
X172682801Y-146124412D01*
X172985000Y-145394841D01*
X172985000Y-144605159D01*
X172682801Y-143875588D01*
X172124412Y-143317199D01*
X171394841Y-143015000D01*
X170605159Y-143015000D01*
X170476300Y-143068375D01*
X170476300Y-124694670D01*
X170965000Y-124694670D01*
X170965000Y-125305330D01*
X171198690Y-125869507D01*
X171630493Y-126301310D01*
X172194670Y-126535000D01*
X172805330Y-126535000D01*
X173369507Y-126301310D01*
X173801310Y-125869507D01*
X174035000Y-125305330D01*
X174035000Y-124694670D01*
X173801310Y-124130493D01*
X173369507Y-123698690D01*
X172805330Y-123465000D01*
X172194670Y-123465000D01*
X171630493Y-123698690D01*
X171198690Y-124130493D01*
X170965000Y-124694670D01*
X170476300Y-124694670D01*
X170476300Y-118892212D01*
X170491678Y-118814900D01*
X170476300Y-118737588D01*
X170476300Y-118737584D01*
X170430754Y-118508608D01*
X170410904Y-118478900D01*
X170301049Y-118314491D01*
X170301047Y-118314489D01*
X170257253Y-118248947D01*
X170191711Y-118205153D01*
X168422700Y-116436143D01*
X168422700Y-115601604D01*
X168758026Y-115740500D01*
X169169774Y-115740500D01*
X169550180Y-115582931D01*
X169841331Y-115291780D01*
X169952195Y-115024130D01*
X169952195Y-115608817D01*
X170001478Y-115856582D01*
X170141826Y-116066626D01*
X170351870Y-116206974D01*
X170599635Y-116256257D01*
X171999635Y-116256257D01*
X172247400Y-116206974D01*
X172457444Y-116066626D01*
X172597792Y-115856582D01*
X172647075Y-115608817D01*
X172647075Y-115144567D01*
X173364635Y-115144567D01*
X173364635Y-115735127D01*
X173461308Y-115968516D01*
X173639937Y-116147144D01*
X173873326Y-116243817D01*
X174413885Y-116243817D01*
X174572635Y-116085067D01*
X174572635Y-114985817D01*
X173523385Y-114985817D01*
X173364635Y-115144567D01*
X172647075Y-115144567D01*
X172647075Y-114108817D01*
X172621951Y-113982507D01*
X173364635Y-113982507D01*
X173364635Y-114573067D01*
X173523385Y-114731817D01*
X174572635Y-114731817D01*
X174572635Y-113632567D01*
X174413885Y-113473817D01*
X173873326Y-113473817D01*
X173639937Y-113570490D01*
X173461308Y-113749118D01*
X173364635Y-113982507D01*
X172621951Y-113982507D01*
X172597792Y-113861052D01*
X172457444Y-113651008D01*
X172247400Y-113510660D01*
X171999635Y-113461377D01*
X171998408Y-113461377D01*
X171847529Y-113235571D01*
X171784073Y-113193171D01*
X171634719Y-113043817D01*
X171715455Y-113043817D01*
X172114238Y-112878635D01*
X172419453Y-112573420D01*
X172584635Y-112174637D01*
X172584635Y-111742997D01*
X172419453Y-111344214D01*
X172114238Y-111038999D01*
X171715455Y-110873817D01*
X171634685Y-110873817D01*
X171784073Y-110724429D01*
X171847529Y-110682029D01*
X171998385Y-110456257D01*
X171999635Y-110456257D01*
X172247400Y-110406974D01*
X172457444Y-110266626D01*
X172597792Y-110056582D01*
X172647075Y-109808817D01*
X172647075Y-109344567D01*
X173364635Y-109344567D01*
X173364635Y-109935127D01*
X173461308Y-110168516D01*
X173639937Y-110347144D01*
X173873326Y-110443817D01*
X174413885Y-110443817D01*
X174572635Y-110285067D01*
X174572635Y-109185817D01*
X173523385Y-109185817D01*
X173364635Y-109344567D01*
X172647075Y-109344567D01*
X172647075Y-108308817D01*
X172621951Y-108182507D01*
X173364635Y-108182507D01*
X173364635Y-108773067D01*
X173523385Y-108931817D01*
X174572635Y-108931817D01*
X174572635Y-107832567D01*
X174413885Y-107673817D01*
X173873326Y-107673817D01*
X173639937Y-107770490D01*
X173461308Y-107949118D01*
X173364635Y-108182507D01*
X172621951Y-108182507D01*
X172597792Y-108061052D01*
X172457444Y-107851008D01*
X172247400Y-107710660D01*
X171999635Y-107661377D01*
X170599635Y-107661377D01*
X170351870Y-107710660D01*
X170141826Y-107851008D01*
X170001478Y-108061052D01*
X169952195Y-108308817D01*
X169952195Y-109808817D01*
X170001478Y-110056582D01*
X170119222Y-110232797D01*
X169979796Y-110441464D01*
X169935700Y-110663149D01*
X169935700Y-110663153D01*
X169920812Y-110738000D01*
X169935700Y-110812847D01*
X169935701Y-112640905D01*
X169899473Y-112695124D01*
X168924098Y-113670500D01*
X168758026Y-113670500D01*
X168422700Y-113809396D01*
X168422700Y-112250811D01*
X168515131Y-112158380D01*
X168672700Y-111777974D01*
X168672700Y-111366226D01*
X168515131Y-110985820D01*
X168223980Y-110694669D01*
X167843574Y-110537100D01*
X167431826Y-110537100D01*
X167051420Y-110694669D01*
X166760269Y-110985820D01*
X166602700Y-111366226D01*
X166602700Y-111777974D01*
X166760269Y-112158380D01*
X166852700Y-112250811D01*
X166852701Y-116683983D01*
X166837322Y-116761300D01*
X166898246Y-117067591D01*
X167027951Y-117261708D01*
X167027954Y-117261711D01*
X167071748Y-117327253D01*
X167137290Y-117371047D01*
X168906300Y-119140058D01*
X168906300Y-120865062D01*
X168785439Y-120815000D01*
X168214561Y-120815000D01*
X167687138Y-121033466D01*
X167500000Y-121220604D01*
X167312862Y-121033466D01*
X166785439Y-120815000D01*
X166214561Y-120815000D01*
X165687138Y-121033466D01*
X165518120Y-121202484D01*
X165443014Y-121127378D01*
X165328139Y-121242253D01*
X165254005Y-120996136D01*
X164716777Y-120803035D01*
X164146546Y-120830222D01*
X164134600Y-120835170D01*
X164134600Y-103225557D01*
X164186698Y-103173459D01*
X164214561Y-103185000D01*
X164785439Y-103185000D01*
X165312862Y-102966534D01*
X165500000Y-102779396D01*
X165687138Y-102966534D01*
X166214561Y-103185000D01*
X166785439Y-103185000D01*
X167312862Y-102966534D01*
X167481880Y-102797516D01*
X167556986Y-102872622D01*
X167671861Y-102757747D01*
X167745995Y-103003864D01*
X168283223Y-103196965D01*
X168853454Y-103169778D01*
X169254005Y-103003864D01*
X169328139Y-102757745D01*
X168500000Y-101929605D01*
X168485858Y-101943748D01*
X168306253Y-101764143D01*
X168320395Y-101750000D01*
X168679605Y-101750000D01*
X169507745Y-102578139D01*
X169753864Y-102504005D01*
X169946965Y-101966777D01*
X169919778Y-101396546D01*
X169753864Y-100995995D01*
X169507745Y-100921861D01*
X168679605Y-101750000D01*
X168320395Y-101750000D01*
X168306253Y-101735858D01*
X168485858Y-101556252D01*
X168500000Y-101570395D01*
X169328139Y-100742255D01*
X169254005Y-100496136D01*
X168716777Y-100303035D01*
X168146546Y-100330222D01*
X167745995Y-100496136D01*
X167671861Y-100742253D01*
X167556986Y-100627378D01*
X167481880Y-100702484D01*
X167312862Y-100533466D01*
X166785439Y-100315000D01*
X166214561Y-100315000D01*
X165687138Y-100533466D01*
X165500000Y-100720604D01*
X165312862Y-100533466D01*
X165285000Y-100521925D01*
X165285000Y-98694670D01*
X170965000Y-98694670D01*
X170965000Y-99305330D01*
X171198690Y-99869507D01*
X171630493Y-100301310D01*
X172194670Y-100535000D01*
X172805330Y-100535000D01*
X173369507Y-100301310D01*
X173801310Y-99869507D01*
X174035000Y-99305330D01*
X174035000Y-98694670D01*
X173801310Y-98130493D01*
X173369507Y-97698690D01*
X172805330Y-97465000D01*
X172194670Y-97465000D01*
X171630493Y-97698690D01*
X171198690Y-98130493D01*
X170965000Y-98694670D01*
X165285000Y-98694670D01*
X165285000Y-97827312D01*
X165300378Y-97750000D01*
X165285000Y-97672688D01*
X165285000Y-97672684D01*
X165239454Y-97443708D01*
X165065953Y-97184047D01*
X165000408Y-97140251D01*
X162235157Y-94375000D01*
X169512718Y-87097440D01*
X170075001Y-87097440D01*
X170418436Y-87029127D01*
X170709586Y-86834586D01*
X170904127Y-86543436D01*
X170972440Y-86200001D01*
X170972440Y-85299999D01*
X170904127Y-84956564D01*
X170709586Y-84665414D01*
X170418436Y-84470873D01*
X170075001Y-84402560D01*
X169424999Y-84402560D01*
X169081564Y-84470873D01*
X168790414Y-84665414D01*
X168725000Y-84763313D01*
X168659586Y-84665414D01*
X168460000Y-84532054D01*
X168460000Y-81590646D01*
X168474888Y-81515799D01*
X168460000Y-81440952D01*
X168460000Y-81440948D01*
X168415904Y-81219263D01*
X168335762Y-81099322D01*
X168290329Y-81031326D01*
X168290327Y-81031324D01*
X168247929Y-80967871D01*
X168184476Y-80925473D01*
X166081741Y-78822739D01*
X166127102Y-78713228D01*
X166127102Y-78605159D01*
X169015000Y-78605159D01*
X169015000Y-79394841D01*
X169317199Y-80124412D01*
X169875588Y-80682801D01*
X170605159Y-80985000D01*
X171394841Y-80985000D01*
X172124412Y-80682801D01*
X172682801Y-80124412D01*
X172985000Y-79394841D01*
X172985000Y-78605159D01*
X172682801Y-77875588D01*
X172124412Y-77317199D01*
X171394841Y-77015000D01*
X170605159Y-77015000D01*
X169875588Y-77317199D01*
X169317199Y-77875588D01*
X169015000Y-78605159D01*
X166127102Y-78605159D01*
X166127102Y-78102568D01*
X165893412Y-77538391D01*
X165461609Y-77106588D01*
X164897432Y-76872898D01*
X164286772Y-76872898D01*
X164177261Y-76918259D01*
X162622231Y-75363230D01*
X162579829Y-75299771D01*
X162328437Y-75131796D01*
X162106752Y-75087700D01*
X162106747Y-75087700D01*
X162031900Y-75072812D01*
X161957053Y-75087700D01*
X151998646Y-75087700D01*
X151923799Y-75072812D01*
X151848952Y-75087700D01*
X151848948Y-75087700D01*
X151627263Y-75131796D01*
X151375871Y-75299771D01*
X151333471Y-75363227D01*
X146336191Y-80360507D01*
X146565940Y-79855201D01*
X146592983Y-79762722D01*
X146621158Y-79670565D01*
X146622440Y-79661986D01*
X146702829Y-79100653D01*
X146702829Y-79092643D01*
X146707189Y-79063115D01*
X146780578Y-78240808D01*
X146981705Y-77505611D01*
X147309846Y-76817649D01*
X147754628Y-76198669D01*
X148301988Y-75668239D01*
X148934639Y-75243116D01*
X149632561Y-74936749D01*
X150379183Y-74757501D01*
X151026030Y-74710000D01*
X170968382Y-74710000D01*
X171759192Y-74780578D01*
G36*
X115965700Y-80685174D02*
X116123269Y-81065580D01*
X116240700Y-81183011D01*
X116240701Y-85645337D01*
X115805330Y-85465000D01*
X115194670Y-85465000D01*
X114630493Y-85698690D01*
X114198690Y-86130493D01*
X113965000Y-86694670D01*
X113965000Y-87305330D01*
X114198690Y-87869507D01*
X114630493Y-88301310D01*
X115194670Y-88535000D01*
X115805330Y-88535000D01*
X116262884Y-88345475D01*
X116284797Y-88455637D01*
X116395599Y-88621463D01*
X116452772Y-88707029D01*
X116516228Y-88749429D01*
X117507973Y-89741174D01*
X117495995Y-89746136D01*
X117421861Y-89992255D01*
X118250000Y-90820395D01*
X118264143Y-90806253D01*
X118443748Y-90985858D01*
X118429605Y-91000000D01*
X118443748Y-91014142D01*
X118264143Y-91193748D01*
X118250000Y-91179605D01*
X118235858Y-91193748D01*
X118056252Y-91014142D01*
X118070395Y-91000000D01*
X117242255Y-90171861D01*
X116996136Y-90245995D01*
X116803035Y-90783223D01*
X116830222Y-91353454D01*
X116996136Y-91754005D01*
X117242253Y-91828139D01*
X117127378Y-91943014D01*
X117202484Y-92018120D01*
X117033466Y-92187138D01*
X116815000Y-92714561D01*
X116815000Y-93285439D01*
X117033466Y-93812862D01*
X117220604Y-94000000D01*
X117033466Y-94187138D01*
X116815000Y-94714561D01*
X116815000Y-95285439D01*
X117033466Y-95812862D01*
X117437138Y-96216534D01*
X117964561Y-96435000D01*
X118535439Y-96435000D01*
X119062862Y-96216534D01*
X119466534Y-95812862D01*
X119619286Y-95444087D01*
X123781600Y-99606402D01*
X123781600Y-101440000D01*
X123382426Y-101440000D01*
X123002020Y-101597569D01*
X122884589Y-101715000D01*
X119889347Y-101715000D01*
X119814500Y-101700112D01*
X119739653Y-101715000D01*
X119739648Y-101715000D01*
X119517963Y-101759096D01*
X119266571Y-101927071D01*
X119224171Y-101990527D01*
X114962228Y-106252471D01*
X114898772Y-106294871D01*
X114856372Y-106358327D01*
X114856371Y-106358328D01*
X114730797Y-106546263D01*
X114671812Y-106842800D01*
X114686701Y-106917652D01*
X114686700Y-112737200D01*
X110074248Y-112737200D01*
X109999400Y-112722312D01*
X109924552Y-112737200D01*
X109924548Y-112737200D01*
X109770209Y-112767900D01*
X109702862Y-112781296D01*
X109529197Y-112897336D01*
X109451471Y-112949271D01*
X109409071Y-113012727D01*
X108745699Y-113676100D01*
X108579626Y-113676100D01*
X108199220Y-113833669D01*
X108081789Y-113951100D01*
X106485700Y-113951100D01*
X106485700Y-109216052D01*
X106500589Y-109141200D01*
X106441604Y-108844663D01*
X106273629Y-108593271D01*
X106047805Y-108442380D01*
X106047805Y-108391183D01*
X105998522Y-108143418D01*
X105858174Y-107933374D01*
X105648130Y-107793026D01*
X105400365Y-107743743D01*
X104000365Y-107743743D01*
X103752600Y-107793026D01*
X103542556Y-107933374D01*
X103402208Y-108143418D01*
X103352925Y-108391183D01*
X103352925Y-109891183D01*
X103402208Y-110138948D01*
X103542556Y-110348992D01*
X103752600Y-110489340D01*
X104000365Y-110538623D01*
X104965700Y-110538623D01*
X104965700Y-111059536D01*
X104716185Y-110956183D01*
X104284545Y-110956183D01*
X103885762Y-111121365D01*
X103580547Y-111426580D01*
X103415365Y-111825363D01*
X103415365Y-112257003D01*
X103580547Y-112655786D01*
X103885762Y-112961001D01*
X104284545Y-113126183D01*
X104716185Y-113126183D01*
X104965701Y-113022830D01*
X104965701Y-113543743D01*
X104000365Y-113543743D01*
X103752600Y-113593026D01*
X103542556Y-113733374D01*
X103402208Y-113943418D01*
X103352925Y-114191183D01*
X103352925Y-115691183D01*
X103402208Y-115938948D01*
X103542556Y-116148992D01*
X103752600Y-116289340D01*
X104000365Y-116338623D01*
X105400365Y-116338623D01*
X105648130Y-116289340D01*
X105858174Y-116148992D01*
X105998522Y-115938948D01*
X106047805Y-115691183D01*
X106047805Y-115640020D01*
X106273629Y-115489129D01*
X106285676Y-115471100D01*
X108081789Y-115471100D01*
X108199220Y-115588531D01*
X108579626Y-115746100D01*
X108991374Y-115746100D01*
X109371780Y-115588531D01*
X109662931Y-115297380D01*
X109820500Y-114916974D01*
X109820500Y-114750901D01*
X110314202Y-114257200D01*
X115007342Y-114257200D01*
X110999590Y-118264953D01*
X110934048Y-118308747D01*
X110890254Y-118374289D01*
X110890251Y-118374292D01*
X110760546Y-118568409D01*
X110699622Y-118874700D01*
X110715001Y-118952017D01*
X110715000Y-121021925D01*
X110687138Y-121033466D01*
X110500000Y-121220604D01*
X110312862Y-121033466D01*
X109785439Y-120815000D01*
X109214561Y-120815000D01*
X108687138Y-121033466D01*
X108518120Y-121202484D01*
X108443014Y-121127378D01*
X108328139Y-121242253D01*
X108254005Y-120996136D01*
X107716777Y-120803035D01*
X107146546Y-120830222D01*
X106745995Y-120996136D01*
X106671861Y-121242255D01*
X107500000Y-122070395D01*
X107514142Y-122056252D01*
X107693748Y-122235858D01*
X107679605Y-122250000D01*
X107693748Y-122264143D01*
X107514142Y-122443748D01*
X107500000Y-122429605D01*
X107485858Y-122443748D01*
X107306253Y-122264143D01*
X107320395Y-122250000D01*
X106492255Y-121421861D01*
X106246136Y-121495995D01*
X106053035Y-122033223D01*
X106053967Y-122052766D01*
X105028800Y-121027599D01*
X105028800Y-118147611D01*
X105146231Y-118030180D01*
X105303800Y-117649774D01*
X105303800Y-117238026D01*
X105146231Y-116857620D01*
X104855080Y-116566469D01*
X104474674Y-116408900D01*
X104062926Y-116408900D01*
X103682520Y-116566469D01*
X103391369Y-116857620D01*
X103233800Y-117238026D01*
X103233800Y-117649774D01*
X103391369Y-118030180D01*
X103508801Y-118147612D01*
X103508800Y-121267553D01*
X103493912Y-121342400D01*
X103508800Y-121417247D01*
X103508800Y-121417251D01*
X103552896Y-121638936D01*
X103720871Y-121890329D01*
X103784330Y-121932731D01*
X116975771Y-135124173D01*
X117018171Y-135187629D01*
X117269563Y-135355604D01*
X117491248Y-135399700D01*
X117491252Y-135399700D01*
X117566099Y-135414588D01*
X117640946Y-135399700D01*
X118875353Y-135399700D01*
X118950200Y-135414588D01*
X119025047Y-135399700D01*
X119025052Y-135399700D01*
X119246737Y-135355604D01*
X119498129Y-135187629D01*
X119540531Y-135124170D01*
X121895963Y-132768739D01*
X122119780Y-132676031D01*
X122410931Y-132384880D01*
X122568500Y-132004474D01*
X122568500Y-131592726D01*
X122410931Y-131212320D01*
X122289906Y-131091295D01*
X126119995Y-127261206D01*
X126174220Y-127315431D01*
X126554626Y-127473000D01*
X126966374Y-127473000D01*
X127069001Y-127430491D01*
X127069001Y-131647588D01*
X126951569Y-131765020D01*
X126794000Y-132145426D01*
X126794000Y-132557174D01*
X126951569Y-132937580D01*
X127072644Y-133058655D01*
X121016599Y-139114700D01*
X120654852Y-139114700D01*
X120580000Y-139099811D01*
X120505148Y-139114700D01*
X117544048Y-139114700D01*
X117469200Y-139099812D01*
X117394352Y-139114700D01*
X117394348Y-139114700D01*
X117220805Y-139149220D01*
X117172662Y-139158796D01*
X117027581Y-139255737D01*
X116921271Y-139326771D01*
X116878871Y-139390227D01*
X116619394Y-139649704D01*
X116547765Y-139601843D01*
X116300000Y-139552560D01*
X114700000Y-139552560D01*
X114452235Y-139601843D01*
X114242191Y-139742191D01*
X114101843Y-139952235D01*
X114052560Y-140200000D01*
X114052560Y-141800000D01*
X114101843Y-142047765D01*
X114242191Y-142257809D01*
X114452235Y-142398157D01*
X114700000Y-142447440D01*
X116300000Y-142447440D01*
X116547765Y-142398157D01*
X116757809Y-142257809D01*
X116898157Y-142047765D01*
X116924785Y-141913894D01*
X117005423Y-142034577D01*
X117480091Y-142351740D01*
X117898667Y-142435000D01*
X118181333Y-142435000D01*
X118599909Y-142351740D01*
X119074577Y-142034577D01*
X119310000Y-141682242D01*
X119545423Y-142034577D01*
X120020091Y-142351740D01*
X120438667Y-142435000D01*
X120721333Y-142435000D01*
X121139909Y-142351740D01*
X121614577Y-142034577D01*
X121850000Y-141682242D01*
X122085423Y-142034577D01*
X122560091Y-142351740D01*
X122978667Y-142435000D01*
X123261333Y-142435000D01*
X123679909Y-142351740D01*
X124154577Y-142034577D01*
X124340786Y-141755896D01*
X124541837Y-141715904D01*
X124793229Y-141547929D01*
X124961204Y-141296537D01*
X125005300Y-141074852D01*
X125005300Y-141074851D01*
X125020189Y-141000000D01*
X125005300Y-140925148D01*
X125005300Y-140611501D01*
X132425101Y-133191700D01*
X132638483Y-133251912D01*
X133430395Y-132460000D01*
X133416253Y-132445858D01*
X133595858Y-132266253D01*
X133610000Y-132280395D01*
X133624143Y-132266253D01*
X133803748Y-132445858D01*
X133789605Y-132460000D01*
X133803748Y-132474143D01*
X133624143Y-132653748D01*
X133610000Y-132639605D01*
X132818088Y-133431517D01*
X132886077Y-133672460D01*
X133405171Y-133857201D01*
X133955448Y-133829230D01*
X134120001Y-133761070D01*
X134120001Y-133815688D01*
X134095460Y-133825853D01*
X133705853Y-134215460D01*
X133495000Y-134724506D01*
X133495000Y-135275494D01*
X133705853Y-135784540D01*
X134095460Y-136174147D01*
X134141345Y-136193153D01*
X133870499Y-136464000D01*
X130431048Y-136464000D01*
X130356200Y-136449112D01*
X130281352Y-136464000D01*
X130281348Y-136464000D01*
X130059663Y-136508096D01*
X129808271Y-136676071D01*
X129765871Y-136739527D01*
X118981900Y-147523499D01*
X118599909Y-147268260D01*
X118181333Y-147185000D01*
X117898667Y-147185000D01*
X117480091Y-147268260D01*
X117005423Y-147585423D01*
X116770000Y-147937758D01*
X116534577Y-147585423D01*
X116059909Y-147268260D01*
X115641333Y-147185000D01*
X115358667Y-147185000D01*
X114940091Y-147268260D01*
X114465423Y-147585423D01*
X114148260Y-148060091D01*
X114036887Y-148620000D01*
X114148260Y-149179909D01*
X114221820Y-149290000D01*
X105031618Y-149290000D01*
X104240807Y-149219422D01*
X103505611Y-149018295D01*
X102817645Y-148690152D01*
X102198672Y-148245374D01*
X101668239Y-147698012D01*
X101243117Y-147065362D01*
X100936749Y-146367439D01*
X100757501Y-145620819D01*
X100710000Y-144973970D01*
X100710000Y-144605159D01*
X103015000Y-144605159D01*
X103015000Y-145394841D01*
X103317199Y-146124412D01*
X103875588Y-146682801D01*
X104605159Y-146985000D01*
X105394841Y-146985000D01*
X106124412Y-146682801D01*
X106682801Y-146124412D01*
X106985000Y-145394841D01*
X106985000Y-144605159D01*
X106682801Y-143875588D01*
X106124412Y-143317199D01*
X105394841Y-143015000D01*
X104605159Y-143015000D01*
X103875588Y-143317199D01*
X103317199Y-143875588D01*
X103015000Y-144605159D01*
X100710000Y-144605159D01*
X100710000Y-136694670D01*
X113965000Y-136694670D01*
X113965000Y-137305330D01*
X114198690Y-137869507D01*
X114630493Y-138301310D01*
X115194670Y-138535000D01*
X115805330Y-138535000D01*
X116369507Y-138301310D01*
X116801310Y-137869507D01*
X117035000Y-137305330D01*
X117035000Y-136694670D01*
X116801310Y-136130493D01*
X116369507Y-135698690D01*
X115805330Y-135465000D01*
X115194670Y-135465000D01*
X114630493Y-135698690D01*
X114198690Y-136130493D01*
X113965000Y-136694670D01*
X100710000Y-136694670D01*
X100710000Y-124694670D01*
X101965000Y-124694670D01*
X101965000Y-125305330D01*
X102198690Y-125869507D01*
X102630493Y-126301310D01*
X103194670Y-126535000D01*
X103805330Y-126535000D01*
X104369507Y-126301310D01*
X104801310Y-125869507D01*
X105035000Y-125305330D01*
X105035000Y-124694670D01*
X104801310Y-124130493D01*
X104369507Y-123698690D01*
X103805330Y-123465000D01*
X103194670Y-123465000D01*
X102630493Y-123698690D01*
X102198690Y-124130493D01*
X101965000Y-124694670D01*
X100710000Y-124694670D01*
X100710000Y-116326183D01*
X101014615Y-116326183D01*
X101173365Y-116167433D01*
X101173365Y-115068183D01*
X101427365Y-115068183D01*
X101427365Y-116167433D01*
X101586115Y-116326183D01*
X102126674Y-116326183D01*
X102360063Y-116229510D01*
X102538692Y-116050882D01*
X102635365Y-115817493D01*
X102635365Y-115226933D01*
X102476615Y-115068183D01*
X101427365Y-115068183D01*
X101173365Y-115068183D01*
X101153365Y-115068183D01*
X101153365Y-114814183D01*
X101173365Y-114814183D01*
X101173365Y-113714933D01*
X101427365Y-113714933D01*
X101427365Y-114814183D01*
X102476615Y-114814183D01*
X102635365Y-114655433D01*
X102635365Y-114064873D01*
X102538692Y-113831484D01*
X102360063Y-113652856D01*
X102126674Y-113556183D01*
X101586115Y-113556183D01*
X101427365Y-113714933D01*
X101173365Y-113714933D01*
X101014615Y-113556183D01*
X100710000Y-113556183D01*
X100710000Y-112785239D01*
X100885762Y-112961001D01*
X101284545Y-113126183D01*
X101716185Y-113126183D01*
X102114968Y-112961001D01*
X102420183Y-112655786D01*
X102585365Y-112257003D01*
X102585365Y-111825363D01*
X102420183Y-111426580D01*
X102114968Y-111121365D01*
X101716185Y-110956183D01*
X101284545Y-110956183D01*
X100885762Y-111121365D01*
X100710000Y-111297127D01*
X100710000Y-110526183D01*
X101014615Y-110526183D01*
X101173365Y-110367433D01*
X101173365Y-109268183D01*
X101427365Y-109268183D01*
X101427365Y-110367433D01*
X101586115Y-110526183D01*
X102126674Y-110526183D01*
X102360063Y-110429510D01*
X102538692Y-110250882D01*
X102635365Y-110017493D01*
X102635365Y-109426933D01*
X102476615Y-109268183D01*
X101427365Y-109268183D01*
X101173365Y-109268183D01*
X101153365Y-109268183D01*
X101153365Y-109014183D01*
X101173365Y-109014183D01*
X101173365Y-107914933D01*
X101427365Y-107914933D01*
X101427365Y-109014183D01*
X102476615Y-109014183D01*
X102635365Y-108855433D01*
X102635365Y-108264873D01*
X102538692Y-108031484D01*
X102360063Y-107852856D01*
X102126674Y-107756183D01*
X101586115Y-107756183D01*
X101427365Y-107914933D01*
X101173365Y-107914933D01*
X101014615Y-107756183D01*
X100710000Y-107756183D01*
X100710000Y-98694670D01*
X101965000Y-98694670D01*
X101965000Y-99305330D01*
X102198690Y-99869507D01*
X102630493Y-100301310D01*
X103194670Y-100535000D01*
X103805330Y-100535000D01*
X104369507Y-100301310D01*
X104801310Y-99869507D01*
X105035000Y-99305330D01*
X105035000Y-98694670D01*
X104801310Y-98130493D01*
X104369507Y-97698690D01*
X103805330Y-97465000D01*
X103194670Y-97465000D01*
X102630493Y-97698690D01*
X102198690Y-98130493D01*
X101965000Y-98694670D01*
X100710000Y-98694670D01*
X100710000Y-87909632D01*
X100742191Y-87957809D01*
X100952235Y-88098157D01*
X101200000Y-88147440D01*
X102200000Y-88147440D01*
X102350000Y-88117603D01*
X102500000Y-88147440D01*
X103500000Y-88147440D01*
X103747765Y-88098157D01*
X103957809Y-87957809D01*
X104042099Y-87831660D01*
X104076484Y-87838500D01*
X104076488Y-87838500D01*
X104153800Y-87853878D01*
X104231112Y-87838500D01*
X109019289Y-87838500D01*
X109111720Y-87930931D01*
X109492126Y-88088500D01*
X109686600Y-88088500D01*
X109686601Y-98453241D01*
X107813302Y-100326541D01*
X107785439Y-100315000D01*
X107214561Y-100315000D01*
X106687138Y-100533466D01*
X106283466Y-100937138D01*
X106065000Y-101464561D01*
X106065000Y-102035439D01*
X106283466Y-102562862D01*
X106687138Y-102966534D01*
X107214561Y-103185000D01*
X107785439Y-103185000D01*
X108312862Y-102966534D01*
X108500000Y-102779396D01*
X108687138Y-102966534D01*
X109214561Y-103185000D01*
X109785439Y-103185000D01*
X110312862Y-102966534D01*
X110481880Y-102797516D01*
X110556986Y-102872622D01*
X110671861Y-102757747D01*
X110745995Y-103003864D01*
X111283223Y-103196965D01*
X111853454Y-103169778D01*
X112254005Y-103003864D01*
X112328139Y-102757745D01*
X111500000Y-101929605D01*
X111485858Y-101943748D01*
X111306253Y-101764143D01*
X111320395Y-101750000D01*
X111679605Y-101750000D01*
X112507745Y-102578139D01*
X112753864Y-102504005D01*
X112946965Y-101966777D01*
X112919778Y-101396546D01*
X112753864Y-100995995D01*
X112507745Y-100921861D01*
X111679605Y-101750000D01*
X111320395Y-101750000D01*
X111306253Y-101735858D01*
X111485858Y-101556252D01*
X111500000Y-101570395D01*
X112328139Y-100742255D01*
X112254005Y-100496136D01*
X111716777Y-100303035D01*
X111146546Y-100330222D01*
X110745995Y-100496136D01*
X110671861Y-100742253D01*
X110556986Y-100627378D01*
X110481880Y-100702484D01*
X110312862Y-100533466D01*
X109969088Y-100391070D01*
X110972011Y-99388147D01*
X111037553Y-99344353D01*
X111081347Y-99278811D01*
X111081349Y-99278809D01*
X111211054Y-99084692D01*
X111256600Y-98855716D01*
X111256600Y-98855713D01*
X111271978Y-98778401D01*
X111256600Y-98701089D01*
X111256600Y-85399212D01*
X111271978Y-85321900D01*
X111256600Y-85244588D01*
X111256600Y-85244584D01*
X111211054Y-85015608D01*
X111037553Y-84755947D01*
X110972008Y-84712151D01*
X110392688Y-84132831D01*
X110712855Y-84069146D01*
X110905000Y-83940759D01*
X111097145Y-84069146D01*
X111428217Y-84135000D01*
X111651783Y-84135000D01*
X111982855Y-84069146D01*
X112186910Y-83932801D01*
X112249791Y-83987127D01*
X112508126Y-84094119D01*
X112683000Y-83967954D01*
X112683000Y-83127000D01*
X112937000Y-83127000D01*
X112937000Y-83967954D01*
X113111874Y-84094119D01*
X113370209Y-83987127D01*
X113705323Y-83697604D01*
X113904132Y-83301877D01*
X113779135Y-83127000D01*
X112937000Y-83127000D01*
X112683000Y-83127000D01*
X112671973Y-83127000D01*
X112697235Y-83000000D01*
X112671973Y-82873000D01*
X112683000Y-82873000D01*
X112683000Y-82032046D01*
X112937000Y-82032046D01*
X112937000Y-82873000D01*
X113779135Y-82873000D01*
X113904132Y-82698123D01*
X113705323Y-82302396D01*
X113370209Y-82012873D01*
X113111874Y-81905881D01*
X112937000Y-82032046D01*
X112683000Y-82032046D01*
X112508126Y-81905881D01*
X112249791Y-82012873D01*
X112186910Y-82067199D01*
X111982855Y-81930854D01*
X111651783Y-81865000D01*
X111428217Y-81865000D01*
X111199703Y-81910454D01*
X112612057Y-80498100D01*
X115965700Y-80498100D01*
X115965700Y-80685174D01*
X115965700Y-80685174D01*
G37*
X115965700Y-80685174D02*
X116123269Y-81065580D01*
X116240700Y-81183011D01*
X116240701Y-85645337D01*
X115805330Y-85465000D01*
X115194670Y-85465000D01*
X114630493Y-85698690D01*
X114198690Y-86130493D01*
X113965000Y-86694670D01*
X113965000Y-87305330D01*
X114198690Y-87869507D01*
X114630493Y-88301310D01*
X115194670Y-88535000D01*
X115805330Y-88535000D01*
X116262884Y-88345475D01*
X116284797Y-88455637D01*
X116395599Y-88621463D01*
X116452772Y-88707029D01*
X116516228Y-88749429D01*
X117507973Y-89741174D01*
X117495995Y-89746136D01*
X117421861Y-89992255D01*
X118250000Y-90820395D01*
X118264143Y-90806253D01*
X118443748Y-90985858D01*
X118429605Y-91000000D01*
X118443748Y-91014142D01*
X118264143Y-91193748D01*
X118250000Y-91179605D01*
X118235858Y-91193748D01*
X118056252Y-91014142D01*
X118070395Y-91000000D01*
X117242255Y-90171861D01*
X116996136Y-90245995D01*
X116803035Y-90783223D01*
X116830222Y-91353454D01*
X116996136Y-91754005D01*
X117242253Y-91828139D01*
X117127378Y-91943014D01*
X117202484Y-92018120D01*
X117033466Y-92187138D01*
X116815000Y-92714561D01*
X116815000Y-93285439D01*
X117033466Y-93812862D01*
X117220604Y-94000000D01*
X117033466Y-94187138D01*
X116815000Y-94714561D01*
X116815000Y-95285439D01*
X117033466Y-95812862D01*
X117437138Y-96216534D01*
X117964561Y-96435000D01*
X118535439Y-96435000D01*
X119062862Y-96216534D01*
X119466534Y-95812862D01*
X119619286Y-95444087D01*
X123781600Y-99606402D01*
X123781600Y-101440000D01*
X123382426Y-101440000D01*
X123002020Y-101597569D01*
X122884589Y-101715000D01*
X119889347Y-101715000D01*
X119814500Y-101700112D01*
X119739653Y-101715000D01*
X119739648Y-101715000D01*
X119517963Y-101759096D01*
X119266571Y-101927071D01*
X119224171Y-101990527D01*
X114962228Y-106252471D01*
X114898772Y-106294871D01*
X114856372Y-106358327D01*
X114856371Y-106358328D01*
X114730797Y-106546263D01*
X114671812Y-106842800D01*
X114686701Y-106917652D01*
X114686700Y-112737200D01*
X110074248Y-112737200D01*
X109999400Y-112722312D01*
X109924552Y-112737200D01*
X109924548Y-112737200D01*
X109770209Y-112767900D01*
X109702862Y-112781296D01*
X109529197Y-112897336D01*
X109451471Y-112949271D01*
X109409071Y-113012727D01*
X108745699Y-113676100D01*
X108579626Y-113676100D01*
X108199220Y-113833669D01*
X108081789Y-113951100D01*
X106485700Y-113951100D01*
X106485700Y-109216052D01*
X106500589Y-109141200D01*
X106441604Y-108844663D01*
X106273629Y-108593271D01*
X106047805Y-108442380D01*
X106047805Y-108391183D01*
X105998522Y-108143418D01*
X105858174Y-107933374D01*
X105648130Y-107793026D01*
X105400365Y-107743743D01*
X104000365Y-107743743D01*
X103752600Y-107793026D01*
X103542556Y-107933374D01*
X103402208Y-108143418D01*
X103352925Y-108391183D01*
X103352925Y-109891183D01*
X103402208Y-110138948D01*
X103542556Y-110348992D01*
X103752600Y-110489340D01*
X104000365Y-110538623D01*
X104965700Y-110538623D01*
X104965700Y-111059536D01*
X104716185Y-110956183D01*
X104284545Y-110956183D01*
X103885762Y-111121365D01*
X103580547Y-111426580D01*
X103415365Y-111825363D01*
X103415365Y-112257003D01*
X103580547Y-112655786D01*
X103885762Y-112961001D01*
X104284545Y-113126183D01*
X104716185Y-113126183D01*
X104965701Y-113022830D01*
X104965701Y-113543743D01*
X104000365Y-113543743D01*
X103752600Y-113593026D01*
X103542556Y-113733374D01*
X103402208Y-113943418D01*
X103352925Y-114191183D01*
X103352925Y-115691183D01*
X103402208Y-115938948D01*
X103542556Y-116148992D01*
X103752600Y-116289340D01*
X104000365Y-116338623D01*
X105400365Y-116338623D01*
X105648130Y-116289340D01*
X105858174Y-116148992D01*
X105998522Y-115938948D01*
X106047805Y-115691183D01*
X106047805Y-115640020D01*
X106273629Y-115489129D01*
X106285676Y-115471100D01*
X108081789Y-115471100D01*
X108199220Y-115588531D01*
X108579626Y-115746100D01*
X108991374Y-115746100D01*
X109371780Y-115588531D01*
X109662931Y-115297380D01*
X109820500Y-114916974D01*
X109820500Y-114750901D01*
X110314202Y-114257200D01*
X115007342Y-114257200D01*
X110999590Y-118264953D01*
X110934048Y-118308747D01*
X110890254Y-118374289D01*
X110890251Y-118374292D01*
X110760546Y-118568409D01*
X110699622Y-118874700D01*
X110715001Y-118952017D01*
X110715000Y-121021925D01*
X110687138Y-121033466D01*
X110500000Y-121220604D01*
X110312862Y-121033466D01*
X109785439Y-120815000D01*
X109214561Y-120815000D01*
X108687138Y-121033466D01*
X108518120Y-121202484D01*
X108443014Y-121127378D01*
X108328139Y-121242253D01*
X108254005Y-120996136D01*
X107716777Y-120803035D01*
X107146546Y-120830222D01*
X106745995Y-120996136D01*
X106671861Y-121242255D01*
X107500000Y-122070395D01*
X107514142Y-122056252D01*
X107693748Y-122235858D01*
X107679605Y-122250000D01*
X107693748Y-122264143D01*
X107514142Y-122443748D01*
X107500000Y-122429605D01*
X107485858Y-122443748D01*
X107306253Y-122264143D01*
X107320395Y-122250000D01*
X106492255Y-121421861D01*
X106246136Y-121495995D01*
X106053035Y-122033223D01*
X106053967Y-122052766D01*
X105028800Y-121027599D01*
X105028800Y-118147611D01*
X105146231Y-118030180D01*
X105303800Y-117649774D01*
X105303800Y-117238026D01*
X105146231Y-116857620D01*
X104855080Y-116566469D01*
X104474674Y-116408900D01*
X104062926Y-116408900D01*
X103682520Y-116566469D01*
X103391369Y-116857620D01*
X103233800Y-117238026D01*
X103233800Y-117649774D01*
X103391369Y-118030180D01*
X103508801Y-118147612D01*
X103508800Y-121267553D01*
X103493912Y-121342400D01*
X103508800Y-121417247D01*
X103508800Y-121417251D01*
X103552896Y-121638936D01*
X103720871Y-121890329D01*
X103784330Y-121932731D01*
X116975771Y-135124173D01*
X117018171Y-135187629D01*
X117269563Y-135355604D01*
X117491248Y-135399700D01*
X117491252Y-135399700D01*
X117566099Y-135414588D01*
X117640946Y-135399700D01*
X118875353Y-135399700D01*
X118950200Y-135414588D01*
X119025047Y-135399700D01*
X119025052Y-135399700D01*
X119246737Y-135355604D01*
X119498129Y-135187629D01*
X119540531Y-135124170D01*
X121895963Y-132768739D01*
X122119780Y-132676031D01*
X122410931Y-132384880D01*
X122568500Y-132004474D01*
X122568500Y-131592726D01*
X122410931Y-131212320D01*
X122289906Y-131091295D01*
X126119995Y-127261206D01*
X126174220Y-127315431D01*
X126554626Y-127473000D01*
X126966374Y-127473000D01*
X127069001Y-127430491D01*
X127069001Y-131647588D01*
X126951569Y-131765020D01*
X126794000Y-132145426D01*
X126794000Y-132557174D01*
X126951569Y-132937580D01*
X127072644Y-133058655D01*
X121016599Y-139114700D01*
X120654852Y-139114700D01*
X120580000Y-139099811D01*
X120505148Y-139114700D01*
X117544048Y-139114700D01*
X117469200Y-139099812D01*
X117394352Y-139114700D01*
X117394348Y-139114700D01*
X117220805Y-139149220D01*
X117172662Y-139158796D01*
X117027581Y-139255737D01*
X116921271Y-139326771D01*
X116878871Y-139390227D01*
X116619394Y-139649704D01*
X116547765Y-139601843D01*
X116300000Y-139552560D01*
X114700000Y-139552560D01*
X114452235Y-139601843D01*
X114242191Y-139742191D01*
X114101843Y-139952235D01*
X114052560Y-140200000D01*
X114052560Y-141800000D01*
X114101843Y-142047765D01*
X114242191Y-142257809D01*
X114452235Y-142398157D01*
X114700000Y-142447440D01*
X116300000Y-142447440D01*
X116547765Y-142398157D01*
X116757809Y-142257809D01*
X116898157Y-142047765D01*
X116924785Y-141913894D01*
X117005423Y-142034577D01*
X117480091Y-142351740D01*
X117898667Y-142435000D01*
X118181333Y-142435000D01*
X118599909Y-142351740D01*
X119074577Y-142034577D01*
X119310000Y-141682242D01*
X119545423Y-142034577D01*
X120020091Y-142351740D01*
X120438667Y-142435000D01*
X120721333Y-142435000D01*
X121139909Y-142351740D01*
X121614577Y-142034577D01*
X121850000Y-141682242D01*
X122085423Y-142034577D01*
X122560091Y-142351740D01*
X122978667Y-142435000D01*
X123261333Y-142435000D01*
X123679909Y-142351740D01*
X124154577Y-142034577D01*
X124340786Y-141755896D01*
X124541837Y-141715904D01*
X124793229Y-141547929D01*
X124961204Y-141296537D01*
X125005300Y-141074852D01*
X125005300Y-141074851D01*
X125020189Y-141000000D01*
X125005300Y-140925148D01*
X125005300Y-140611501D01*
X132425101Y-133191700D01*
X132638483Y-133251912D01*
X133430395Y-132460000D01*
X133416253Y-132445858D01*
X133595858Y-132266253D01*
X133610000Y-132280395D01*
X133624143Y-132266253D01*
X133803748Y-132445858D01*
X133789605Y-132460000D01*
X133803748Y-132474143D01*
X133624143Y-132653748D01*
X133610000Y-132639605D01*
X132818088Y-133431517D01*
X132886077Y-133672460D01*
X133405171Y-133857201D01*
X133955448Y-133829230D01*
X134120001Y-133761070D01*
X134120001Y-133815688D01*
X134095460Y-133825853D01*
X133705853Y-134215460D01*
X133495000Y-134724506D01*
X133495000Y-135275494D01*
X133705853Y-135784540D01*
X134095460Y-136174147D01*
X134141345Y-136193153D01*
X133870499Y-136464000D01*
X130431048Y-136464000D01*
X130356200Y-136449112D01*
X130281352Y-136464000D01*
X130281348Y-136464000D01*
X130059663Y-136508096D01*
X129808271Y-136676071D01*
X129765871Y-136739527D01*
X118981900Y-147523499D01*
X118599909Y-147268260D01*
X118181333Y-147185000D01*
X117898667Y-147185000D01*
X117480091Y-147268260D01*
X117005423Y-147585423D01*
X116770000Y-147937758D01*
X116534577Y-147585423D01*
X116059909Y-147268260D01*
X115641333Y-147185000D01*
X115358667Y-147185000D01*
X114940091Y-147268260D01*
X114465423Y-147585423D01*
X114148260Y-148060091D01*
X114036887Y-148620000D01*
X114148260Y-149179909D01*
X114221820Y-149290000D01*
X105031618Y-149290000D01*
X104240807Y-149219422D01*
X103505611Y-149018295D01*
X102817645Y-148690152D01*
X102198672Y-148245374D01*
X101668239Y-147698012D01*
X101243117Y-147065362D01*
X100936749Y-146367439D01*
X100757501Y-145620819D01*
X100710000Y-144973970D01*
X100710000Y-144605159D01*
X103015000Y-144605159D01*
X103015000Y-145394841D01*
X103317199Y-146124412D01*
X103875588Y-146682801D01*
X104605159Y-146985000D01*
X105394841Y-146985000D01*
X106124412Y-146682801D01*
X106682801Y-146124412D01*
X106985000Y-145394841D01*
X106985000Y-144605159D01*
X106682801Y-143875588D01*
X106124412Y-143317199D01*
X105394841Y-143015000D01*
X104605159Y-143015000D01*
X103875588Y-143317199D01*
X103317199Y-143875588D01*
X103015000Y-144605159D01*
X100710000Y-144605159D01*
X100710000Y-136694670D01*
X113965000Y-136694670D01*
X113965000Y-137305330D01*
X114198690Y-137869507D01*
X114630493Y-138301310D01*
X115194670Y-138535000D01*
X115805330Y-138535000D01*
X116369507Y-138301310D01*
X116801310Y-137869507D01*
X117035000Y-137305330D01*
X117035000Y-136694670D01*
X116801310Y-136130493D01*
X116369507Y-135698690D01*
X115805330Y-135465000D01*
X115194670Y-135465000D01*
X114630493Y-135698690D01*
X114198690Y-136130493D01*
X113965000Y-136694670D01*
X100710000Y-136694670D01*
X100710000Y-124694670D01*
X101965000Y-124694670D01*
X101965000Y-125305330D01*
X102198690Y-125869507D01*
X102630493Y-126301310D01*
X103194670Y-126535000D01*
X103805330Y-126535000D01*
X104369507Y-126301310D01*
X104801310Y-125869507D01*
X105035000Y-125305330D01*
X105035000Y-124694670D01*
X104801310Y-124130493D01*
X104369507Y-123698690D01*
X103805330Y-123465000D01*
X103194670Y-123465000D01*
X102630493Y-123698690D01*
X102198690Y-124130493D01*
X101965000Y-124694670D01*
X100710000Y-124694670D01*
X100710000Y-116326183D01*
X101014615Y-116326183D01*
X101173365Y-116167433D01*
X101173365Y-115068183D01*
X101427365Y-115068183D01*
X101427365Y-116167433D01*
X101586115Y-116326183D01*
X102126674Y-116326183D01*
X102360063Y-116229510D01*
X102538692Y-116050882D01*
X102635365Y-115817493D01*
X102635365Y-115226933D01*
X102476615Y-115068183D01*
X101427365Y-115068183D01*
X101173365Y-115068183D01*
X101153365Y-115068183D01*
X101153365Y-114814183D01*
X101173365Y-114814183D01*
X101173365Y-113714933D01*
X101427365Y-113714933D01*
X101427365Y-114814183D01*
X102476615Y-114814183D01*
X102635365Y-114655433D01*
X102635365Y-114064873D01*
X102538692Y-113831484D01*
X102360063Y-113652856D01*
X102126674Y-113556183D01*
X101586115Y-113556183D01*
X101427365Y-113714933D01*
X101173365Y-113714933D01*
X101014615Y-113556183D01*
X100710000Y-113556183D01*
X100710000Y-112785239D01*
X100885762Y-112961001D01*
X101284545Y-113126183D01*
X101716185Y-113126183D01*
X102114968Y-112961001D01*
X102420183Y-112655786D01*
X102585365Y-112257003D01*
X102585365Y-111825363D01*
X102420183Y-111426580D01*
X102114968Y-111121365D01*
X101716185Y-110956183D01*
X101284545Y-110956183D01*
X100885762Y-111121365D01*
X100710000Y-111297127D01*
X100710000Y-110526183D01*
X101014615Y-110526183D01*
X101173365Y-110367433D01*
X101173365Y-109268183D01*
X101427365Y-109268183D01*
X101427365Y-110367433D01*
X101586115Y-110526183D01*
X102126674Y-110526183D01*
X102360063Y-110429510D01*
X102538692Y-110250882D01*
X102635365Y-110017493D01*
X102635365Y-109426933D01*
X102476615Y-109268183D01*
X101427365Y-109268183D01*
X101173365Y-109268183D01*
X101153365Y-109268183D01*
X101153365Y-109014183D01*
X101173365Y-109014183D01*
X101173365Y-107914933D01*
X101427365Y-107914933D01*
X101427365Y-109014183D01*
X102476615Y-109014183D01*
X102635365Y-108855433D01*
X102635365Y-108264873D01*
X102538692Y-108031484D01*
X102360063Y-107852856D01*
X102126674Y-107756183D01*
X101586115Y-107756183D01*
X101427365Y-107914933D01*
X101173365Y-107914933D01*
X101014615Y-107756183D01*
X100710000Y-107756183D01*
X100710000Y-98694670D01*
X101965000Y-98694670D01*
X101965000Y-99305330D01*
X102198690Y-99869507D01*
X102630493Y-100301310D01*
X103194670Y-100535000D01*
X103805330Y-100535000D01*
X104369507Y-100301310D01*
X104801310Y-99869507D01*
X105035000Y-99305330D01*
X105035000Y-98694670D01*
X104801310Y-98130493D01*
X104369507Y-97698690D01*
X103805330Y-97465000D01*
X103194670Y-97465000D01*
X102630493Y-97698690D01*
X102198690Y-98130493D01*
X101965000Y-98694670D01*
X100710000Y-98694670D01*
X100710000Y-87909632D01*
X100742191Y-87957809D01*
X100952235Y-88098157D01*
X101200000Y-88147440D01*
X102200000Y-88147440D01*
X102350000Y-88117603D01*
X102500000Y-88147440D01*
X103500000Y-88147440D01*
X103747765Y-88098157D01*
X103957809Y-87957809D01*
X104042099Y-87831660D01*
X104076484Y-87838500D01*
X104076488Y-87838500D01*
X104153800Y-87853878D01*
X104231112Y-87838500D01*
X109019289Y-87838500D01*
X109111720Y-87930931D01*
X109492126Y-88088500D01*
X109686600Y-88088500D01*
X109686601Y-98453241D01*
X107813302Y-100326541D01*
X107785439Y-100315000D01*
X107214561Y-100315000D01*
X106687138Y-100533466D01*
X106283466Y-100937138D01*
X106065000Y-101464561D01*
X106065000Y-102035439D01*
X106283466Y-102562862D01*
X106687138Y-102966534D01*
X107214561Y-103185000D01*
X107785439Y-103185000D01*
X108312862Y-102966534D01*
X108500000Y-102779396D01*
X108687138Y-102966534D01*
X109214561Y-103185000D01*
X109785439Y-103185000D01*
X110312862Y-102966534D01*
X110481880Y-102797516D01*
X110556986Y-102872622D01*
X110671861Y-102757747D01*
X110745995Y-103003864D01*
X111283223Y-103196965D01*
X111853454Y-103169778D01*
X112254005Y-103003864D01*
X112328139Y-102757745D01*
X111500000Y-101929605D01*
X111485858Y-101943748D01*
X111306253Y-101764143D01*
X111320395Y-101750000D01*
X111679605Y-101750000D01*
X112507745Y-102578139D01*
X112753864Y-102504005D01*
X112946965Y-101966777D01*
X112919778Y-101396546D01*
X112753864Y-100995995D01*
X112507745Y-100921861D01*
X111679605Y-101750000D01*
X111320395Y-101750000D01*
X111306253Y-101735858D01*
X111485858Y-101556252D01*
X111500000Y-101570395D01*
X112328139Y-100742255D01*
X112254005Y-100496136D01*
X111716777Y-100303035D01*
X111146546Y-100330222D01*
X110745995Y-100496136D01*
X110671861Y-100742253D01*
X110556986Y-100627378D01*
X110481880Y-100702484D01*
X110312862Y-100533466D01*
X109969088Y-100391070D01*
X110972011Y-99388147D01*
X111037553Y-99344353D01*
X111081347Y-99278811D01*
X111081349Y-99278809D01*
X111211054Y-99084692D01*
X111256600Y-98855716D01*
X111256600Y-98855713D01*
X111271978Y-98778401D01*
X111256600Y-98701089D01*
X111256600Y-85399212D01*
X111271978Y-85321900D01*
X111256600Y-85244588D01*
X111256600Y-85244584D01*
X111211054Y-85015608D01*
X111037553Y-84755947D01*
X110972008Y-84712151D01*
X110392688Y-84132831D01*
X110712855Y-84069146D01*
X110905000Y-83940759D01*
X111097145Y-84069146D01*
X111428217Y-84135000D01*
X111651783Y-84135000D01*
X111982855Y-84069146D01*
X112186910Y-83932801D01*
X112249791Y-83987127D01*
X112508126Y-84094119D01*
X112683000Y-83967954D01*
X112683000Y-83127000D01*
X112937000Y-83127000D01*
X112937000Y-83967954D01*
X113111874Y-84094119D01*
X113370209Y-83987127D01*
X113705323Y-83697604D01*
X113904132Y-83301877D01*
X113779135Y-83127000D01*
X112937000Y-83127000D01*
X112683000Y-83127000D01*
X112671973Y-83127000D01*
X112697235Y-83000000D01*
X112671973Y-82873000D01*
X112683000Y-82873000D01*
X112683000Y-82032046D01*
X112937000Y-82032046D01*
X112937000Y-82873000D01*
X113779135Y-82873000D01*
X113904132Y-82698123D01*
X113705323Y-82302396D01*
X113370209Y-82012873D01*
X113111874Y-81905881D01*
X112937000Y-82032046D01*
X112683000Y-82032046D01*
X112508126Y-81905881D01*
X112249791Y-82012873D01*
X112186910Y-82067199D01*
X111982855Y-81930854D01*
X111651783Y-81865000D01*
X111428217Y-81865000D01*
X111199703Y-81910454D01*
X112612057Y-80498100D01*
X115965700Y-80498100D01*
X115965700Y-80685174D01*
G36*
X160515251Y-94875408D02*
X160559047Y-94940953D01*
X160624592Y-94984749D01*
X163715000Y-98075157D01*
X163715001Y-100521925D01*
X163687138Y-100533466D01*
X163283466Y-100937138D01*
X163065000Y-101464561D01*
X163065000Y-102035439D01*
X163076541Y-102063302D01*
X162849192Y-102290651D01*
X162783647Y-102334447D01*
X162739851Y-102399992D01*
X162631025Y-102562862D01*
X162610146Y-102594109D01*
X162564600Y-102823085D01*
X162564600Y-102823088D01*
X162549222Y-102900400D01*
X162564600Y-102977712D01*
X162564601Y-122650083D01*
X162549222Y-122727400D01*
X162610146Y-123033691D01*
X162739851Y-123227808D01*
X162739854Y-123227811D01*
X162783648Y-123293353D01*
X162849190Y-123337147D01*
X163422653Y-123910610D01*
X163466447Y-123976153D01*
X163531989Y-124019947D01*
X163531991Y-124019949D01*
X163670563Y-124112540D01*
X163726108Y-124149654D01*
X163955084Y-124195200D01*
X163955087Y-124195200D01*
X164032399Y-124210578D01*
X164109711Y-124195200D01*
X167262488Y-124195200D01*
X167339800Y-124210578D01*
X167417112Y-124195200D01*
X167417116Y-124195200D01*
X167646092Y-124149654D01*
X167905753Y-123976153D01*
X167949549Y-123910608D01*
X168186698Y-123673459D01*
X168214561Y-123685000D01*
X168785439Y-123685000D01*
X168906300Y-123634938D01*
X168906301Y-143511841D01*
X167147440Y-145270703D01*
X167147440Y-144500000D01*
X167098157Y-144252235D01*
X166957809Y-144042191D01*
X166760000Y-143910018D01*
X166760000Y-131075248D01*
X166774888Y-131000400D01*
X166760000Y-130925552D01*
X166760000Y-130925548D01*
X166715904Y-130703863D01*
X166547929Y-130452471D01*
X166484473Y-130410071D01*
X156708500Y-120634099D01*
X156708500Y-96007745D01*
X156921861Y-96007745D01*
X156995995Y-96253864D01*
X157533223Y-96446965D01*
X158103454Y-96419778D01*
X158504005Y-96253864D01*
X158578139Y-96007745D01*
X157750000Y-95179605D01*
X156921861Y-96007745D01*
X156708500Y-96007745D01*
X156708500Y-95817972D01*
X156742255Y-95828139D01*
X157570395Y-95000000D01*
X157556252Y-94985858D01*
X157735858Y-94806253D01*
X157750000Y-94820395D01*
X157764143Y-94806253D01*
X157943748Y-94985858D01*
X157929605Y-95000000D01*
X158757745Y-95828139D01*
X159003864Y-95754005D01*
X159196965Y-95216777D01*
X159169778Y-94646546D01*
X159003864Y-94245995D01*
X158757747Y-94171861D01*
X158872622Y-94056986D01*
X158797516Y-93981880D01*
X158966534Y-93812862D01*
X159108930Y-93469087D01*
X160515251Y-94875408D01*
X160515251Y-94875408D01*
G37*
X160515251Y-94875408D02*
X160559047Y-94940953D01*
X160624592Y-94984749D01*
X163715000Y-98075157D01*
X163715001Y-100521925D01*
X163687138Y-100533466D01*
X163283466Y-100937138D01*
X163065000Y-101464561D01*
X163065000Y-102035439D01*
X163076541Y-102063302D01*
X162849192Y-102290651D01*
X162783647Y-102334447D01*
X162739851Y-102399992D01*
X162631025Y-102562862D01*
X162610146Y-102594109D01*
X162564600Y-102823085D01*
X162564600Y-102823088D01*
X162549222Y-102900400D01*
X162564600Y-102977712D01*
X162564601Y-122650083D01*
X162549222Y-122727400D01*
X162610146Y-123033691D01*
X162739851Y-123227808D01*
X162739854Y-123227811D01*
X162783648Y-123293353D01*
X162849190Y-123337147D01*
X163422653Y-123910610D01*
X163466447Y-123976153D01*
X163531989Y-124019947D01*
X163531991Y-124019949D01*
X163670563Y-124112540D01*
X163726108Y-124149654D01*
X163955084Y-124195200D01*
X163955087Y-124195200D01*
X164032399Y-124210578D01*
X164109711Y-124195200D01*
X167262488Y-124195200D01*
X167339800Y-124210578D01*
X167417112Y-124195200D01*
X167417116Y-124195200D01*
X167646092Y-124149654D01*
X167905753Y-123976153D01*
X167949549Y-123910608D01*
X168186698Y-123673459D01*
X168214561Y-123685000D01*
X168785439Y-123685000D01*
X168906300Y-123634938D01*
X168906301Y-143511841D01*
X167147440Y-145270703D01*
X167147440Y-144500000D01*
X167098157Y-144252235D01*
X166957809Y-144042191D01*
X166760000Y-143910018D01*
X166760000Y-131075248D01*
X166774888Y-131000400D01*
X166760000Y-130925552D01*
X166760000Y-130925548D01*
X166715904Y-130703863D01*
X166547929Y-130452471D01*
X166484473Y-130410071D01*
X156708500Y-120634099D01*
X156708500Y-96007745D01*
X156921861Y-96007745D01*
X156995995Y-96253864D01*
X157533223Y-96446965D01*
X158103454Y-96419778D01*
X158504005Y-96253864D01*
X158578139Y-96007745D01*
X157750000Y-95179605D01*
X156921861Y-96007745D01*
X156708500Y-96007745D01*
X156708500Y-95817972D01*
X156742255Y-95828139D01*
X157570395Y-95000000D01*
X157556252Y-94985858D01*
X157735858Y-94806253D01*
X157750000Y-94820395D01*
X157764143Y-94806253D01*
X157943748Y-94985858D01*
X157929605Y-95000000D01*
X158757745Y-95828139D01*
X159003864Y-95754005D01*
X159196965Y-95216777D01*
X159169778Y-94646546D01*
X159003864Y-94245995D01*
X158757747Y-94171861D01*
X158872622Y-94056986D01*
X158797516Y-93981880D01*
X158966534Y-93812862D01*
X159108930Y-93469087D01*
X160515251Y-94875408D01*
G36*
X117147000Y-115627000D02*
X117127000Y-115627000D01*
X117127000Y-116276250D01*
X117285750Y-116435000D01*
X117840701Y-116435000D01*
X117840701Y-118561048D01*
X117825812Y-118635900D01*
X117840701Y-118710752D01*
X117884797Y-118932437D01*
X118052772Y-119183829D01*
X118116228Y-119226229D01*
X123153600Y-124263602D01*
X123153600Y-124429674D01*
X123311169Y-124810080D01*
X123535293Y-125034204D01*
X119857899Y-128711600D01*
X119691826Y-128711600D01*
X119673247Y-128719296D01*
X119669778Y-128646546D01*
X119503864Y-128245995D01*
X119257745Y-128171861D01*
X118429605Y-129000000D01*
X118443748Y-129014142D01*
X118264142Y-129193748D01*
X118250000Y-129179605D01*
X118235858Y-129193748D01*
X118056252Y-129014142D01*
X118070395Y-129000000D01*
X117242255Y-128171861D01*
X116996136Y-128245995D01*
X116803035Y-128783223D01*
X116830222Y-129353454D01*
X116996136Y-129754005D01*
X117242253Y-129828139D01*
X117127378Y-129943014D01*
X117202484Y-130018120D01*
X117033466Y-130187138D01*
X116891070Y-130530913D01*
X114352412Y-127992255D01*
X117421861Y-127992255D01*
X118250000Y-128820395D01*
X119078139Y-127992255D01*
X119004005Y-127746136D01*
X118466777Y-127553035D01*
X117896546Y-127580222D01*
X117495995Y-127746136D01*
X117421861Y-127992255D01*
X114352412Y-127992255D01*
X112285000Y-125924843D01*
X112285000Y-123478075D01*
X112312862Y-123466534D01*
X112716534Y-123062862D01*
X112935000Y-122535439D01*
X112935000Y-121964561D01*
X112716534Y-121437138D01*
X112312862Y-121033466D01*
X112285000Y-121021925D01*
X112285000Y-119199857D01*
X115590000Y-115894858D01*
X115590000Y-115926309D01*
X115686673Y-116159698D01*
X115865301Y-116338327D01*
X116098690Y-116435000D01*
X116714250Y-116435000D01*
X116873000Y-116276250D01*
X116873000Y-115627000D01*
X116853000Y-115627000D01*
X116853000Y-115447440D01*
X117147000Y-115447440D01*
X117147000Y-115627000D01*
X117147000Y-115627000D01*
G37*
X117147000Y-115627000D02*
X117127000Y-115627000D01*
X117127000Y-116276250D01*
X117285750Y-116435000D01*
X117840701Y-116435000D01*
X117840701Y-118561048D01*
X117825812Y-118635900D01*
X117840701Y-118710752D01*
X117884797Y-118932437D01*
X118052772Y-119183829D01*
X118116228Y-119226229D01*
X123153600Y-124263602D01*
X123153600Y-124429674D01*
X123311169Y-124810080D01*
X123535293Y-125034204D01*
X119857899Y-128711600D01*
X119691826Y-128711600D01*
X119673247Y-128719296D01*
X119669778Y-128646546D01*
X119503864Y-128245995D01*
X119257745Y-128171861D01*
X118429605Y-129000000D01*
X118443748Y-129014142D01*
X118264142Y-129193748D01*
X118250000Y-129179605D01*
X118235858Y-129193748D01*
X118056252Y-129014142D01*
X118070395Y-129000000D01*
X117242255Y-128171861D01*
X116996136Y-128245995D01*
X116803035Y-128783223D01*
X116830222Y-129353454D01*
X116996136Y-129754005D01*
X117242253Y-129828139D01*
X117127378Y-129943014D01*
X117202484Y-130018120D01*
X117033466Y-130187138D01*
X116891070Y-130530913D01*
X114352412Y-127992255D01*
X117421861Y-127992255D01*
X118250000Y-128820395D01*
X119078139Y-127992255D01*
X119004005Y-127746136D01*
X118466777Y-127553035D01*
X117896546Y-127580222D01*
X117495995Y-127746136D01*
X117421861Y-127992255D01*
X114352412Y-127992255D01*
X112285000Y-125924843D01*
X112285000Y-123478075D01*
X112312862Y-123466534D01*
X112716534Y-123062862D01*
X112935000Y-122535439D01*
X112935000Y-121964561D01*
X112716534Y-121437138D01*
X112312862Y-121033466D01*
X112285000Y-121021925D01*
X112285000Y-119199857D01*
X115590000Y-115894858D01*
X115590000Y-115926309D01*
X115686673Y-116159698D01*
X115865301Y-116338327D01*
X116098690Y-116435000D01*
X116714250Y-116435000D01*
X116873000Y-116276250D01*
X116873000Y-115627000D01*
X116853000Y-115627000D01*
X116853000Y-115447440D01*
X117147000Y-115447440D01*
X117147000Y-115627000D01*
G36*
X164693748Y-122235858D02*
X164679605Y-122250000D01*
X164693748Y-122264143D01*
X164514143Y-122443748D01*
X164500000Y-122429605D01*
X164485858Y-122443748D01*
X164306253Y-122264143D01*
X164320395Y-122250000D01*
X164306253Y-122235858D01*
X164485858Y-122056253D01*
X164500000Y-122070395D01*
X164514142Y-122056252D01*
X164693748Y-122235858D01*
X164693748Y-122235858D01*
G37*
X164693748Y-122235858D02*
X164679605Y-122250000D01*
X164693748Y-122264143D01*
X164514143Y-122443748D01*
X164500000Y-122429605D01*
X164485858Y-122443748D01*
X164306253Y-122264143D01*
X164320395Y-122250000D01*
X164306253Y-122235858D01*
X164485858Y-122056253D01*
X164500000Y-122070395D01*
X164514142Y-122056252D01*
X164693748Y-122235858D01*
G36*
X145943748Y-91815858D02*
X145929605Y-91830000D01*
X145943748Y-91844143D01*
X145764143Y-92023748D01*
X145750000Y-92009605D01*
X144985268Y-92774337D01*
X145048645Y-93011397D01*
X145279599Y-93092938D01*
X145048645Y-93188603D01*
X144985268Y-93425663D01*
X145750000Y-94190395D01*
X145764143Y-94176253D01*
X145943748Y-94355858D01*
X145929605Y-94370000D01*
X145943748Y-94384143D01*
X145764143Y-94563748D01*
X145750000Y-94549605D01*
X144985268Y-95314337D01*
X145048645Y-95551397D01*
X145297044Y-95639097D01*
X144986703Y-95767645D01*
X144607645Y-96146703D01*
X144402500Y-96641966D01*
X144402500Y-97178034D01*
X144521158Y-97464500D01*
X144219146Y-97464500D01*
X144144299Y-97449612D01*
X144069452Y-97464500D01*
X144069448Y-97464500D01*
X143847763Y-97508596D01*
X143785202Y-97550398D01*
X143659826Y-97634171D01*
X143659824Y-97634173D01*
X143596371Y-97676571D01*
X143553973Y-97740024D01*
X142800498Y-98493500D01*
X142634426Y-98493500D01*
X142254020Y-98651069D01*
X141962869Y-98942220D01*
X141805300Y-99322626D01*
X141805300Y-99734374D01*
X141962869Y-100114780D01*
X142084444Y-100236355D01*
X141320300Y-101000499D01*
X141320300Y-95822446D01*
X141335188Y-95747599D01*
X141320300Y-95672752D01*
X141320300Y-95672748D01*
X141276204Y-95451063D01*
X141108229Y-95199671D01*
X141044773Y-95157271D01*
X140061636Y-94174134D01*
X144390134Y-94174134D01*
X144418693Y-94709442D01*
X144568603Y-95071355D01*
X144805663Y-95134732D01*
X145570395Y-94370000D01*
X144805663Y-93605268D01*
X144568603Y-93668645D01*
X144390134Y-94174134D01*
X140061636Y-94174134D01*
X139101989Y-93214488D01*
X139351740Y-92840709D01*
X139463113Y-92280800D01*
X139361668Y-91770800D01*
X143954353Y-91770800D01*
X144029200Y-91785688D01*
X144104047Y-91770800D01*
X144104052Y-91770800D01*
X144325737Y-91726704D01*
X144392686Y-91681970D01*
X144418693Y-92169442D01*
X144568603Y-92531355D01*
X144805663Y-92594732D01*
X145570395Y-91830000D01*
X145556253Y-91815858D01*
X145735858Y-91636253D01*
X145750000Y-91650395D01*
X145764143Y-91636253D01*
X145943748Y-91815858D01*
X145943748Y-91815858D01*
G37*
X145943748Y-91815858D02*
X145929605Y-91830000D01*
X145943748Y-91844143D01*
X145764143Y-92023748D01*
X145750000Y-92009605D01*
X144985268Y-92774337D01*
X145048645Y-93011397D01*
X145279599Y-93092938D01*
X145048645Y-93188603D01*
X144985268Y-93425663D01*
X145750000Y-94190395D01*
X145764143Y-94176253D01*
X145943748Y-94355858D01*
X145929605Y-94370000D01*
X145943748Y-94384143D01*
X145764143Y-94563748D01*
X145750000Y-94549605D01*
X144985268Y-95314337D01*
X145048645Y-95551397D01*
X145297044Y-95639097D01*
X144986703Y-95767645D01*
X144607645Y-96146703D01*
X144402500Y-96641966D01*
X144402500Y-97178034D01*
X144521158Y-97464500D01*
X144219146Y-97464500D01*
X144144299Y-97449612D01*
X144069452Y-97464500D01*
X144069448Y-97464500D01*
X143847763Y-97508596D01*
X143785202Y-97550398D01*
X143659826Y-97634171D01*
X143659824Y-97634173D01*
X143596371Y-97676571D01*
X143553973Y-97740024D01*
X142800498Y-98493500D01*
X142634426Y-98493500D01*
X142254020Y-98651069D01*
X141962869Y-98942220D01*
X141805300Y-99322626D01*
X141805300Y-99734374D01*
X141962869Y-100114780D01*
X142084444Y-100236355D01*
X141320300Y-101000499D01*
X141320300Y-95822446D01*
X141335188Y-95747599D01*
X141320300Y-95672752D01*
X141320300Y-95672748D01*
X141276204Y-95451063D01*
X141108229Y-95199671D01*
X141044773Y-95157271D01*
X140061636Y-94174134D01*
X144390134Y-94174134D01*
X144418693Y-94709442D01*
X144568603Y-95071355D01*
X144805663Y-95134732D01*
X145570395Y-94370000D01*
X144805663Y-93605268D01*
X144568603Y-93668645D01*
X144390134Y-94174134D01*
X140061636Y-94174134D01*
X139101989Y-93214488D01*
X139351740Y-92840709D01*
X139463113Y-92280800D01*
X139361668Y-91770800D01*
X143954353Y-91770800D01*
X144029200Y-91785688D01*
X144104047Y-91770800D01*
X144104052Y-91770800D01*
X144325737Y-91726704D01*
X144392686Y-91681970D01*
X144418693Y-92169442D01*
X144568603Y-92531355D01*
X144805663Y-92594732D01*
X145570395Y-91830000D01*
X145556253Y-91815858D01*
X145735858Y-91636253D01*
X145750000Y-91650395D01*
X145764143Y-91636253D01*
X145943748Y-91815858D01*
G36*
X163102461Y-77993062D02*
X163057102Y-78102568D01*
X163057102Y-78713228D01*
X163290792Y-79277405D01*
X163722595Y-79709208D01*
X164286772Y-79942898D01*
X164897432Y-79942898D01*
X165006938Y-79897539D01*
X166940001Y-81830604D01*
X166940000Y-84532054D01*
X166740414Y-84665414D01*
X166545873Y-84956564D01*
X166477560Y-85299999D01*
X166477560Y-86200001D01*
X166545873Y-86543436D01*
X166740414Y-86834586D01*
X167031564Y-87029127D01*
X167306106Y-87083736D01*
X161125000Y-93264843D01*
X159173459Y-91313302D01*
X159185000Y-91285439D01*
X159185000Y-90714561D01*
X158966534Y-90187138D01*
X158562862Y-89783466D01*
X158035439Y-89565000D01*
X157464561Y-89565000D01*
X156937138Y-89783466D01*
X156603897Y-90116707D01*
X156496429Y-89955871D01*
X156432973Y-89913471D01*
X154669510Y-88150008D01*
X154913050Y-87785525D01*
X155029359Y-87200800D01*
X154913050Y-86616075D01*
X154581830Y-86120370D01*
X154298119Y-85930800D01*
X154581830Y-85741230D01*
X154885489Y-85286772D01*
X155872898Y-85286772D01*
X155872898Y-85897432D01*
X156106588Y-86461609D01*
X156538391Y-86893412D01*
X157102568Y-87127102D01*
X157713228Y-87127102D01*
X158277405Y-86893412D01*
X158476147Y-86694670D01*
X158965000Y-86694670D01*
X158965000Y-87305330D01*
X159198690Y-87869507D01*
X159630493Y-88301310D01*
X160194670Y-88535000D01*
X160805330Y-88535000D01*
X161369507Y-88301310D01*
X161801310Y-87869507D01*
X162035000Y-87305330D01*
X162035000Y-86694670D01*
X161801310Y-86130493D01*
X161369507Y-85698690D01*
X160805330Y-85465000D01*
X160194670Y-85465000D01*
X159630493Y-85698690D01*
X159198690Y-86130493D01*
X158965000Y-86694670D01*
X158476147Y-86694670D01*
X158709208Y-86461609D01*
X158942898Y-85897432D01*
X158942898Y-85286772D01*
X158709208Y-84722595D01*
X158277405Y-84290792D01*
X157713228Y-84057102D01*
X157102568Y-84057102D01*
X156538391Y-84290792D01*
X156106588Y-84722595D01*
X155872898Y-85286772D01*
X154885489Y-85286772D01*
X154913050Y-85245525D01*
X155029359Y-84660800D01*
X154913050Y-84076075D01*
X154581830Y-83580370D01*
X154298119Y-83390800D01*
X154581830Y-83201230D01*
X154913050Y-82705525D01*
X154979897Y-82369460D01*
X159479161Y-82369460D01*
X159736314Y-82923336D01*
X160185852Y-83336643D01*
X160630540Y-83520839D01*
X160873000Y-83400576D01*
X160873000Y-82127000D01*
X161127000Y-82127000D01*
X161127000Y-83400576D01*
X161369460Y-83520839D01*
X161923336Y-83263686D01*
X162336643Y-82814148D01*
X162520839Y-82369460D01*
X162400576Y-82127000D01*
X161127000Y-82127000D01*
X160873000Y-82127000D01*
X159599424Y-82127000D01*
X159479161Y-82369460D01*
X154979897Y-82369460D01*
X155029359Y-82120800D01*
X154931841Y-81630540D01*
X159479161Y-81630540D01*
X159599424Y-81873000D01*
X160873000Y-81873000D01*
X160873000Y-80599424D01*
X161127000Y-80599424D01*
X161127000Y-81873000D01*
X162400576Y-81873000D01*
X162520839Y-81630540D01*
X162263686Y-81076664D01*
X161814148Y-80663357D01*
X161369460Y-80479161D01*
X161127000Y-80599424D01*
X160873000Y-80599424D01*
X160630540Y-80479161D01*
X160076664Y-80736314D01*
X159663357Y-81185852D01*
X159479161Y-81630540D01*
X154931841Y-81630540D01*
X154913050Y-81536075D01*
X154581830Y-81040370D01*
X154298119Y-80850800D01*
X154581830Y-80661230D01*
X154913050Y-80165525D01*
X155029359Y-79580800D01*
X154913050Y-78996075D01*
X154581830Y-78500370D01*
X154298119Y-78310800D01*
X154581830Y-78121230D01*
X154913050Y-77625525D01*
X155029359Y-77040800D01*
X154943210Y-76607700D01*
X161717099Y-76607700D01*
X163102461Y-77993062D01*
X163102461Y-77993062D01*
G37*
X163102461Y-77993062D02*
X163057102Y-78102568D01*
X163057102Y-78713228D01*
X163290792Y-79277405D01*
X163722595Y-79709208D01*
X164286772Y-79942898D01*
X164897432Y-79942898D01*
X165006938Y-79897539D01*
X166940001Y-81830604D01*
X166940000Y-84532054D01*
X166740414Y-84665414D01*
X166545873Y-84956564D01*
X166477560Y-85299999D01*
X166477560Y-86200001D01*
X166545873Y-86543436D01*
X166740414Y-86834586D01*
X167031564Y-87029127D01*
X167306106Y-87083736D01*
X161125000Y-93264843D01*
X159173459Y-91313302D01*
X159185000Y-91285439D01*
X159185000Y-90714561D01*
X158966534Y-90187138D01*
X158562862Y-89783466D01*
X158035439Y-89565000D01*
X157464561Y-89565000D01*
X156937138Y-89783466D01*
X156603897Y-90116707D01*
X156496429Y-89955871D01*
X156432973Y-89913471D01*
X154669510Y-88150008D01*
X154913050Y-87785525D01*
X155029359Y-87200800D01*
X154913050Y-86616075D01*
X154581830Y-86120370D01*
X154298119Y-85930800D01*
X154581830Y-85741230D01*
X154885489Y-85286772D01*
X155872898Y-85286772D01*
X155872898Y-85897432D01*
X156106588Y-86461609D01*
X156538391Y-86893412D01*
X157102568Y-87127102D01*
X157713228Y-87127102D01*
X158277405Y-86893412D01*
X158476147Y-86694670D01*
X158965000Y-86694670D01*
X158965000Y-87305330D01*
X159198690Y-87869507D01*
X159630493Y-88301310D01*
X160194670Y-88535000D01*
X160805330Y-88535000D01*
X161369507Y-88301310D01*
X161801310Y-87869507D01*
X162035000Y-87305330D01*
X162035000Y-86694670D01*
X161801310Y-86130493D01*
X161369507Y-85698690D01*
X160805330Y-85465000D01*
X160194670Y-85465000D01*
X159630493Y-85698690D01*
X159198690Y-86130493D01*
X158965000Y-86694670D01*
X158476147Y-86694670D01*
X158709208Y-86461609D01*
X158942898Y-85897432D01*
X158942898Y-85286772D01*
X158709208Y-84722595D01*
X158277405Y-84290792D01*
X157713228Y-84057102D01*
X157102568Y-84057102D01*
X156538391Y-84290792D01*
X156106588Y-84722595D01*
X155872898Y-85286772D01*
X154885489Y-85286772D01*
X154913050Y-85245525D01*
X155029359Y-84660800D01*
X154913050Y-84076075D01*
X154581830Y-83580370D01*
X154298119Y-83390800D01*
X154581830Y-83201230D01*
X154913050Y-82705525D01*
X154979897Y-82369460D01*
X159479161Y-82369460D01*
X159736314Y-82923336D01*
X160185852Y-83336643D01*
X160630540Y-83520839D01*
X160873000Y-83400576D01*
X160873000Y-82127000D01*
X161127000Y-82127000D01*
X161127000Y-83400576D01*
X161369460Y-83520839D01*
X161923336Y-83263686D01*
X162336643Y-82814148D01*
X162520839Y-82369460D01*
X162400576Y-82127000D01*
X161127000Y-82127000D01*
X160873000Y-82127000D01*
X159599424Y-82127000D01*
X159479161Y-82369460D01*
X154979897Y-82369460D01*
X155029359Y-82120800D01*
X154931841Y-81630540D01*
X159479161Y-81630540D01*
X159599424Y-81873000D01*
X160873000Y-81873000D01*
X160873000Y-80599424D01*
X161127000Y-80599424D01*
X161127000Y-81873000D01*
X162400576Y-81873000D01*
X162520839Y-81630540D01*
X162263686Y-81076664D01*
X161814148Y-80663357D01*
X161369460Y-80479161D01*
X161127000Y-80599424D01*
X160873000Y-80599424D01*
X160630540Y-80479161D01*
X160076664Y-80736314D01*
X159663357Y-81185852D01*
X159479161Y-81630540D01*
X154931841Y-81630540D01*
X154913050Y-81536075D01*
X154581830Y-81040370D01*
X154298119Y-80850800D01*
X154581830Y-80661230D01*
X154913050Y-80165525D01*
X155029359Y-79580800D01*
X154913050Y-78996075D01*
X154581830Y-78500370D01*
X154298119Y-78310800D01*
X154581830Y-78121230D01*
X154913050Y-77625525D01*
X155029359Y-77040800D01*
X154943210Y-76607700D01*
X161717099Y-76607700D01*
X163102461Y-77993062D01*
G36*
X120614951Y-83500408D02*
X120658747Y-83565953D01*
X120918408Y-83739454D01*
X121037191Y-83763081D01*
X121117191Y-83882809D01*
X121327235Y-84023157D01*
X121575000Y-84072440D01*
X122425000Y-84072440D01*
X122672765Y-84023157D01*
X122681394Y-84017392D01*
X122895602Y-84060000D01*
X123104398Y-84060000D01*
X123413591Y-83998498D01*
X123500000Y-83940761D01*
X123586409Y-83998498D01*
X123895602Y-84060000D01*
X124104398Y-84060000D01*
X124413591Y-83998498D01*
X124507545Y-83935720D01*
X124709938Y-84019540D01*
X124873000Y-83892257D01*
X124873000Y-83601412D01*
X124998498Y-83413591D01*
X125078837Y-83009700D01*
X125147000Y-83009700D01*
X125147000Y-83127000D01*
X125127000Y-83127000D01*
X125127000Y-83892257D01*
X125290062Y-84019540D01*
X125515826Y-83926041D01*
X125830942Y-83658152D01*
X126019554Y-83290065D01*
X125893630Y-83127002D01*
X126060000Y-83127002D01*
X126060000Y-83009700D01*
X127102325Y-83009700D01*
X126868242Y-83243783D01*
X126665000Y-83734452D01*
X126665000Y-84265548D01*
X126868242Y-84756217D01*
X127243783Y-85131758D01*
X127734452Y-85335000D01*
X128265548Y-85335000D01*
X128756217Y-85131758D01*
X129131758Y-84756217D01*
X129335000Y-84265548D01*
X129335000Y-83734452D01*
X129131758Y-83243783D01*
X128756217Y-82868242D01*
X128367550Y-82707251D01*
X128739801Y-82335000D01*
X129265548Y-82335000D01*
X129756217Y-82131758D01*
X130131758Y-81756217D01*
X130335000Y-81265548D01*
X130335000Y-81115932D01*
X130458998Y-81222776D01*
X130540193Y-81274702D01*
X130620716Y-81327596D01*
X130628586Y-81331232D01*
X130628589Y-81331234D01*
X130628592Y-81331235D01*
X131144799Y-81565940D01*
X131237278Y-81592983D01*
X131329435Y-81621158D01*
X131338012Y-81622440D01*
X131338014Y-81622440D01*
X131880334Y-81700106D01*
X131930074Y-81710000D01*
X136150342Y-81710000D01*
X131710097Y-86150246D01*
X131642355Y-85986703D01*
X131263297Y-85607645D01*
X130768034Y-85402500D01*
X130231966Y-85402500D01*
X129736703Y-85607645D01*
X129357645Y-85986703D01*
X129152500Y-86481966D01*
X129152500Y-87018034D01*
X129357645Y-87513297D01*
X129736703Y-87892355D01*
X130028708Y-88013307D01*
X129798645Y-88108603D01*
X129735268Y-88345663D01*
X130500000Y-89110395D01*
X130514143Y-89096253D01*
X130693748Y-89275858D01*
X130679605Y-89290000D01*
X130693748Y-89304143D01*
X130514143Y-89483748D01*
X130500000Y-89469605D01*
X129735268Y-90234337D01*
X129798645Y-90471397D01*
X130047044Y-90559097D01*
X129736703Y-90687645D01*
X129357645Y-91066703D01*
X129356279Y-91070000D01*
X128745102Y-91070000D01*
X127265631Y-89590530D01*
X127223229Y-89527071D01*
X126971837Y-89359096D01*
X126834224Y-89331723D01*
X126807809Y-89292191D01*
X126597765Y-89151843D01*
X126350000Y-89102560D01*
X125300000Y-89102560D01*
X125052235Y-89151843D01*
X124842191Y-89292191D01*
X124826950Y-89315000D01*
X122673050Y-89315000D01*
X122657809Y-89292191D01*
X122447765Y-89151843D01*
X122200000Y-89102560D01*
X121150000Y-89102560D01*
X120902235Y-89151843D01*
X120692191Y-89292191D01*
X120551843Y-89502235D01*
X120502560Y-89750000D01*
X120502560Y-90400000D01*
X120548783Y-90632382D01*
X119010535Y-89094134D01*
X129140134Y-89094134D01*
X129168693Y-89629442D01*
X129318603Y-89991355D01*
X129555663Y-90054732D01*
X130320395Y-89290000D01*
X129555663Y-88525268D01*
X129318603Y-88588645D01*
X129140134Y-89094134D01*
X119010535Y-89094134D01*
X118127151Y-88210750D01*
X120515000Y-88210750D01*
X120515000Y-88376310D01*
X120611673Y-88609699D01*
X120790302Y-88788327D01*
X121023691Y-88885000D01*
X121389250Y-88885000D01*
X121548000Y-88726250D01*
X121548000Y-88052000D01*
X121802000Y-88052000D01*
X121802000Y-88726250D01*
X121960750Y-88885000D01*
X122326309Y-88885000D01*
X122559698Y-88788327D01*
X122738327Y-88609699D01*
X122835000Y-88376310D01*
X122835000Y-88210750D01*
X124665000Y-88210750D01*
X124665000Y-88376310D01*
X124761673Y-88609699D01*
X124940302Y-88788327D01*
X125173691Y-88885000D01*
X125539250Y-88885000D01*
X125698000Y-88726250D01*
X125698000Y-88052000D01*
X125952000Y-88052000D01*
X125952000Y-88726250D01*
X126110750Y-88885000D01*
X126476309Y-88885000D01*
X126709698Y-88788327D01*
X126888327Y-88609699D01*
X126985000Y-88376310D01*
X126985000Y-88210750D01*
X126826250Y-88052000D01*
X125952000Y-88052000D01*
X125698000Y-88052000D01*
X124823750Y-88052000D01*
X124665000Y-88210750D01*
X122835000Y-88210750D01*
X122676250Y-88052000D01*
X121802000Y-88052000D01*
X121548000Y-88052000D01*
X120673750Y-88052000D01*
X120515000Y-88210750D01*
X118127151Y-88210750D01*
X117760700Y-87844299D01*
X117760700Y-87473690D01*
X120515000Y-87473690D01*
X120515000Y-87639250D01*
X120673750Y-87798000D01*
X121548000Y-87798000D01*
X121548000Y-87123750D01*
X121802000Y-87123750D01*
X121802000Y-87798000D01*
X122676250Y-87798000D01*
X122835000Y-87639250D01*
X122835000Y-87473690D01*
X124665000Y-87473690D01*
X124665000Y-87639250D01*
X124823750Y-87798000D01*
X125698000Y-87798000D01*
X125698000Y-87123750D01*
X125952000Y-87123750D01*
X125952000Y-87798000D01*
X126826250Y-87798000D01*
X126985000Y-87639250D01*
X126985000Y-87473690D01*
X126888327Y-87240301D01*
X126709698Y-87061673D01*
X126476309Y-86965000D01*
X126110750Y-86965000D01*
X125952000Y-87123750D01*
X125698000Y-87123750D01*
X125539250Y-86965000D01*
X125173691Y-86965000D01*
X124940302Y-87061673D01*
X124761673Y-87240301D01*
X124665000Y-87473690D01*
X122835000Y-87473690D01*
X122738327Y-87240301D01*
X122559698Y-87061673D01*
X122326309Y-86965000D01*
X121960750Y-86965000D01*
X121802000Y-87123750D01*
X121548000Y-87123750D01*
X121389250Y-86965000D01*
X121023691Y-86965000D01*
X120790302Y-87061673D01*
X120611673Y-87240301D01*
X120515000Y-87473690D01*
X117760700Y-87473690D01*
X117760700Y-81183011D01*
X117878131Y-81065580D01*
X117966582Y-80852039D01*
X120614951Y-83500408D01*
X120614951Y-83500408D01*
G37*
X120614951Y-83500408D02*
X120658747Y-83565953D01*
X120918408Y-83739454D01*
X121037191Y-83763081D01*
X121117191Y-83882809D01*
X121327235Y-84023157D01*
X121575000Y-84072440D01*
X122425000Y-84072440D01*
X122672765Y-84023157D01*
X122681394Y-84017392D01*
X122895602Y-84060000D01*
X123104398Y-84060000D01*
X123413591Y-83998498D01*
X123500000Y-83940761D01*
X123586409Y-83998498D01*
X123895602Y-84060000D01*
X124104398Y-84060000D01*
X124413591Y-83998498D01*
X124507545Y-83935720D01*
X124709938Y-84019540D01*
X124873000Y-83892257D01*
X124873000Y-83601412D01*
X124998498Y-83413591D01*
X125078837Y-83009700D01*
X125147000Y-83009700D01*
X125147000Y-83127000D01*
X125127000Y-83127000D01*
X125127000Y-83892257D01*
X125290062Y-84019540D01*
X125515826Y-83926041D01*
X125830942Y-83658152D01*
X126019554Y-83290065D01*
X125893630Y-83127002D01*
X126060000Y-83127002D01*
X126060000Y-83009700D01*
X127102325Y-83009700D01*
X126868242Y-83243783D01*
X126665000Y-83734452D01*
X126665000Y-84265548D01*
X126868242Y-84756217D01*
X127243783Y-85131758D01*
X127734452Y-85335000D01*
X128265548Y-85335000D01*
X128756217Y-85131758D01*
X129131758Y-84756217D01*
X129335000Y-84265548D01*
X129335000Y-83734452D01*
X129131758Y-83243783D01*
X128756217Y-82868242D01*
X128367550Y-82707251D01*
X128739801Y-82335000D01*
X129265548Y-82335000D01*
X129756217Y-82131758D01*
X130131758Y-81756217D01*
X130335000Y-81265548D01*
X130335000Y-81115932D01*
X130458998Y-81222776D01*
X130540193Y-81274702D01*
X130620716Y-81327596D01*
X130628586Y-81331232D01*
X130628589Y-81331234D01*
X130628592Y-81331235D01*
X131144799Y-81565940D01*
X131237278Y-81592983D01*
X131329435Y-81621158D01*
X131338012Y-81622440D01*
X131338014Y-81622440D01*
X131880334Y-81700106D01*
X131930074Y-81710000D01*
X136150342Y-81710000D01*
X131710097Y-86150246D01*
X131642355Y-85986703D01*
X131263297Y-85607645D01*
X130768034Y-85402500D01*
X130231966Y-85402500D01*
X129736703Y-85607645D01*
X129357645Y-85986703D01*
X129152500Y-86481966D01*
X129152500Y-87018034D01*
X129357645Y-87513297D01*
X129736703Y-87892355D01*
X130028708Y-88013307D01*
X129798645Y-88108603D01*
X129735268Y-88345663D01*
X130500000Y-89110395D01*
X130514143Y-89096253D01*
X130693748Y-89275858D01*
X130679605Y-89290000D01*
X130693748Y-89304143D01*
X130514143Y-89483748D01*
X130500000Y-89469605D01*
X129735268Y-90234337D01*
X129798645Y-90471397D01*
X130047044Y-90559097D01*
X129736703Y-90687645D01*
X129357645Y-91066703D01*
X129356279Y-91070000D01*
X128745102Y-91070000D01*
X127265631Y-89590530D01*
X127223229Y-89527071D01*
X126971837Y-89359096D01*
X126834224Y-89331723D01*
X126807809Y-89292191D01*
X126597765Y-89151843D01*
X126350000Y-89102560D01*
X125300000Y-89102560D01*
X125052235Y-89151843D01*
X124842191Y-89292191D01*
X124826950Y-89315000D01*
X122673050Y-89315000D01*
X122657809Y-89292191D01*
X122447765Y-89151843D01*
X122200000Y-89102560D01*
X121150000Y-89102560D01*
X120902235Y-89151843D01*
X120692191Y-89292191D01*
X120551843Y-89502235D01*
X120502560Y-89750000D01*
X120502560Y-90400000D01*
X120548783Y-90632382D01*
X119010535Y-89094134D01*
X129140134Y-89094134D01*
X129168693Y-89629442D01*
X129318603Y-89991355D01*
X129555663Y-90054732D01*
X130320395Y-89290000D01*
X129555663Y-88525268D01*
X129318603Y-88588645D01*
X129140134Y-89094134D01*
X119010535Y-89094134D01*
X118127151Y-88210750D01*
X120515000Y-88210750D01*
X120515000Y-88376310D01*
X120611673Y-88609699D01*
X120790302Y-88788327D01*
X121023691Y-88885000D01*
X121389250Y-88885000D01*
X121548000Y-88726250D01*
X121548000Y-88052000D01*
X121802000Y-88052000D01*
X121802000Y-88726250D01*
X121960750Y-88885000D01*
X122326309Y-88885000D01*
X122559698Y-88788327D01*
X122738327Y-88609699D01*
X122835000Y-88376310D01*
X122835000Y-88210750D01*
X124665000Y-88210750D01*
X124665000Y-88376310D01*
X124761673Y-88609699D01*
X124940302Y-88788327D01*
X125173691Y-88885000D01*
X125539250Y-88885000D01*
X125698000Y-88726250D01*
X125698000Y-88052000D01*
X125952000Y-88052000D01*
X125952000Y-88726250D01*
X126110750Y-88885000D01*
X126476309Y-88885000D01*
X126709698Y-88788327D01*
X126888327Y-88609699D01*
X126985000Y-88376310D01*
X126985000Y-88210750D01*
X126826250Y-88052000D01*
X125952000Y-88052000D01*
X125698000Y-88052000D01*
X124823750Y-88052000D01*
X124665000Y-88210750D01*
X122835000Y-88210750D01*
X122676250Y-88052000D01*
X121802000Y-88052000D01*
X121548000Y-88052000D01*
X120673750Y-88052000D01*
X120515000Y-88210750D01*
X118127151Y-88210750D01*
X117760700Y-87844299D01*
X117760700Y-87473690D01*
X120515000Y-87473690D01*
X120515000Y-87639250D01*
X120673750Y-87798000D01*
X121548000Y-87798000D01*
X121548000Y-87123750D01*
X121802000Y-87123750D01*
X121802000Y-87798000D01*
X122676250Y-87798000D01*
X122835000Y-87639250D01*
X122835000Y-87473690D01*
X124665000Y-87473690D01*
X124665000Y-87639250D01*
X124823750Y-87798000D01*
X125698000Y-87798000D01*
X125698000Y-87123750D01*
X125952000Y-87123750D01*
X125952000Y-87798000D01*
X126826250Y-87798000D01*
X126985000Y-87639250D01*
X126985000Y-87473690D01*
X126888327Y-87240301D01*
X126709698Y-87061673D01*
X126476309Y-86965000D01*
X126110750Y-86965000D01*
X125952000Y-87123750D01*
X125698000Y-87123750D01*
X125539250Y-86965000D01*
X125173691Y-86965000D01*
X124940302Y-87061673D01*
X124761673Y-87240301D01*
X124665000Y-87473690D01*
X122835000Y-87473690D01*
X122738327Y-87240301D01*
X122559698Y-87061673D01*
X122326309Y-86965000D01*
X121960750Y-86965000D01*
X121802000Y-87123750D01*
X121548000Y-87123750D01*
X121389250Y-86965000D01*
X121023691Y-86965000D01*
X120790302Y-87061673D01*
X120611673Y-87240301D01*
X120515000Y-87473690D01*
X117760700Y-87473690D01*
X117760700Y-81183011D01*
X117878131Y-81065580D01*
X117966582Y-80852039D01*
X120614951Y-83500408D01*
G04 #@! TD*
M02*
