G04 #@! TF.GenerationSoftware,KiCad,Pcbnew,(5.0.0)*
G04 #@! TF.CreationDate,2018-11-06T14:21:20+09:00*
G04 #@! TF.ProjectId,handheld_machine_back,68616E6468656C645F6D616368696E65,rev?*
G04 #@! TF.SameCoordinates,Original*
G04 #@! TF.FileFunction,Legend,Top*
G04 #@! TF.FilePolarity,Positive*
%FSLAX46Y46*%
G04 Gerber Fmt 4.6, Leading zero omitted, Abs format (unit mm)*
G04 Created by KiCad (PCBNEW (5.0.0)) date 11/06/18 14:21:20*
%MOMM*%
%LPD*%
G01*
G04 APERTURE LIST*
%ADD10C,0.100000*%
%ADD11C,0.150000*%
%ADD12C,0.120000*%
%ADD13C,0.200000*%
%ADD14C,0.010000*%
G04 APERTURE END LIST*
D10*
X146826904Y-123226190D02*
X146826904Y-123583333D01*
X146803095Y-123654761D01*
X146755476Y-123702380D01*
X146684047Y-123726190D01*
X146636428Y-123726190D01*
X147160238Y-123226190D02*
X147255476Y-123226190D01*
X147303095Y-123250000D01*
X147350714Y-123297619D01*
X147374523Y-123392857D01*
X147374523Y-123559523D01*
X147350714Y-123654761D01*
X147303095Y-123702380D01*
X147255476Y-123726190D01*
X147160238Y-123726190D01*
X147112619Y-123702380D01*
X147065000Y-123654761D01*
X147041190Y-123559523D01*
X147041190Y-123392857D01*
X147065000Y-123297619D01*
X147112619Y-123250000D01*
X147160238Y-123226190D01*
X147684047Y-123488095D02*
X147684047Y-123726190D01*
X147517380Y-123226190D02*
X147684047Y-123488095D01*
X147850714Y-123226190D01*
X148231666Y-123392857D02*
X148231666Y-123726190D01*
X148112619Y-123202380D02*
X147993571Y-123559523D01*
X148303095Y-123559523D01*
X148660238Y-123464285D02*
X148731666Y-123488095D01*
X148755476Y-123511904D01*
X148779285Y-123559523D01*
X148779285Y-123630952D01*
X148755476Y-123678571D01*
X148731666Y-123702380D01*
X148684047Y-123726190D01*
X148493571Y-123726190D01*
X148493571Y-123226190D01*
X148660238Y-123226190D01*
X148707857Y-123250000D01*
X148731666Y-123273809D01*
X148755476Y-123321428D01*
X148755476Y-123369047D01*
X148731666Y-123416666D01*
X148707857Y-123440476D01*
X148660238Y-123464285D01*
X148493571Y-123464285D01*
X148874523Y-123773809D02*
X149255476Y-123773809D01*
X149374523Y-123726190D02*
X149374523Y-123226190D01*
X149660238Y-123726190D01*
X149660238Y-123226190D01*
X149993571Y-123226190D02*
X150088809Y-123226190D01*
X150136428Y-123250000D01*
X150184047Y-123297619D01*
X150207857Y-123392857D01*
X150207857Y-123559523D01*
X150184047Y-123654761D01*
X150136428Y-123702380D01*
X150088809Y-123726190D01*
X149993571Y-123726190D01*
X149945952Y-123702380D01*
X149898333Y-123654761D01*
X149874523Y-123559523D01*
X149874523Y-123392857D01*
X149898333Y-123297619D01*
X149945952Y-123250000D01*
X149993571Y-123226190D01*
X150398333Y-123583333D02*
X150636428Y-123583333D01*
X150350714Y-123726190D02*
X150517380Y-123226190D01*
X150684047Y-123726190D01*
X150850714Y-123726190D02*
X150850714Y-123226190D01*
X150969761Y-123226190D01*
X151041190Y-123250000D01*
X151088809Y-123297619D01*
X151112619Y-123345238D01*
X151136428Y-123440476D01*
X151136428Y-123511904D01*
X151112619Y-123607142D01*
X151088809Y-123654761D01*
X151041190Y-123702380D01*
X150969761Y-123726190D01*
X150850714Y-123726190D01*
X151636428Y-123678571D02*
X151612619Y-123702380D01*
X151541190Y-123726190D01*
X151493571Y-123726190D01*
X151422142Y-123702380D01*
X151374523Y-123654761D01*
X151350714Y-123607142D01*
X151326904Y-123511904D01*
X151326904Y-123440476D01*
X151350714Y-123345238D01*
X151374523Y-123297619D01*
X151422142Y-123250000D01*
X151493571Y-123226190D01*
X151541190Y-123226190D01*
X151612619Y-123250000D01*
X151636428Y-123273809D01*
X146826904Y-124226190D02*
X146826904Y-124583333D01*
X146803095Y-124654761D01*
X146755476Y-124702380D01*
X146684047Y-124726190D01*
X146636428Y-124726190D01*
X147160238Y-124226190D02*
X147255476Y-124226190D01*
X147303095Y-124250000D01*
X147350714Y-124297619D01*
X147374523Y-124392857D01*
X147374523Y-124559523D01*
X147350714Y-124654761D01*
X147303095Y-124702380D01*
X147255476Y-124726190D01*
X147160238Y-124726190D01*
X147112619Y-124702380D01*
X147065000Y-124654761D01*
X147041190Y-124559523D01*
X147041190Y-124392857D01*
X147065000Y-124297619D01*
X147112619Y-124250000D01*
X147160238Y-124226190D01*
X147684047Y-124488095D02*
X147684047Y-124726190D01*
X147517380Y-124226190D02*
X147684047Y-124488095D01*
X147850714Y-124226190D01*
X148231666Y-124392857D02*
X148231666Y-124726190D01*
X148112619Y-124202380D02*
X147993571Y-124559523D01*
X148303095Y-124559523D01*
X148469761Y-124583333D02*
X148707857Y-124583333D01*
X148422142Y-124726190D02*
X148588809Y-124226190D01*
X148755476Y-124726190D01*
X148803095Y-124773809D02*
X149184047Y-124773809D01*
X149303095Y-124726190D02*
X149303095Y-124226190D01*
X149588809Y-124726190D01*
X149588809Y-124226190D01*
X149922142Y-124226190D02*
X150017380Y-124226190D01*
X150065000Y-124250000D01*
X150112619Y-124297619D01*
X150136428Y-124392857D01*
X150136428Y-124559523D01*
X150112619Y-124654761D01*
X150065000Y-124702380D01*
X150017380Y-124726190D01*
X149922142Y-124726190D01*
X149874523Y-124702380D01*
X149826904Y-124654761D01*
X149803095Y-124559523D01*
X149803095Y-124392857D01*
X149826904Y-124297619D01*
X149874523Y-124250000D01*
X149922142Y-124226190D01*
X150326904Y-124583333D02*
X150565000Y-124583333D01*
X150279285Y-124726190D02*
X150445952Y-124226190D01*
X150612619Y-124726190D01*
X150779285Y-124726190D02*
X150779285Y-124226190D01*
X150898333Y-124226190D01*
X150969761Y-124250000D01*
X151017380Y-124297619D01*
X151041190Y-124345238D01*
X151065000Y-124440476D01*
X151065000Y-124511904D01*
X151041190Y-124607142D01*
X151017380Y-124654761D01*
X150969761Y-124702380D01*
X150898333Y-124726190D01*
X150779285Y-124726190D01*
X151565000Y-124678571D02*
X151541190Y-124702380D01*
X151469761Y-124726190D01*
X151422142Y-124726190D01*
X151350714Y-124702380D01*
X151303095Y-124654761D01*
X151279285Y-124607142D01*
X151255476Y-124511904D01*
X151255476Y-124440476D01*
X151279285Y-124345238D01*
X151303095Y-124297619D01*
X151350714Y-124250000D01*
X151422142Y-124226190D01*
X151469761Y-124226190D01*
X151541190Y-124250000D01*
X151565000Y-124273809D01*
X146826904Y-125726190D02*
X146826904Y-126083333D01*
X146803095Y-126154761D01*
X146755476Y-126202380D01*
X146684047Y-126226190D01*
X146636428Y-126226190D01*
X147160238Y-125726190D02*
X147255476Y-125726190D01*
X147303095Y-125750000D01*
X147350714Y-125797619D01*
X147374523Y-125892857D01*
X147374523Y-126059523D01*
X147350714Y-126154761D01*
X147303095Y-126202380D01*
X147255476Y-126226190D01*
X147160238Y-126226190D01*
X147112619Y-126202380D01*
X147065000Y-126154761D01*
X147041190Y-126059523D01*
X147041190Y-125892857D01*
X147065000Y-125797619D01*
X147112619Y-125750000D01*
X147160238Y-125726190D01*
X147684047Y-125988095D02*
X147684047Y-126226190D01*
X147517380Y-125726190D02*
X147684047Y-125988095D01*
X147850714Y-125726190D01*
X148279285Y-126226190D02*
X147993571Y-126226190D01*
X148136428Y-126226190D02*
X148136428Y-125726190D01*
X148088809Y-125797619D01*
X148041190Y-125845238D01*
X147993571Y-125869047D01*
X148660238Y-125964285D02*
X148731666Y-125988095D01*
X148755476Y-126011904D01*
X148779285Y-126059523D01*
X148779285Y-126130952D01*
X148755476Y-126178571D01*
X148731666Y-126202380D01*
X148684047Y-126226190D01*
X148493571Y-126226190D01*
X148493571Y-125726190D01*
X148660238Y-125726190D01*
X148707857Y-125750000D01*
X148731666Y-125773809D01*
X148755476Y-125821428D01*
X148755476Y-125869047D01*
X148731666Y-125916666D01*
X148707857Y-125940476D01*
X148660238Y-125964285D01*
X148493571Y-125964285D01*
X148874523Y-126273809D02*
X149255476Y-126273809D01*
X149374523Y-126226190D02*
X149374523Y-125726190D01*
X149660238Y-126226190D01*
X149660238Y-125726190D01*
X149993571Y-125726190D02*
X150088809Y-125726190D01*
X150136428Y-125750000D01*
X150184047Y-125797619D01*
X150207857Y-125892857D01*
X150207857Y-126059523D01*
X150184047Y-126154761D01*
X150136428Y-126202380D01*
X150088809Y-126226190D01*
X149993571Y-126226190D01*
X149945952Y-126202380D01*
X149898333Y-126154761D01*
X149874523Y-126059523D01*
X149874523Y-125892857D01*
X149898333Y-125797619D01*
X149945952Y-125750000D01*
X149993571Y-125726190D01*
X150398333Y-126083333D02*
X150636428Y-126083333D01*
X150350714Y-126226190D02*
X150517380Y-125726190D01*
X150684047Y-126226190D01*
X150850714Y-126226190D02*
X150850714Y-125726190D01*
X150969761Y-125726190D01*
X151041190Y-125750000D01*
X151088809Y-125797619D01*
X151112619Y-125845238D01*
X151136428Y-125940476D01*
X151136428Y-126011904D01*
X151112619Y-126107142D01*
X151088809Y-126154761D01*
X151041190Y-126202380D01*
X150969761Y-126226190D01*
X150850714Y-126226190D01*
X151636428Y-126178571D02*
X151612619Y-126202380D01*
X151541190Y-126226190D01*
X151493571Y-126226190D01*
X151422142Y-126202380D01*
X151374523Y-126154761D01*
X151350714Y-126107142D01*
X151326904Y-126011904D01*
X151326904Y-125940476D01*
X151350714Y-125845238D01*
X151374523Y-125797619D01*
X151422142Y-125750000D01*
X151493571Y-125726190D01*
X151541190Y-125726190D01*
X151612619Y-125750000D01*
X151636428Y-125773809D01*
X146826904Y-126726190D02*
X146826904Y-127083333D01*
X146803095Y-127154761D01*
X146755476Y-127202380D01*
X146684047Y-127226190D01*
X146636428Y-127226190D01*
X147160238Y-126726190D02*
X147255476Y-126726190D01*
X147303095Y-126750000D01*
X147350714Y-126797619D01*
X147374523Y-126892857D01*
X147374523Y-127059523D01*
X147350714Y-127154761D01*
X147303095Y-127202380D01*
X147255476Y-127226190D01*
X147160238Y-127226190D01*
X147112619Y-127202380D01*
X147065000Y-127154761D01*
X147041190Y-127059523D01*
X147041190Y-126892857D01*
X147065000Y-126797619D01*
X147112619Y-126750000D01*
X147160238Y-126726190D01*
X147684047Y-126988095D02*
X147684047Y-127226190D01*
X147517380Y-126726190D02*
X147684047Y-126988095D01*
X147850714Y-126726190D01*
X148279285Y-127226190D02*
X147993571Y-127226190D01*
X148136428Y-127226190D02*
X148136428Y-126726190D01*
X148088809Y-126797619D01*
X148041190Y-126845238D01*
X147993571Y-126869047D01*
X148469761Y-127083333D02*
X148707857Y-127083333D01*
X148422142Y-127226190D02*
X148588809Y-126726190D01*
X148755476Y-127226190D01*
X148803095Y-127273809D02*
X149184047Y-127273809D01*
X149303095Y-127226190D02*
X149303095Y-126726190D01*
X149588809Y-127226190D01*
X149588809Y-126726190D01*
X149922142Y-126726190D02*
X150017380Y-126726190D01*
X150065000Y-126750000D01*
X150112619Y-126797619D01*
X150136428Y-126892857D01*
X150136428Y-127059523D01*
X150112619Y-127154761D01*
X150065000Y-127202380D01*
X150017380Y-127226190D01*
X149922142Y-127226190D01*
X149874523Y-127202380D01*
X149826904Y-127154761D01*
X149803095Y-127059523D01*
X149803095Y-126892857D01*
X149826904Y-126797619D01*
X149874523Y-126750000D01*
X149922142Y-126726190D01*
X150326904Y-127083333D02*
X150565000Y-127083333D01*
X150279285Y-127226190D02*
X150445952Y-126726190D01*
X150612619Y-127226190D01*
X150779285Y-127226190D02*
X150779285Y-126726190D01*
X150898333Y-126726190D01*
X150969761Y-126750000D01*
X151017380Y-126797619D01*
X151041190Y-126845238D01*
X151065000Y-126940476D01*
X151065000Y-127011904D01*
X151041190Y-127107142D01*
X151017380Y-127154761D01*
X150969761Y-127202380D01*
X150898333Y-127226190D01*
X150779285Y-127226190D01*
X151565000Y-127178571D02*
X151541190Y-127202380D01*
X151469761Y-127226190D01*
X151422142Y-127226190D01*
X151350714Y-127202380D01*
X151303095Y-127154761D01*
X151279285Y-127107142D01*
X151255476Y-127011904D01*
X151255476Y-126940476D01*
X151279285Y-126845238D01*
X151303095Y-126797619D01*
X151350714Y-126750000D01*
X151422142Y-126726190D01*
X151469761Y-126726190D01*
X151541190Y-126750000D01*
X151565000Y-126773809D01*
X164636428Y-116839285D02*
X164207857Y-116839285D01*
X164422142Y-116839285D02*
X164422142Y-116089285D01*
X164350714Y-116196428D01*
X164279285Y-116267857D01*
X164207857Y-116303571D01*
X165100714Y-116089285D02*
X165172142Y-116089285D01*
X165243571Y-116125000D01*
X165279285Y-116160714D01*
X165315000Y-116232142D01*
X165350714Y-116375000D01*
X165350714Y-116553571D01*
X165315000Y-116696428D01*
X165279285Y-116767857D01*
X165243571Y-116803571D01*
X165172142Y-116839285D01*
X165100714Y-116839285D01*
X165029285Y-116803571D01*
X164993571Y-116767857D01*
X164957857Y-116696428D01*
X164922142Y-116553571D01*
X164922142Y-116375000D01*
X164957857Y-116232142D01*
X164993571Y-116160714D01*
X165029285Y-116125000D01*
X165100714Y-116089285D01*
X165672142Y-116839285D02*
X165672142Y-116089285D01*
X166100714Y-116839285D02*
X165779285Y-116410714D01*
X166100714Y-116089285D02*
X165672142Y-116517857D01*
X110636428Y-116839285D02*
X110207857Y-116839285D01*
X110422142Y-116839285D02*
X110422142Y-116089285D01*
X110350714Y-116196428D01*
X110279285Y-116267857D01*
X110207857Y-116303571D01*
X111100714Y-116089285D02*
X111172142Y-116089285D01*
X111243571Y-116125000D01*
X111279285Y-116160714D01*
X111315000Y-116232142D01*
X111350714Y-116375000D01*
X111350714Y-116553571D01*
X111315000Y-116696428D01*
X111279285Y-116767857D01*
X111243571Y-116803571D01*
X111172142Y-116839285D01*
X111100714Y-116839285D01*
X111029285Y-116803571D01*
X110993571Y-116767857D01*
X110957857Y-116696428D01*
X110922142Y-116553571D01*
X110922142Y-116375000D01*
X110957857Y-116232142D01*
X110993571Y-116160714D01*
X111029285Y-116125000D01*
X111100714Y-116089285D01*
X111672142Y-116839285D02*
X111672142Y-116089285D01*
X112100714Y-116839285D02*
X111779285Y-116410714D01*
X112100714Y-116089285D02*
X111672142Y-116517857D01*
X118660714Y-109743571D02*
X119410714Y-109743571D01*
X118875000Y-109993571D01*
X119410714Y-110243571D01*
X118660714Y-110243571D01*
X118732142Y-111029285D02*
X118696428Y-110993571D01*
X118660714Y-110886428D01*
X118660714Y-110815000D01*
X118696428Y-110707857D01*
X118767857Y-110636428D01*
X118839285Y-110600714D01*
X118982142Y-110565000D01*
X119089285Y-110565000D01*
X119232142Y-110600714D01*
X119303571Y-110636428D01*
X119375000Y-110707857D01*
X119410714Y-110815000D01*
X119410714Y-110886428D01*
X119375000Y-110993571D01*
X119339285Y-111029285D01*
X118660714Y-111350714D02*
X119410714Y-111350714D01*
X119410714Y-111636428D01*
X119375000Y-111707857D01*
X119339285Y-111743571D01*
X119267857Y-111779285D01*
X119160714Y-111779285D01*
X119089285Y-111743571D01*
X119053571Y-111707857D01*
X119017857Y-111636428D01*
X119017857Y-111350714D01*
X119410714Y-112029285D02*
X119410714Y-112493571D01*
X119125000Y-112243571D01*
X119125000Y-112350714D01*
X119089285Y-112422142D01*
X119053571Y-112457857D01*
X118982142Y-112493571D01*
X118803571Y-112493571D01*
X118732142Y-112457857D01*
X118696428Y-112422142D01*
X118660714Y-112350714D01*
X118660714Y-112136428D01*
X118696428Y-112065000D01*
X118732142Y-112029285D01*
X119339285Y-112779285D02*
X119375000Y-112815000D01*
X119410714Y-112886428D01*
X119410714Y-113065000D01*
X119375000Y-113136428D01*
X119339285Y-113172142D01*
X119267857Y-113207857D01*
X119196428Y-113207857D01*
X119089285Y-113172142D01*
X118660714Y-112743571D01*
X118660714Y-113207857D01*
X119410714Y-113672142D02*
X119410714Y-113743571D01*
X119375000Y-113815000D01*
X119339285Y-113850714D01*
X119267857Y-113886428D01*
X119125000Y-113922142D01*
X118946428Y-113922142D01*
X118803571Y-113886428D01*
X118732142Y-113850714D01*
X118696428Y-113815000D01*
X118660714Y-113743571D01*
X118660714Y-113672142D01*
X118696428Y-113600714D01*
X118732142Y-113565000D01*
X118803571Y-113529285D01*
X118946428Y-113493571D01*
X119125000Y-113493571D01*
X119267857Y-113529285D01*
X119339285Y-113565000D01*
X119375000Y-113600714D01*
X119410714Y-113672142D01*
X119089285Y-114350714D02*
X119125000Y-114279285D01*
X119160714Y-114243571D01*
X119232142Y-114207857D01*
X119267857Y-114207857D01*
X119339285Y-114243571D01*
X119375000Y-114279285D01*
X119410714Y-114350714D01*
X119410714Y-114493571D01*
X119375000Y-114565000D01*
X119339285Y-114600714D01*
X119267857Y-114636428D01*
X119232142Y-114636428D01*
X119160714Y-114600714D01*
X119125000Y-114565000D01*
X119089285Y-114493571D01*
X119089285Y-114350714D01*
X119053571Y-114279285D01*
X119017857Y-114243571D01*
X118946428Y-114207857D01*
X118803571Y-114207857D01*
X118732142Y-114243571D01*
X118696428Y-114279285D01*
X118660714Y-114350714D01*
X118660714Y-114493571D01*
X118696428Y-114565000D01*
X118732142Y-114600714D01*
X118803571Y-114636428D01*
X118946428Y-114636428D01*
X119017857Y-114600714D01*
X119053571Y-114565000D01*
X119089285Y-114493571D01*
D11*
G04 #@! TO.C,U4*
X113500000Y-131000000D02*
G75*
G03X113500000Y-131000000I-4000000J0D01*
G01*
G04 #@! TO.C,U3*
X170500000Y-131000000D02*
G75*
G03X170500000Y-131000000I-4000000J0D01*
G01*
G04 #@! TO.C,U2*
X170500000Y-93000000D02*
G75*
G03X170500000Y-93000000I-4000000J0D01*
G01*
G04 #@! TO.C,U1*
X113500000Y-93000000D02*
G75*
G03X113500000Y-93000000I-4000000J0D01*
G01*
D12*
G04 #@! TO.C,R1*
X164713748Y-115710000D02*
X165236252Y-115710000D01*
X164713748Y-114290000D02*
X165236252Y-114290000D01*
G04 #@! TO.C,R2*
X111261252Y-115710000D02*
X110738748Y-115710000D01*
X111261252Y-114290000D02*
X110738748Y-114290000D01*
D13*
G04 #@! TO.C,S1*
X102800000Y-103300000D02*
G75*
G03X102600000Y-103300000I-100000J0D01*
G01*
X102600000Y-103300000D02*
G75*
G03X102800000Y-103300000I100000J0D01*
G01*
X102600000Y-103300000D02*
X102600000Y-103300000D01*
X102800000Y-103300000D02*
X102800000Y-103300000D01*
D10*
X100550000Y-104550000D02*
X100550000Y-108050000D01*
X103450000Y-104550000D02*
X103450000Y-108100000D01*
G04 #@! TO.C,S2*
X172550000Y-107450000D02*
X172550000Y-103900000D01*
X175450000Y-107450000D02*
X175450000Y-103950000D01*
D13*
X173200000Y-108700000D02*
X173200000Y-108700000D01*
X173400000Y-108700000D02*
X173400000Y-108700000D01*
X173400000Y-108700000D02*
G75*
G03X173200000Y-108700000I-100000J0D01*
G01*
X173200000Y-108700000D02*
G75*
G03X173400000Y-108700000I100000J0D01*
G01*
D11*
G04 #@! TO.C,U5*
X121075000Y-117075000D02*
X121075000Y-117050000D01*
X116925000Y-117075000D02*
X116925000Y-116970000D01*
X116925000Y-106925000D02*
X116925000Y-107030000D01*
X121075000Y-106925000D02*
X121075000Y-107030000D01*
X121075000Y-117075000D02*
X116925000Y-117075000D01*
X121075000Y-106925000D02*
X116925000Y-106925000D01*
X121075000Y-117050000D02*
X122450000Y-117050000D01*
D12*
G04 #@! TO.C,C1*
X112290000Y-76738748D02*
X112290000Y-77261252D01*
X113710000Y-76738748D02*
X113710000Y-77261252D01*
G04 #@! TO.C,C2*
X137738748Y-141290000D02*
X138261252Y-141290000D01*
X137738748Y-142710000D02*
X138261252Y-142710000D01*
G04 #@! TO.C,C3*
X109290000Y-111738748D02*
X109290000Y-112261252D01*
X110710000Y-111738748D02*
X110710000Y-112261252D01*
G04 #@! TO.C,C4*
X166710000Y-111738748D02*
X166710000Y-112261252D01*
X165290000Y-111738748D02*
X165290000Y-112261252D01*
G04 #@! TO.C,D1*
X115350000Y-74500000D02*
X122650000Y-74500000D01*
X115350000Y-80000000D02*
X122650000Y-80000000D01*
X122650000Y-80000000D02*
X122650000Y-78850000D01*
G04 #@! TO.C,D2*
X141650000Y-149500000D02*
X141650000Y-148350000D01*
X134350000Y-149500000D02*
X141650000Y-149500000D01*
X134350000Y-144000000D02*
X141650000Y-144000000D01*
G04 #@! TO.C,D3*
X100850000Y-109291000D02*
X108150000Y-109291000D01*
X100850000Y-114791000D02*
X108150000Y-114791000D01*
X108150000Y-114791000D02*
X108150000Y-113641000D01*
G04 #@! TO.C,D4*
X175150000Y-114709000D02*
X175150000Y-113559000D01*
X167850000Y-114709000D02*
X175150000Y-114709000D01*
X167850000Y-109209000D02*
X175150000Y-109209000D01*
G04 #@! TO.C,J2*
X127435000Y-128940000D02*
X127435000Y-121060000D01*
X122965000Y-119890000D02*
X122965000Y-120940000D01*
X125465000Y-119890000D02*
X122965000Y-119890000D01*
X122965000Y-129060000D02*
X121975000Y-129060000D01*
X122965000Y-130110000D02*
X122965000Y-129060000D01*
X125465000Y-130110000D02*
X122965000Y-130110000D01*
G04 #@! TO.C,JP3*
X143600000Y-121000000D02*
X143600000Y-119000000D01*
X146400000Y-121000000D02*
X143600000Y-121000000D01*
X146400000Y-119000000D02*
X146400000Y-121000000D01*
X143600000Y-119000000D02*
X146400000Y-119000000D01*
G04 #@! TO.C,JP4*
X143600000Y-122500000D02*
X146400000Y-122500000D01*
X146400000Y-122500000D02*
X146400000Y-124500000D01*
X146400000Y-124500000D02*
X143600000Y-124500000D01*
X143600000Y-124500000D02*
X143600000Y-122500000D01*
G04 #@! TO.C,JP5*
X143600000Y-128000000D02*
X143600000Y-126000000D01*
X146400000Y-128000000D02*
X143600000Y-128000000D01*
X146400000Y-126000000D02*
X146400000Y-128000000D01*
X143600000Y-126000000D02*
X146400000Y-126000000D01*
G04 #@! TO.C,JP6*
X143600000Y-129500000D02*
X146400000Y-129500000D01*
X146400000Y-129500000D02*
X146400000Y-131500000D01*
X146400000Y-131500000D02*
X143600000Y-131500000D01*
X143600000Y-131500000D02*
X143600000Y-129500000D01*
G04 #@! TO.C,TP1*
X128050000Y-80050000D02*
X128050000Y-81950000D01*
X128050000Y-81950000D02*
X129900000Y-81950000D01*
X129900000Y-81950000D02*
X129900000Y-80100000D01*
X129900000Y-80100000D02*
X129900000Y-80050000D01*
X129900000Y-80050000D02*
X128050000Y-80050000D01*
G04 #@! TO.C,TP2*
X128900000Y-83050000D02*
X127050000Y-83050000D01*
X128900000Y-83100000D02*
X128900000Y-83050000D01*
X128900000Y-84950000D02*
X128900000Y-83100000D01*
X127050000Y-84950000D02*
X128900000Y-84950000D01*
X127050000Y-83050000D02*
X127050000Y-84950000D01*
G04 #@! TO.C,J6*
X164890000Y-146965000D02*
X165692470Y-146965000D01*
X166307530Y-146965000D02*
X167110000Y-146965000D01*
X164890000Y-145760000D02*
X164890000Y-146965000D01*
X167110000Y-145760000D02*
X167110000Y-146965000D01*
X164890000Y-145760000D02*
X165436529Y-145760000D01*
X166563471Y-145760000D02*
X167110000Y-145760000D01*
X164890000Y-145000000D02*
X164890000Y-144240000D01*
X164890000Y-144240000D02*
X166000000Y-144240000D01*
D14*
G04 #@! TO.C,G\002A\002A\002A*
G36*
X138357390Y-100454843D02*
X138841267Y-100470188D01*
X139262893Y-100494921D01*
X139644438Y-100531976D01*
X140008071Y-100584289D01*
X140375962Y-100654793D01*
X140770281Y-100746422D01*
X140995687Y-100804063D01*
X141747902Y-101031979D01*
X142506636Y-101320457D01*
X143254586Y-101660836D01*
X143974447Y-102044457D01*
X144648914Y-102462658D01*
X145260684Y-102906779D01*
X145365732Y-102991193D01*
X146011648Y-103563884D01*
X146628119Y-104198933D01*
X147205468Y-104883467D01*
X147734020Y-105604618D01*
X148204098Y-106349515D01*
X148606025Y-107105288D01*
X148823774Y-107590551D01*
X149139406Y-108439172D01*
X149381414Y-109291846D01*
X149552296Y-110161408D01*
X149654547Y-111060693D01*
X149690667Y-112002537D01*
X149690778Y-112046600D01*
X149690191Y-112386441D01*
X149686765Y-112662098D01*
X149679163Y-112894040D01*
X149666047Y-113102736D01*
X149646081Y-113308657D01*
X149617928Y-113532270D01*
X149580251Y-113794045D01*
X149573870Y-113836704D01*
X149456192Y-114488043D01*
X149300325Y-115141719D01*
X149112275Y-115778229D01*
X148898043Y-116378071D01*
X148663632Y-116921741D01*
X148560666Y-117128524D01*
X148489181Y-117274325D01*
X148436978Y-117397322D01*
X148414261Y-117473216D01*
X148414000Y-117477774D01*
X148396212Y-117536927D01*
X148379171Y-117545667D01*
X148340932Y-117579935D01*
X148283018Y-117667032D01*
X148250609Y-117725584D01*
X147949255Y-118248631D01*
X147582816Y-118791743D01*
X147163480Y-119340390D01*
X146703440Y-119880042D01*
X146214885Y-120396171D01*
X145710007Y-120874247D01*
X145353419Y-121178471D01*
X144595904Y-121740759D01*
X143784629Y-122241016D01*
X142926593Y-122676171D01*
X142028796Y-123043154D01*
X141098239Y-123338894D01*
X140141923Y-123560323D01*
X139778000Y-123623588D01*
X139612161Y-123643050D01*
X139378507Y-123661138D01*
X139093693Y-123677390D01*
X138774374Y-123691346D01*
X138437206Y-123702543D01*
X138098843Y-123710522D01*
X137775943Y-123714820D01*
X137485159Y-123714977D01*
X137243147Y-123710531D01*
X137066563Y-123701020D01*
X137047500Y-123699206D01*
X136216959Y-123590222D01*
X135436124Y-123437438D01*
X134679231Y-123235434D01*
X134359334Y-123133631D01*
X133448053Y-122788645D01*
X132584187Y-122375895D01*
X131763759Y-121892865D01*
X130982793Y-121337037D01*
X130237313Y-120705893D01*
X129841124Y-120320097D01*
X140887659Y-120320097D01*
X140887885Y-120320663D01*
X140930250Y-120335050D01*
X141045229Y-120370216D01*
X141224054Y-120423581D01*
X141457960Y-120492561D01*
X141738179Y-120574576D01*
X142055946Y-120667042D01*
X142402494Y-120767379D01*
X142509461Y-120798254D01*
X142917409Y-120915548D01*
X143251550Y-121010571D01*
X143519258Y-121085095D01*
X143727906Y-121140893D01*
X143884867Y-121179737D01*
X143997517Y-121203399D01*
X144073227Y-121213652D01*
X144119373Y-121212269D01*
X144143327Y-121201021D01*
X144149216Y-121192405D01*
X144168605Y-121135507D01*
X144208124Y-121007796D01*
X144264625Y-120819862D01*
X144334961Y-120582296D01*
X144415983Y-120305689D01*
X144504543Y-120000630D01*
X144540550Y-119875867D01*
X144628779Y-119565301D01*
X144707120Y-119281074D01*
X144772976Y-119033306D01*
X144823748Y-118832114D01*
X144856838Y-118687614D01*
X144869646Y-118609924D01*
X144868334Y-118599633D01*
X144820393Y-118580384D01*
X144702430Y-118541858D01*
X144525965Y-118487553D01*
X144302521Y-118420969D01*
X144043621Y-118345605D01*
X143842000Y-118287949D01*
X143522266Y-118197109D01*
X143190230Y-118102647D01*
X142867410Y-118010692D01*
X142575325Y-117927377D01*
X142335495Y-117858832D01*
X142266607Y-117839100D01*
X142057836Y-117779617D01*
X141879610Y-117729533D01*
X141746987Y-117693024D01*
X141675023Y-117674270D01*
X141666759Y-117672667D01*
X141654804Y-117684057D01*
X141636529Y-117722943D01*
X141609741Y-117796398D01*
X141572245Y-117911497D01*
X141521850Y-118075313D01*
X141456359Y-118294919D01*
X141373581Y-118577390D01*
X141271320Y-118929799D01*
X141195933Y-119190813D01*
X141112176Y-119483337D01*
X141037533Y-119748209D01*
X140974882Y-119974876D01*
X140927101Y-120152782D01*
X140897068Y-120271374D01*
X140887659Y-120320097D01*
X129841124Y-120320097D01*
X129702667Y-120185273D01*
X129173180Y-119595633D01*
X130808455Y-119595633D01*
X130808735Y-119596068D01*
X130853390Y-119604225D01*
X130970926Y-119619588D01*
X131149987Y-119640841D01*
X131379216Y-119666672D01*
X131647258Y-119695766D01*
X131904000Y-119722794D01*
X132237555Y-119757438D01*
X132579884Y-119793019D01*
X132910442Y-119827401D01*
X133208685Y-119858446D01*
X133454067Y-119884017D01*
X133555000Y-119894550D01*
X134031712Y-119943634D01*
X134432239Y-119983219D01*
X134764457Y-120013916D01*
X135036242Y-120036337D01*
X135255469Y-120051094D01*
X135430014Y-120058797D01*
X135567754Y-120060058D01*
X135650500Y-120057210D01*
X135747457Y-120051680D01*
X135903167Y-120042838D01*
X136091853Y-120032147D01*
X136200834Y-120025982D01*
X136393523Y-120013562D01*
X136564333Y-119999807D01*
X136688897Y-119986811D01*
X136730000Y-119980518D01*
X136847685Y-119957685D01*
X136982964Y-119932825D01*
X136984000Y-119932641D01*
X137116726Y-119905710D01*
X137278519Y-119868547D01*
X137343834Y-119852367D01*
X137996339Y-119646679D01*
X138594381Y-119376431D01*
X139137151Y-119042562D01*
X139623837Y-118646007D01*
X140053631Y-118187705D01*
X140425721Y-117668593D01*
X140739299Y-117089607D01*
X140993553Y-116451686D01*
X141006219Y-116406278D01*
X142031067Y-116406278D01*
X142031441Y-116410823D01*
X142072602Y-116428858D01*
X142184487Y-116467259D01*
X142356494Y-116522848D01*
X142578019Y-116592447D01*
X142838458Y-116672879D01*
X143127210Y-116760966D01*
X143433670Y-116853530D01*
X143747236Y-116947394D01*
X144057304Y-117039379D01*
X144353272Y-117126309D01*
X144624536Y-117205005D01*
X144860493Y-117272290D01*
X145050540Y-117324986D01*
X145184074Y-117359916D01*
X145240052Y-117372419D01*
X145256643Y-117334114D01*
X145294989Y-117223026D01*
X145352457Y-117047450D01*
X145426415Y-116815680D01*
X145514229Y-116536011D01*
X145613267Y-116216739D01*
X145720896Y-115866158D01*
X145786369Y-115651250D01*
X146067379Y-114725434D01*
X146325893Y-113871943D01*
X146561693Y-113091516D01*
X146774556Y-112384893D01*
X146964265Y-111752817D01*
X147130597Y-111196027D01*
X147273333Y-110715263D01*
X147392253Y-110311267D01*
X147487136Y-109984778D01*
X147557763Y-109736538D01*
X147603913Y-109567287D01*
X147625365Y-109477764D01*
X147626542Y-109462765D01*
X147582562Y-109446900D01*
X147465701Y-109410370D01*
X147284507Y-109355703D01*
X147047528Y-109285424D01*
X146763311Y-109202061D01*
X146440404Y-109108140D01*
X146087355Y-109006187D01*
X145893636Y-108950533D01*
X144182114Y-108459687D01*
X144120182Y-108674094D01*
X144094776Y-108764535D01*
X144050243Y-108925781D01*
X143989568Y-109146909D01*
X143915739Y-109416997D01*
X143831741Y-109725120D01*
X143740561Y-110060356D01*
X143656469Y-110370167D01*
X143385966Y-111366234D01*
X143123350Y-112330099D01*
X142860605Y-113291086D01*
X142589715Y-114278523D01*
X142339720Y-115187218D01*
X142257206Y-115490289D01*
X142183524Y-115767677D01*
X142121372Y-116008678D01*
X142073447Y-116202582D01*
X142042446Y-116338685D01*
X142031067Y-116406278D01*
X141006219Y-116406278D01*
X141187675Y-115755766D01*
X141276410Y-115302000D01*
X141317171Y-115051452D01*
X141346885Y-114847907D01*
X141367319Y-114668540D01*
X141380241Y-114490523D01*
X141387419Y-114291029D01*
X141390618Y-114047232D01*
X141391482Y-113815600D01*
X141388864Y-113478578D01*
X141378473Y-113202143D01*
X141358619Y-112962435D01*
X141327611Y-112735593D01*
X141306338Y-112613834D01*
X141148680Y-111960511D01*
X140929031Y-111364643D01*
X140647075Y-110825679D01*
X140302496Y-110343072D01*
X139894981Y-109916270D01*
X139633623Y-109697140D01*
X139199567Y-109387083D01*
X138760314Y-109128196D01*
X138297377Y-108912084D01*
X137792273Y-108730354D01*
X137226517Y-108574608D01*
X137092604Y-108543119D01*
X136980636Y-108521367D01*
X136809687Y-108492802D01*
X136597901Y-108459984D01*
X136363426Y-108425475D01*
X136124407Y-108391839D01*
X135898992Y-108361636D01*
X135705326Y-108337428D01*
X135561556Y-108321777D01*
X135491750Y-108317115D01*
X135389682Y-108307644D01*
X135335601Y-108284304D01*
X135333000Y-108277114D01*
X135337173Y-108224327D01*
X135349041Y-108096997D01*
X135367626Y-107904804D01*
X135391950Y-107657425D01*
X135421035Y-107364540D01*
X135453905Y-107035827D01*
X135489580Y-106680966D01*
X135527084Y-106309634D01*
X135565439Y-105931511D01*
X135603667Y-105556275D01*
X135640790Y-105193606D01*
X135675831Y-104853181D01*
X135707812Y-104544680D01*
X135735756Y-104277781D01*
X135758684Y-104062164D01*
X135760052Y-104049464D01*
X135786381Y-103793288D01*
X135807462Y-103564444D01*
X135822210Y-103376833D01*
X135829543Y-103244352D01*
X135828379Y-103180900D01*
X135827852Y-103179131D01*
X135775764Y-103151648D01*
X135640338Y-103121436D01*
X135422853Y-103088723D01*
X135124587Y-103053734D01*
X135115181Y-103052734D01*
X134776992Y-103016647D01*
X134426355Y-102978842D01*
X134076062Y-102940732D01*
X133738907Y-102903732D01*
X133427684Y-102869256D01*
X133155185Y-102838718D01*
X132934205Y-102813532D01*
X132777537Y-102795113D01*
X132723129Y-102788341D01*
X132547425Y-102765517D01*
X132522358Y-102927175D01*
X132508020Y-103036966D01*
X132489172Y-103205285D01*
X132468606Y-103406312D01*
X132454514Y-103554500D01*
X132431666Y-103794536D01*
X132405998Y-104050673D01*
X132381561Y-104282953D01*
X132370805Y-104380000D01*
X132349579Y-104576606D01*
X132324781Y-104821632D01*
X132299984Y-105079134D01*
X132284516Y-105247834D01*
X132265041Y-105459277D01*
X132246299Y-105651042D01*
X132230521Y-105800970D01*
X132220552Y-105882834D01*
X132206227Y-105996072D01*
X132186023Y-106176772D01*
X132161616Y-106408065D01*
X132134685Y-106673084D01*
X132106907Y-106954960D01*
X132079959Y-107236826D01*
X132055520Y-107501814D01*
X132035267Y-107733057D01*
X132028983Y-107809000D01*
X132011221Y-108016655D01*
X131993418Y-108204824D01*
X131977846Y-108350558D01*
X131968244Y-108422834D01*
X131956675Y-108508779D01*
X131938445Y-108664851D01*
X131915022Y-108876902D01*
X131887871Y-109130784D01*
X131858459Y-109412348D01*
X131828254Y-109707446D01*
X131798722Y-110001929D01*
X131771330Y-110281649D01*
X131747545Y-110532458D01*
X131733435Y-110687667D01*
X131714834Y-110887361D01*
X131696382Y-111068091D01*
X131680683Y-111205173D01*
X131673188Y-111259167D01*
X131662323Y-111343665D01*
X131645780Y-111495059D01*
X131625352Y-111695912D01*
X131602831Y-111928783D01*
X131588321Y-112084667D01*
X131563053Y-112353415D01*
X131536421Y-112624839D01*
X131510971Y-112873717D01*
X131489254Y-113074824D01*
X131481381Y-113143000D01*
X131455700Y-113362368D01*
X131424986Y-113631267D01*
X131390944Y-113934117D01*
X131355281Y-114255333D01*
X131319703Y-114579335D01*
X131285914Y-114890538D01*
X131255621Y-115173361D01*
X131230529Y-115412222D01*
X131212344Y-115591537D01*
X131205659Y-115661834D01*
X131193499Y-115789543D01*
X131174434Y-115981757D01*
X131150039Y-116223283D01*
X131121888Y-116498931D01*
X131091555Y-116793511D01*
X131060616Y-117091832D01*
X131030643Y-117378703D01*
X131003212Y-117638934D01*
X130979896Y-117857333D01*
X130962271Y-118018711D01*
X130953392Y-118096000D01*
X130927136Y-118320218D01*
X130900399Y-118563030D01*
X130874585Y-118809886D01*
X130851096Y-119046238D01*
X130831336Y-119257537D01*
X130816707Y-119429235D01*
X130808612Y-119546783D01*
X130808455Y-119595633D01*
X129173180Y-119595633D01*
X129035535Y-119442352D01*
X128445857Y-118667735D01*
X127931185Y-117857730D01*
X127489070Y-117008647D01*
X127278428Y-116529667D01*
X126997004Y-115760748D01*
X126766857Y-114948715D01*
X126590701Y-114110862D01*
X126471251Y-113264479D01*
X126411222Y-112426859D01*
X126413327Y-111615293D01*
X126441102Y-111195667D01*
X126572709Y-110179857D01*
X126780706Y-109200323D01*
X127065382Y-108256231D01*
X127427028Y-107346744D01*
X127865934Y-106471025D01*
X128363685Y-105656164D01*
X128955303Y-104844001D01*
X129603930Y-104092701D01*
X130306712Y-103404479D01*
X131060798Y-102781550D01*
X131863334Y-102226128D01*
X132711468Y-101740430D01*
X133602348Y-101326669D01*
X134260086Y-101077498D01*
X134938161Y-100861377D01*
X135584253Y-100694469D01*
X136219969Y-100573490D01*
X136866918Y-100495156D01*
X137546706Y-100456185D01*
X138280941Y-100453292D01*
X138357390Y-100454843D01*
X138357390Y-100454843D01*
G37*
X138357390Y-100454843D02*
X138841267Y-100470188D01*
X139262893Y-100494921D01*
X139644438Y-100531976D01*
X140008071Y-100584289D01*
X140375962Y-100654793D01*
X140770281Y-100746422D01*
X140995687Y-100804063D01*
X141747902Y-101031979D01*
X142506636Y-101320457D01*
X143254586Y-101660836D01*
X143974447Y-102044457D01*
X144648914Y-102462658D01*
X145260684Y-102906779D01*
X145365732Y-102991193D01*
X146011648Y-103563884D01*
X146628119Y-104198933D01*
X147205468Y-104883467D01*
X147734020Y-105604618D01*
X148204098Y-106349515D01*
X148606025Y-107105288D01*
X148823774Y-107590551D01*
X149139406Y-108439172D01*
X149381414Y-109291846D01*
X149552296Y-110161408D01*
X149654547Y-111060693D01*
X149690667Y-112002537D01*
X149690778Y-112046600D01*
X149690191Y-112386441D01*
X149686765Y-112662098D01*
X149679163Y-112894040D01*
X149666047Y-113102736D01*
X149646081Y-113308657D01*
X149617928Y-113532270D01*
X149580251Y-113794045D01*
X149573870Y-113836704D01*
X149456192Y-114488043D01*
X149300325Y-115141719D01*
X149112275Y-115778229D01*
X148898043Y-116378071D01*
X148663632Y-116921741D01*
X148560666Y-117128524D01*
X148489181Y-117274325D01*
X148436978Y-117397322D01*
X148414261Y-117473216D01*
X148414000Y-117477774D01*
X148396212Y-117536927D01*
X148379171Y-117545667D01*
X148340932Y-117579935D01*
X148283018Y-117667032D01*
X148250609Y-117725584D01*
X147949255Y-118248631D01*
X147582816Y-118791743D01*
X147163480Y-119340390D01*
X146703440Y-119880042D01*
X146214885Y-120396171D01*
X145710007Y-120874247D01*
X145353419Y-121178471D01*
X144595904Y-121740759D01*
X143784629Y-122241016D01*
X142926593Y-122676171D01*
X142028796Y-123043154D01*
X141098239Y-123338894D01*
X140141923Y-123560323D01*
X139778000Y-123623588D01*
X139612161Y-123643050D01*
X139378507Y-123661138D01*
X139093693Y-123677390D01*
X138774374Y-123691346D01*
X138437206Y-123702543D01*
X138098843Y-123710522D01*
X137775943Y-123714820D01*
X137485159Y-123714977D01*
X137243147Y-123710531D01*
X137066563Y-123701020D01*
X137047500Y-123699206D01*
X136216959Y-123590222D01*
X135436124Y-123437438D01*
X134679231Y-123235434D01*
X134359334Y-123133631D01*
X133448053Y-122788645D01*
X132584187Y-122375895D01*
X131763759Y-121892865D01*
X130982793Y-121337037D01*
X130237313Y-120705893D01*
X129841124Y-120320097D01*
X140887659Y-120320097D01*
X140887885Y-120320663D01*
X140930250Y-120335050D01*
X141045229Y-120370216D01*
X141224054Y-120423581D01*
X141457960Y-120492561D01*
X141738179Y-120574576D01*
X142055946Y-120667042D01*
X142402494Y-120767379D01*
X142509461Y-120798254D01*
X142917409Y-120915548D01*
X143251550Y-121010571D01*
X143519258Y-121085095D01*
X143727906Y-121140893D01*
X143884867Y-121179737D01*
X143997517Y-121203399D01*
X144073227Y-121213652D01*
X144119373Y-121212269D01*
X144143327Y-121201021D01*
X144149216Y-121192405D01*
X144168605Y-121135507D01*
X144208124Y-121007796D01*
X144264625Y-120819862D01*
X144334961Y-120582296D01*
X144415983Y-120305689D01*
X144504543Y-120000630D01*
X144540550Y-119875867D01*
X144628779Y-119565301D01*
X144707120Y-119281074D01*
X144772976Y-119033306D01*
X144823748Y-118832114D01*
X144856838Y-118687614D01*
X144869646Y-118609924D01*
X144868334Y-118599633D01*
X144820393Y-118580384D01*
X144702430Y-118541858D01*
X144525965Y-118487553D01*
X144302521Y-118420969D01*
X144043621Y-118345605D01*
X143842000Y-118287949D01*
X143522266Y-118197109D01*
X143190230Y-118102647D01*
X142867410Y-118010692D01*
X142575325Y-117927377D01*
X142335495Y-117858832D01*
X142266607Y-117839100D01*
X142057836Y-117779617D01*
X141879610Y-117729533D01*
X141746987Y-117693024D01*
X141675023Y-117674270D01*
X141666759Y-117672667D01*
X141654804Y-117684057D01*
X141636529Y-117722943D01*
X141609741Y-117796398D01*
X141572245Y-117911497D01*
X141521850Y-118075313D01*
X141456359Y-118294919D01*
X141373581Y-118577390D01*
X141271320Y-118929799D01*
X141195933Y-119190813D01*
X141112176Y-119483337D01*
X141037533Y-119748209D01*
X140974882Y-119974876D01*
X140927101Y-120152782D01*
X140897068Y-120271374D01*
X140887659Y-120320097D01*
X129841124Y-120320097D01*
X129702667Y-120185273D01*
X129173180Y-119595633D01*
X130808455Y-119595633D01*
X130808735Y-119596068D01*
X130853390Y-119604225D01*
X130970926Y-119619588D01*
X131149987Y-119640841D01*
X131379216Y-119666672D01*
X131647258Y-119695766D01*
X131904000Y-119722794D01*
X132237555Y-119757438D01*
X132579884Y-119793019D01*
X132910442Y-119827401D01*
X133208685Y-119858446D01*
X133454067Y-119884017D01*
X133555000Y-119894550D01*
X134031712Y-119943634D01*
X134432239Y-119983219D01*
X134764457Y-120013916D01*
X135036242Y-120036337D01*
X135255469Y-120051094D01*
X135430014Y-120058797D01*
X135567754Y-120060058D01*
X135650500Y-120057210D01*
X135747457Y-120051680D01*
X135903167Y-120042838D01*
X136091853Y-120032147D01*
X136200834Y-120025982D01*
X136393523Y-120013562D01*
X136564333Y-119999807D01*
X136688897Y-119986811D01*
X136730000Y-119980518D01*
X136847685Y-119957685D01*
X136982964Y-119932825D01*
X136984000Y-119932641D01*
X137116726Y-119905710D01*
X137278519Y-119868547D01*
X137343834Y-119852367D01*
X137996339Y-119646679D01*
X138594381Y-119376431D01*
X139137151Y-119042562D01*
X139623837Y-118646007D01*
X140053631Y-118187705D01*
X140425721Y-117668593D01*
X140739299Y-117089607D01*
X140993553Y-116451686D01*
X141006219Y-116406278D01*
X142031067Y-116406278D01*
X142031441Y-116410823D01*
X142072602Y-116428858D01*
X142184487Y-116467259D01*
X142356494Y-116522848D01*
X142578019Y-116592447D01*
X142838458Y-116672879D01*
X143127210Y-116760966D01*
X143433670Y-116853530D01*
X143747236Y-116947394D01*
X144057304Y-117039379D01*
X144353272Y-117126309D01*
X144624536Y-117205005D01*
X144860493Y-117272290D01*
X145050540Y-117324986D01*
X145184074Y-117359916D01*
X145240052Y-117372419D01*
X145256643Y-117334114D01*
X145294989Y-117223026D01*
X145352457Y-117047450D01*
X145426415Y-116815680D01*
X145514229Y-116536011D01*
X145613267Y-116216739D01*
X145720896Y-115866158D01*
X145786369Y-115651250D01*
X146067379Y-114725434D01*
X146325893Y-113871943D01*
X146561693Y-113091516D01*
X146774556Y-112384893D01*
X146964265Y-111752817D01*
X147130597Y-111196027D01*
X147273333Y-110715263D01*
X147392253Y-110311267D01*
X147487136Y-109984778D01*
X147557763Y-109736538D01*
X147603913Y-109567287D01*
X147625365Y-109477764D01*
X147626542Y-109462765D01*
X147582562Y-109446900D01*
X147465701Y-109410370D01*
X147284507Y-109355703D01*
X147047528Y-109285424D01*
X146763311Y-109202061D01*
X146440404Y-109108140D01*
X146087355Y-109006187D01*
X145893636Y-108950533D01*
X144182114Y-108459687D01*
X144120182Y-108674094D01*
X144094776Y-108764535D01*
X144050243Y-108925781D01*
X143989568Y-109146909D01*
X143915739Y-109416997D01*
X143831741Y-109725120D01*
X143740561Y-110060356D01*
X143656469Y-110370167D01*
X143385966Y-111366234D01*
X143123350Y-112330099D01*
X142860605Y-113291086D01*
X142589715Y-114278523D01*
X142339720Y-115187218D01*
X142257206Y-115490289D01*
X142183524Y-115767677D01*
X142121372Y-116008678D01*
X142073447Y-116202582D01*
X142042446Y-116338685D01*
X142031067Y-116406278D01*
X141006219Y-116406278D01*
X141187675Y-115755766D01*
X141276410Y-115302000D01*
X141317171Y-115051452D01*
X141346885Y-114847907D01*
X141367319Y-114668540D01*
X141380241Y-114490523D01*
X141387419Y-114291029D01*
X141390618Y-114047232D01*
X141391482Y-113815600D01*
X141388864Y-113478578D01*
X141378473Y-113202143D01*
X141358619Y-112962435D01*
X141327611Y-112735593D01*
X141306338Y-112613834D01*
X141148680Y-111960511D01*
X140929031Y-111364643D01*
X140647075Y-110825679D01*
X140302496Y-110343072D01*
X139894981Y-109916270D01*
X139633623Y-109697140D01*
X139199567Y-109387083D01*
X138760314Y-109128196D01*
X138297377Y-108912084D01*
X137792273Y-108730354D01*
X137226517Y-108574608D01*
X137092604Y-108543119D01*
X136980636Y-108521367D01*
X136809687Y-108492802D01*
X136597901Y-108459984D01*
X136363426Y-108425475D01*
X136124407Y-108391839D01*
X135898992Y-108361636D01*
X135705326Y-108337428D01*
X135561556Y-108321777D01*
X135491750Y-108317115D01*
X135389682Y-108307644D01*
X135335601Y-108284304D01*
X135333000Y-108277114D01*
X135337173Y-108224327D01*
X135349041Y-108096997D01*
X135367626Y-107904804D01*
X135391950Y-107657425D01*
X135421035Y-107364540D01*
X135453905Y-107035827D01*
X135489580Y-106680966D01*
X135527084Y-106309634D01*
X135565439Y-105931511D01*
X135603667Y-105556275D01*
X135640790Y-105193606D01*
X135675831Y-104853181D01*
X135707812Y-104544680D01*
X135735756Y-104277781D01*
X135758684Y-104062164D01*
X135760052Y-104049464D01*
X135786381Y-103793288D01*
X135807462Y-103564444D01*
X135822210Y-103376833D01*
X135829543Y-103244352D01*
X135828379Y-103180900D01*
X135827852Y-103179131D01*
X135775764Y-103151648D01*
X135640338Y-103121436D01*
X135422853Y-103088723D01*
X135124587Y-103053734D01*
X135115181Y-103052734D01*
X134776992Y-103016647D01*
X134426355Y-102978842D01*
X134076062Y-102940732D01*
X133738907Y-102903732D01*
X133427684Y-102869256D01*
X133155185Y-102838718D01*
X132934205Y-102813532D01*
X132777537Y-102795113D01*
X132723129Y-102788341D01*
X132547425Y-102765517D01*
X132522358Y-102927175D01*
X132508020Y-103036966D01*
X132489172Y-103205285D01*
X132468606Y-103406312D01*
X132454514Y-103554500D01*
X132431666Y-103794536D01*
X132405998Y-104050673D01*
X132381561Y-104282953D01*
X132370805Y-104380000D01*
X132349579Y-104576606D01*
X132324781Y-104821632D01*
X132299984Y-105079134D01*
X132284516Y-105247834D01*
X132265041Y-105459277D01*
X132246299Y-105651042D01*
X132230521Y-105800970D01*
X132220552Y-105882834D01*
X132206227Y-105996072D01*
X132186023Y-106176772D01*
X132161616Y-106408065D01*
X132134685Y-106673084D01*
X132106907Y-106954960D01*
X132079959Y-107236826D01*
X132055520Y-107501814D01*
X132035267Y-107733057D01*
X132028983Y-107809000D01*
X132011221Y-108016655D01*
X131993418Y-108204824D01*
X131977846Y-108350558D01*
X131968244Y-108422834D01*
X131956675Y-108508779D01*
X131938445Y-108664851D01*
X131915022Y-108876902D01*
X131887871Y-109130784D01*
X131858459Y-109412348D01*
X131828254Y-109707446D01*
X131798722Y-110001929D01*
X131771330Y-110281649D01*
X131747545Y-110532458D01*
X131733435Y-110687667D01*
X131714834Y-110887361D01*
X131696382Y-111068091D01*
X131680683Y-111205173D01*
X131673188Y-111259167D01*
X131662323Y-111343665D01*
X131645780Y-111495059D01*
X131625352Y-111695912D01*
X131602831Y-111928783D01*
X131588321Y-112084667D01*
X131563053Y-112353415D01*
X131536421Y-112624839D01*
X131510971Y-112873717D01*
X131489254Y-113074824D01*
X131481381Y-113143000D01*
X131455700Y-113362368D01*
X131424986Y-113631267D01*
X131390944Y-113934117D01*
X131355281Y-114255333D01*
X131319703Y-114579335D01*
X131285914Y-114890538D01*
X131255621Y-115173361D01*
X131230529Y-115412222D01*
X131212344Y-115591537D01*
X131205659Y-115661834D01*
X131193499Y-115789543D01*
X131174434Y-115981757D01*
X131150039Y-116223283D01*
X131121888Y-116498931D01*
X131091555Y-116793511D01*
X131060616Y-117091832D01*
X131030643Y-117378703D01*
X131003212Y-117638934D01*
X130979896Y-117857333D01*
X130962271Y-118018711D01*
X130953392Y-118096000D01*
X130927136Y-118320218D01*
X130900399Y-118563030D01*
X130874585Y-118809886D01*
X130851096Y-119046238D01*
X130831336Y-119257537D01*
X130816707Y-119429235D01*
X130808612Y-119546783D01*
X130808455Y-119595633D01*
X129173180Y-119595633D01*
X129035535Y-119442352D01*
X128445857Y-118667735D01*
X127931185Y-117857730D01*
X127489070Y-117008647D01*
X127278428Y-116529667D01*
X126997004Y-115760748D01*
X126766857Y-114948715D01*
X126590701Y-114110862D01*
X126471251Y-113264479D01*
X126411222Y-112426859D01*
X126413327Y-111615293D01*
X126441102Y-111195667D01*
X126572709Y-110179857D01*
X126780706Y-109200323D01*
X127065382Y-108256231D01*
X127427028Y-107346744D01*
X127865934Y-106471025D01*
X128363685Y-105656164D01*
X128955303Y-104844001D01*
X129603930Y-104092701D01*
X130306712Y-103404479D01*
X131060798Y-102781550D01*
X131863334Y-102226128D01*
X132711468Y-101740430D01*
X133602348Y-101326669D01*
X134260086Y-101077498D01*
X134938161Y-100861377D01*
X135584253Y-100694469D01*
X136219969Y-100573490D01*
X136866918Y-100495156D01*
X137546706Y-100456185D01*
X138280941Y-100453292D01*
X138357390Y-100454843D01*
G36*
X135166267Y-111435162D02*
X135195733Y-111438696D01*
X135706362Y-111499993D01*
X136146481Y-111587634D01*
X136527332Y-111705946D01*
X136860160Y-111859257D01*
X137156207Y-112051893D01*
X137426718Y-112288183D01*
X137441582Y-112303037D01*
X137758509Y-112678790D01*
X137999243Y-113089510D01*
X138162512Y-113530734D01*
X138247046Y-113997997D01*
X138251575Y-114486833D01*
X138188894Y-114928816D01*
X138056556Y-115356912D01*
X137849096Y-115756959D01*
X137573968Y-116119608D01*
X137238629Y-116435510D01*
X136850530Y-116695318D01*
X136730000Y-116758429D01*
X136403714Y-116901131D01*
X136086524Y-116998349D01*
X135758485Y-117052914D01*
X135399651Y-117067657D01*
X134990074Y-117045410D01*
X134825300Y-117028773D01*
X134661258Y-117009386D01*
X134533361Y-116992033D01*
X134461785Y-116979544D01*
X134453536Y-116976647D01*
X134452131Y-116946460D01*
X134457191Y-116861953D01*
X134469137Y-116718720D01*
X134488390Y-116512355D01*
X134515373Y-116238451D01*
X134550507Y-115892603D01*
X134594213Y-115470403D01*
X134633991Y-115090334D01*
X134659305Y-114848422D01*
X134683524Y-114615301D01*
X134704248Y-114414204D01*
X134719073Y-114268367D01*
X134721537Y-114243667D01*
X134738020Y-114091211D01*
X134754748Y-113957951D01*
X134762702Y-113905000D01*
X134771870Y-113834688D01*
X134788081Y-113692929D01*
X134809954Y-113492524D01*
X134836109Y-113246274D01*
X134865164Y-112966979D01*
X134888301Y-112740834D01*
X134925514Y-112371889D01*
X134955284Y-112078583D01*
X134979616Y-111852415D01*
X135000518Y-111684886D01*
X135019996Y-111567497D01*
X135040058Y-111491748D01*
X135062709Y-111449140D01*
X135089956Y-111431172D01*
X135123806Y-111429346D01*
X135166267Y-111435162D01*
X135166267Y-111435162D01*
G37*
X135166267Y-111435162D02*
X135195733Y-111438696D01*
X135706362Y-111499993D01*
X136146481Y-111587634D01*
X136527332Y-111705946D01*
X136860160Y-111859257D01*
X137156207Y-112051893D01*
X137426718Y-112288183D01*
X137441582Y-112303037D01*
X137758509Y-112678790D01*
X137999243Y-113089510D01*
X138162512Y-113530734D01*
X138247046Y-113997997D01*
X138251575Y-114486833D01*
X138188894Y-114928816D01*
X138056556Y-115356912D01*
X137849096Y-115756959D01*
X137573968Y-116119608D01*
X137238629Y-116435510D01*
X136850530Y-116695318D01*
X136730000Y-116758429D01*
X136403714Y-116901131D01*
X136086524Y-116998349D01*
X135758485Y-117052914D01*
X135399651Y-117067657D01*
X134990074Y-117045410D01*
X134825300Y-117028773D01*
X134661258Y-117009386D01*
X134533361Y-116992033D01*
X134461785Y-116979544D01*
X134453536Y-116976647D01*
X134452131Y-116946460D01*
X134457191Y-116861953D01*
X134469137Y-116718720D01*
X134488390Y-116512355D01*
X134515373Y-116238451D01*
X134550507Y-115892603D01*
X134594213Y-115470403D01*
X134633991Y-115090334D01*
X134659305Y-114848422D01*
X134683524Y-114615301D01*
X134704248Y-114414204D01*
X134719073Y-114268367D01*
X134721537Y-114243667D01*
X134738020Y-114091211D01*
X134754748Y-113957951D01*
X134762702Y-113905000D01*
X134771870Y-113834688D01*
X134788081Y-113692929D01*
X134809954Y-113492524D01*
X134836109Y-113246274D01*
X134865164Y-112966979D01*
X134888301Y-112740834D01*
X134925514Y-112371889D01*
X134955284Y-112078583D01*
X134979616Y-111852415D01*
X135000518Y-111684886D01*
X135019996Y-111567497D01*
X135040058Y-111491748D01*
X135062709Y-111449140D01*
X135089956Y-111431172D01*
X135123806Y-111429346D01*
X135166267Y-111435162D01*
G36*
X116184222Y-144184444D02*
X115789111Y-144184444D01*
X115789111Y-127843778D01*
X116184222Y-127843778D01*
X116184222Y-144184444D01*
X116184222Y-144184444D01*
G37*
X116184222Y-144184444D02*
X115789111Y-144184444D01*
X115789111Y-127843778D01*
X116184222Y-127843778D01*
X116184222Y-144184444D01*
G36*
X116607555Y-144184444D02*
X116381778Y-144184444D01*
X116381778Y-127843778D01*
X116607555Y-127843778D01*
X116607555Y-144184444D01*
X116607555Y-144184444D01*
G37*
X116607555Y-144184444D02*
X116381778Y-144184444D01*
X116381778Y-127843778D01*
X116607555Y-127843778D01*
X116607555Y-144184444D01*
G36*
X117200222Y-144184444D02*
X117002667Y-144184444D01*
X117002667Y-127843778D01*
X117200222Y-127843778D01*
X117200222Y-144184444D01*
X117200222Y-144184444D01*
G37*
X117200222Y-144184444D02*
X117002667Y-144184444D01*
X117002667Y-127843778D01*
X117200222Y-127843778D01*
X117200222Y-144184444D01*
G36*
X118188000Y-144184444D02*
X117990444Y-144184444D01*
X117990444Y-127843778D01*
X118188000Y-127843778D01*
X118188000Y-144184444D01*
X118188000Y-144184444D01*
G37*
X118188000Y-144184444D02*
X117990444Y-144184444D01*
X117990444Y-127843778D01*
X118188000Y-127843778D01*
X118188000Y-144184444D01*
G36*
X119006444Y-144184444D02*
X118385555Y-144184444D01*
X118385555Y-127843778D01*
X119006444Y-127843778D01*
X119006444Y-144184444D01*
X119006444Y-144184444D01*
G37*
X119006444Y-144184444D02*
X118385555Y-144184444D01*
X118385555Y-127843778D01*
X119006444Y-127843778D01*
X119006444Y-144184444D01*
G36*
X119599111Y-144184444D02*
X119204000Y-144184444D01*
X119204000Y-127843778D01*
X119599111Y-127843778D01*
X119599111Y-144184444D01*
X119599111Y-144184444D01*
G37*
X119599111Y-144184444D02*
X119204000Y-144184444D01*
X119204000Y-127843778D01*
X119599111Y-127843778D01*
X119599111Y-144184444D01*
G36*
X120389333Y-144184444D02*
X120191778Y-144184444D01*
X120191778Y-127843778D01*
X120389333Y-127843778D01*
X120389333Y-144184444D01*
X120389333Y-144184444D01*
G37*
X120389333Y-144184444D02*
X120191778Y-144184444D01*
X120191778Y-127843778D01*
X120389333Y-127843778D01*
X120389333Y-144184444D01*
G36*
X120982000Y-144184444D02*
X120784444Y-144184444D01*
X120784444Y-127843778D01*
X120982000Y-127843778D01*
X120982000Y-144184444D01*
X120982000Y-144184444D01*
G37*
X120982000Y-144184444D02*
X120784444Y-144184444D01*
X120784444Y-127843778D01*
X120982000Y-127843778D01*
X120982000Y-144184444D01*
G36*
X121602889Y-144184444D02*
X121179555Y-144184444D01*
X121179555Y-127843778D01*
X121602889Y-127843778D01*
X121602889Y-144184444D01*
X121602889Y-144184444D01*
G37*
X121602889Y-144184444D02*
X121179555Y-144184444D01*
X121179555Y-127843778D01*
X121602889Y-127843778D01*
X121602889Y-144184444D01*
G36*
X122590667Y-144184444D02*
X122393111Y-144184444D01*
X122393111Y-127843778D01*
X122590667Y-127843778D01*
X122590667Y-144184444D01*
X122590667Y-144184444D01*
G37*
X122590667Y-144184444D02*
X122393111Y-144184444D01*
X122393111Y-127843778D01*
X122590667Y-127843778D01*
X122590667Y-144184444D01*
G36*
X123606667Y-144184444D02*
X123380889Y-144184444D01*
X123380889Y-127843778D01*
X123606667Y-127843778D01*
X123606667Y-144184444D01*
X123606667Y-144184444D01*
G37*
X123606667Y-144184444D02*
X123380889Y-144184444D01*
X123380889Y-127843778D01*
X123606667Y-127843778D01*
X123606667Y-144184444D01*
G36*
X124396889Y-144184444D02*
X124001778Y-144184444D01*
X124001778Y-127843778D01*
X124396889Y-127843778D01*
X124396889Y-144184444D01*
X124396889Y-144184444D01*
G37*
X124396889Y-144184444D02*
X124001778Y-144184444D01*
X124001778Y-127843778D01*
X124396889Y-127843778D01*
X124396889Y-144184444D01*
G36*
X124792000Y-144184444D02*
X124594444Y-144184444D01*
X124594444Y-127843778D01*
X124792000Y-127843778D01*
X124792000Y-144184444D01*
X124792000Y-144184444D01*
G37*
X124792000Y-144184444D02*
X124594444Y-144184444D01*
X124594444Y-127843778D01*
X124792000Y-127843778D01*
X124792000Y-144184444D01*
G36*
X125384667Y-144184444D02*
X124989555Y-144184444D01*
X124989555Y-127843778D01*
X125384667Y-127843778D01*
X125384667Y-144184444D01*
X125384667Y-144184444D01*
G37*
X125384667Y-144184444D02*
X124989555Y-144184444D01*
X124989555Y-127843778D01*
X125384667Y-127843778D01*
X125384667Y-144184444D01*
G36*
X126005555Y-144184444D02*
X125779778Y-144184444D01*
X125779778Y-127843778D01*
X126005555Y-127843778D01*
X126005555Y-144184444D01*
X126005555Y-144184444D01*
G37*
X126005555Y-144184444D02*
X125779778Y-144184444D01*
X125779778Y-127843778D01*
X126005555Y-127843778D01*
X126005555Y-144184444D01*
G36*
X127190889Y-144184444D02*
X126795778Y-144184444D01*
X126795778Y-127843778D01*
X127190889Y-127843778D01*
X127190889Y-144184444D01*
X127190889Y-144184444D01*
G37*
X127190889Y-144184444D02*
X126795778Y-144184444D01*
X126795778Y-127843778D01*
X127190889Y-127843778D01*
X127190889Y-144184444D01*
G36*
X127783555Y-144184444D02*
X127388444Y-144184444D01*
X127388444Y-127843778D01*
X127783555Y-127843778D01*
X127783555Y-144184444D01*
X127783555Y-144184444D01*
G37*
X127783555Y-144184444D02*
X127388444Y-144184444D01*
X127388444Y-127843778D01*
X127783555Y-127843778D01*
X127783555Y-144184444D01*
G36*
X128602000Y-144184444D02*
X128206889Y-144184444D01*
X128206889Y-127843778D01*
X128602000Y-127843778D01*
X128602000Y-144184444D01*
X128602000Y-144184444D01*
G37*
X128602000Y-144184444D02*
X128206889Y-144184444D01*
X128206889Y-127843778D01*
X128602000Y-127843778D01*
X128602000Y-144184444D01*
G36*
X129194667Y-144184444D02*
X128997111Y-144184444D01*
X128997111Y-127843778D01*
X129194667Y-127843778D01*
X129194667Y-144184444D01*
X129194667Y-144184444D01*
G37*
X129194667Y-144184444D02*
X128997111Y-144184444D01*
X128997111Y-127843778D01*
X129194667Y-127843778D01*
X129194667Y-144184444D01*
G36*
X129787333Y-144184444D02*
X129589778Y-144184444D01*
X129589778Y-127843778D01*
X129787333Y-127843778D01*
X129787333Y-144184444D01*
X129787333Y-144184444D01*
G37*
X129787333Y-144184444D02*
X129589778Y-144184444D01*
X129589778Y-127843778D01*
X129787333Y-127843778D01*
X129787333Y-144184444D01*
G36*
X131000889Y-144184444D02*
X130605778Y-144184444D01*
X130605778Y-127843778D01*
X131000889Y-127843778D01*
X131000889Y-144184444D01*
X131000889Y-144184444D01*
G37*
X131000889Y-144184444D02*
X130605778Y-144184444D01*
X130605778Y-127843778D01*
X131000889Y-127843778D01*
X131000889Y-144184444D01*
G36*
X131593555Y-144184444D02*
X131198444Y-144184444D01*
X131198444Y-127843778D01*
X131593555Y-127843778D01*
X131593555Y-144184444D01*
X131593555Y-144184444D01*
G37*
X131593555Y-144184444D02*
X131198444Y-144184444D01*
X131198444Y-127843778D01*
X131593555Y-127843778D01*
X131593555Y-144184444D01*
G36*
X132186222Y-144184444D02*
X131791111Y-144184444D01*
X131791111Y-127843778D01*
X132186222Y-127843778D01*
X132186222Y-144184444D01*
X132186222Y-144184444D01*
G37*
X132186222Y-144184444D02*
X131791111Y-144184444D01*
X131791111Y-127843778D01*
X132186222Y-127843778D01*
X132186222Y-144184444D01*
G36*
X133202222Y-144184444D02*
X132383778Y-144184444D01*
X132383778Y-127843778D01*
X133202222Y-127843778D01*
X133202222Y-144184444D01*
X133202222Y-144184444D01*
G37*
X133202222Y-144184444D02*
X132383778Y-144184444D01*
X132383778Y-127843778D01*
X133202222Y-127843778D01*
X133202222Y-144184444D01*
G36*
X133794889Y-144184444D02*
X133399778Y-144184444D01*
X133399778Y-127843778D01*
X133794889Y-127843778D01*
X133794889Y-144184444D01*
X133794889Y-144184444D01*
G37*
X133794889Y-144184444D02*
X133399778Y-144184444D01*
X133399778Y-127843778D01*
X133794889Y-127843778D01*
X133794889Y-144184444D01*
G36*
X134387555Y-144184444D02*
X133992444Y-144184444D01*
X133992444Y-127843778D01*
X134387555Y-127843778D01*
X134387555Y-144184444D01*
X134387555Y-144184444D01*
G37*
X134387555Y-144184444D02*
X133992444Y-144184444D01*
X133992444Y-127843778D01*
X134387555Y-127843778D01*
X134387555Y-144184444D01*
G36*
X135206000Y-144184444D02*
X134782667Y-144184444D01*
X134782667Y-127843778D01*
X135206000Y-127843778D01*
X135206000Y-144184444D01*
X135206000Y-144184444D01*
G37*
X135206000Y-144184444D02*
X134782667Y-144184444D01*
X134782667Y-127843778D01*
X135206000Y-127843778D01*
X135206000Y-144184444D01*
G36*
X135798667Y-144184444D02*
X135601111Y-144184444D01*
X135601111Y-127843778D01*
X135798667Y-127843778D01*
X135798667Y-144184444D01*
X135798667Y-144184444D01*
G37*
X135798667Y-144184444D02*
X135601111Y-144184444D01*
X135601111Y-127843778D01*
X135798667Y-127843778D01*
X135798667Y-144184444D01*
G36*
X136391333Y-144184444D02*
X136193778Y-144184444D01*
X136193778Y-127843778D01*
X136391333Y-127843778D01*
X136391333Y-144184444D01*
X136391333Y-144184444D01*
G37*
X136391333Y-144184444D02*
X136193778Y-144184444D01*
X136193778Y-127843778D01*
X136391333Y-127843778D01*
X136391333Y-144184444D01*
G36*
X137604889Y-144184444D02*
X137181555Y-144184444D01*
X137181555Y-127843778D01*
X137604889Y-127843778D01*
X137604889Y-144184444D01*
X137604889Y-144184444D01*
G37*
X137604889Y-144184444D02*
X137181555Y-144184444D01*
X137181555Y-127843778D01*
X137604889Y-127843778D01*
X137604889Y-144184444D01*
G36*
X138000000Y-144184444D02*
X137802444Y-144184444D01*
X137802444Y-127843778D01*
X138000000Y-127843778D01*
X138000000Y-144184444D01*
X138000000Y-144184444D01*
G37*
X138000000Y-144184444D02*
X137802444Y-144184444D01*
X137802444Y-127843778D01*
X138000000Y-127843778D01*
X138000000Y-144184444D01*
G36*
X139382889Y-144184444D02*
X138592667Y-144184444D01*
X138592667Y-127843778D01*
X139382889Y-127843778D01*
X139382889Y-144184444D01*
X139382889Y-144184444D01*
G37*
X139382889Y-144184444D02*
X138592667Y-144184444D01*
X138592667Y-127843778D01*
X139382889Y-127843778D01*
X139382889Y-144184444D01*
G36*
X139806222Y-144184444D02*
X139580444Y-144184444D01*
X139580444Y-127843778D01*
X139806222Y-127843778D01*
X139806222Y-144184444D01*
X139806222Y-144184444D01*
G37*
X139806222Y-144184444D02*
X139580444Y-144184444D01*
X139580444Y-127843778D01*
X139806222Y-127843778D01*
X139806222Y-144184444D01*
G36*
X140398889Y-144184444D02*
X140003778Y-144184444D01*
X140003778Y-127843778D01*
X140398889Y-127843778D01*
X140398889Y-144184444D01*
X140398889Y-144184444D01*
G37*
X140398889Y-144184444D02*
X140003778Y-144184444D01*
X140003778Y-127843778D01*
X140398889Y-127843778D01*
X140398889Y-144184444D01*
G36*
X141386667Y-144184444D02*
X141189111Y-144184444D01*
X141189111Y-127843778D01*
X141386667Y-127843778D01*
X141386667Y-144184444D01*
X141386667Y-144184444D01*
G37*
X141386667Y-144184444D02*
X141189111Y-144184444D01*
X141189111Y-127843778D01*
X141386667Y-127843778D01*
X141386667Y-144184444D01*
G36*
X141781778Y-144184444D02*
X141584222Y-144184444D01*
X141584222Y-127843778D01*
X141781778Y-127843778D01*
X141781778Y-144184444D01*
X141781778Y-144184444D01*
G37*
X141781778Y-144184444D02*
X141584222Y-144184444D01*
X141584222Y-127843778D01*
X141781778Y-127843778D01*
X141781778Y-144184444D01*
G36*
X142402667Y-144184444D02*
X142205111Y-144184444D01*
X142205111Y-127843778D01*
X142402667Y-127843778D01*
X142402667Y-144184444D01*
X142402667Y-144184444D01*
G37*
X142402667Y-144184444D02*
X142205111Y-144184444D01*
X142205111Y-127843778D01*
X142402667Y-127843778D01*
X142402667Y-144184444D01*
G36*
X143192889Y-144184444D02*
X142797778Y-144184444D01*
X142797778Y-127843778D01*
X143192889Y-127843778D01*
X143192889Y-144184444D01*
X143192889Y-144184444D01*
G37*
X143192889Y-144184444D02*
X142797778Y-144184444D01*
X142797778Y-127843778D01*
X143192889Y-127843778D01*
X143192889Y-144184444D01*
G36*
X143588000Y-144184444D02*
X143390444Y-144184444D01*
X143390444Y-127843778D01*
X143588000Y-127843778D01*
X143588000Y-144184444D01*
X143588000Y-144184444D01*
G37*
X143588000Y-144184444D02*
X143390444Y-144184444D01*
X143390444Y-127843778D01*
X143588000Y-127843778D01*
X143588000Y-144184444D01*
G36*
X144604000Y-144184444D02*
X144406444Y-144184444D01*
X144406444Y-127843778D01*
X144604000Y-127843778D01*
X144604000Y-144184444D01*
X144604000Y-144184444D01*
G37*
X144604000Y-144184444D02*
X144406444Y-144184444D01*
X144406444Y-127843778D01*
X144604000Y-127843778D01*
X144604000Y-144184444D01*
G36*
X145986889Y-144184444D02*
X145196667Y-144184444D01*
X145196667Y-127843778D01*
X145986889Y-127843778D01*
X145986889Y-144184444D01*
X145986889Y-144184444D01*
G37*
X145986889Y-144184444D02*
X145196667Y-144184444D01*
X145196667Y-127843778D01*
X145986889Y-127843778D01*
X145986889Y-144184444D01*
G36*
X146382000Y-144184444D02*
X146184444Y-144184444D01*
X146184444Y-127843778D01*
X146382000Y-127843778D01*
X146382000Y-144184444D01*
X146382000Y-144184444D01*
G37*
X146382000Y-144184444D02*
X146184444Y-144184444D01*
X146184444Y-127843778D01*
X146382000Y-127843778D01*
X146382000Y-144184444D01*
G36*
X146805333Y-144184444D02*
X146579555Y-144184444D01*
X146579555Y-127843778D01*
X146805333Y-127843778D01*
X146805333Y-144184444D01*
X146805333Y-144184444D01*
G37*
X146805333Y-144184444D02*
X146579555Y-144184444D01*
X146579555Y-127843778D01*
X146805333Y-127843778D01*
X146805333Y-144184444D01*
G36*
X147398000Y-144184444D02*
X147200444Y-144184444D01*
X147200444Y-127843778D01*
X147398000Y-127843778D01*
X147398000Y-144184444D01*
X147398000Y-144184444D01*
G37*
X147398000Y-144184444D02*
X147200444Y-144184444D01*
X147200444Y-127843778D01*
X147398000Y-127843778D01*
X147398000Y-144184444D01*
G36*
X148583333Y-144184444D02*
X147793111Y-144184444D01*
X147793111Y-127843778D01*
X148583333Y-127843778D01*
X148583333Y-144184444D01*
X148583333Y-144184444D01*
G37*
X148583333Y-144184444D02*
X147793111Y-144184444D01*
X147793111Y-127843778D01*
X148583333Y-127843778D01*
X148583333Y-144184444D01*
G36*
X149006667Y-144184444D02*
X148780889Y-144184444D01*
X148780889Y-127843778D01*
X149006667Y-127843778D01*
X149006667Y-144184444D01*
X149006667Y-144184444D01*
G37*
X149006667Y-144184444D02*
X148780889Y-144184444D01*
X148780889Y-127843778D01*
X149006667Y-127843778D01*
X149006667Y-144184444D01*
G36*
X150192000Y-144184444D02*
X149796889Y-144184444D01*
X149796889Y-127843778D01*
X150192000Y-127843778D01*
X150192000Y-144184444D01*
X150192000Y-144184444D01*
G37*
X150192000Y-144184444D02*
X149796889Y-144184444D01*
X149796889Y-127843778D01*
X150192000Y-127843778D01*
X150192000Y-144184444D01*
G36*
X150587111Y-144184444D02*
X150389555Y-144184444D01*
X150389555Y-127843778D01*
X150587111Y-127843778D01*
X150587111Y-144184444D01*
X150587111Y-144184444D01*
G37*
X150587111Y-144184444D02*
X150389555Y-144184444D01*
X150389555Y-127843778D01*
X150587111Y-127843778D01*
X150587111Y-144184444D01*
G36*
X151179778Y-144184444D02*
X150982222Y-144184444D01*
X150982222Y-127843778D01*
X151179778Y-127843778D01*
X151179778Y-144184444D01*
X151179778Y-144184444D01*
G37*
X151179778Y-144184444D02*
X150982222Y-144184444D01*
X150982222Y-127843778D01*
X151179778Y-127843778D01*
X151179778Y-144184444D01*
G36*
X151800667Y-144184444D02*
X151603111Y-144184444D01*
X151603111Y-127843778D01*
X151800667Y-127843778D01*
X151800667Y-144184444D01*
X151800667Y-144184444D01*
G37*
X151800667Y-144184444D02*
X151603111Y-144184444D01*
X151603111Y-127843778D01*
X151800667Y-127843778D01*
X151800667Y-144184444D01*
G36*
X152393333Y-144184444D02*
X151998222Y-144184444D01*
X151998222Y-127843778D01*
X152393333Y-127843778D01*
X152393333Y-144184444D01*
X152393333Y-144184444D01*
G37*
X152393333Y-144184444D02*
X151998222Y-144184444D01*
X151998222Y-127843778D01*
X152393333Y-127843778D01*
X152393333Y-144184444D01*
G36*
X153578667Y-144184444D02*
X153183555Y-144184444D01*
X153183555Y-127843778D01*
X153578667Y-127843778D01*
X153578667Y-144184444D01*
X153578667Y-144184444D01*
G37*
X153578667Y-144184444D02*
X153183555Y-144184444D01*
X153183555Y-127843778D01*
X153578667Y-127843778D01*
X153578667Y-144184444D01*
G36*
X154594667Y-144184444D02*
X154397111Y-144184444D01*
X154397111Y-127843778D01*
X154594667Y-127843778D01*
X154594667Y-144184444D01*
X154594667Y-144184444D01*
G37*
X154594667Y-144184444D02*
X154397111Y-144184444D01*
X154397111Y-127843778D01*
X154594667Y-127843778D01*
X154594667Y-144184444D01*
G36*
X154989778Y-144184444D02*
X154792222Y-144184444D01*
X154792222Y-127843778D01*
X154989778Y-127843778D01*
X154989778Y-144184444D01*
X154989778Y-144184444D01*
G37*
X154989778Y-144184444D02*
X154792222Y-144184444D01*
X154792222Y-127843778D01*
X154989778Y-127843778D01*
X154989778Y-144184444D01*
G36*
X155780000Y-144184444D02*
X155384889Y-144184444D01*
X155384889Y-127843778D01*
X155780000Y-127843778D01*
X155780000Y-144184444D01*
X155780000Y-144184444D01*
G37*
X155780000Y-144184444D02*
X155384889Y-144184444D01*
X155384889Y-127843778D01*
X155780000Y-127843778D01*
X155780000Y-144184444D01*
G36*
X156598444Y-144184444D02*
X156203333Y-144184444D01*
X156203333Y-127843778D01*
X156598444Y-127843778D01*
X156598444Y-144184444D01*
X156598444Y-144184444D01*
G37*
X156598444Y-144184444D02*
X156203333Y-144184444D01*
X156203333Y-127843778D01*
X156598444Y-127843778D01*
X156598444Y-144184444D01*
G36*
X157388667Y-144184444D02*
X156993555Y-144184444D01*
X156993555Y-127843778D01*
X157388667Y-127843778D01*
X157388667Y-144184444D01*
X157388667Y-144184444D01*
G37*
X157388667Y-144184444D02*
X156993555Y-144184444D01*
X156993555Y-127843778D01*
X157388667Y-127843778D01*
X157388667Y-144184444D01*
G36*
X157981333Y-144184444D02*
X157586222Y-144184444D01*
X157586222Y-127843778D01*
X157981333Y-127843778D01*
X157981333Y-144184444D01*
X157981333Y-144184444D01*
G37*
X157981333Y-144184444D02*
X157586222Y-144184444D01*
X157586222Y-127843778D01*
X157981333Y-127843778D01*
X157981333Y-144184444D01*
G36*
X159194889Y-144184444D02*
X158602222Y-144184444D01*
X158602222Y-127843778D01*
X159194889Y-127843778D01*
X159194889Y-144184444D01*
X159194889Y-144184444D01*
G37*
X159194889Y-144184444D02*
X158602222Y-144184444D01*
X158602222Y-127843778D01*
X159194889Y-127843778D01*
X159194889Y-144184444D01*
G36*
X159590000Y-144184444D02*
X159392444Y-144184444D01*
X159392444Y-127843778D01*
X159590000Y-127843778D01*
X159590000Y-144184444D01*
X159590000Y-144184444D01*
G37*
X159590000Y-144184444D02*
X159392444Y-144184444D01*
X159392444Y-127843778D01*
X159590000Y-127843778D01*
X159590000Y-144184444D01*
G36*
X160182667Y-144184444D02*
X159787555Y-144184444D01*
X159787555Y-127843778D01*
X160182667Y-127843778D01*
X160182667Y-144184444D01*
X160182667Y-144184444D01*
G37*
X160182667Y-144184444D02*
X159787555Y-144184444D01*
X159787555Y-127843778D01*
X160182667Y-127843778D01*
X160182667Y-144184444D01*
G36*
X135460000Y-95540000D02*
X134190000Y-95540000D01*
X134190000Y-96810000D01*
X131650000Y-96810000D01*
X131650000Y-95492962D01*
X134142963Y-95492962D01*
X134142963Y-94317037D01*
X131650000Y-94317037D01*
X131650000Y-91777037D01*
X132967038Y-91777037D01*
X132967038Y-93000000D01*
X134142963Y-93000000D01*
X134142963Y-91777037D01*
X132967038Y-91777037D01*
X131650000Y-91777037D01*
X131650000Y-91730000D01*
X132920000Y-91730000D01*
X132920000Y-90460000D01*
X135460000Y-90460000D01*
X135460000Y-95540000D01*
X135460000Y-95540000D01*
G37*
X135460000Y-95540000D02*
X134190000Y-95540000D01*
X134190000Y-96810000D01*
X131650000Y-96810000D01*
X131650000Y-95492962D01*
X134142963Y-95492962D01*
X134142963Y-94317037D01*
X131650000Y-94317037D01*
X131650000Y-91777037D01*
X132967038Y-91777037D01*
X132967038Y-93000000D01*
X134142963Y-93000000D01*
X134142963Y-91777037D01*
X132967038Y-91777037D01*
X131650000Y-91777037D01*
X131650000Y-91730000D01*
X132920000Y-91730000D01*
X132920000Y-90460000D01*
X135460000Y-90460000D01*
X135460000Y-95540000D01*
G36*
X117774075Y-90460000D02*
X120267038Y-90460000D01*
X120267038Y-94317037D01*
X116457038Y-94317037D01*
X116457038Y-91777037D01*
X117774075Y-91777037D01*
X117774075Y-93000000D01*
X118950000Y-93000000D01*
X118950000Y-91777037D01*
X117774075Y-91777037D01*
X116457038Y-91777037D01*
X116457038Y-89190000D01*
X117774075Y-89190000D01*
X117774075Y-90460000D01*
X117774075Y-90460000D01*
G37*
X117774075Y-90460000D02*
X120267038Y-90460000D01*
X120267038Y-94317037D01*
X116457038Y-94317037D01*
X116457038Y-91777037D01*
X117774075Y-91777037D01*
X117774075Y-93000000D01*
X118950000Y-93000000D01*
X118950000Y-91777037D01*
X117774075Y-91777037D01*
X116457038Y-91777037D01*
X116457038Y-89190000D01*
X117774075Y-89190000D01*
X117774075Y-90460000D01*
G36*
X125347038Y-94317037D02*
X121490000Y-94317037D01*
X121490000Y-91777037D01*
X122807038Y-91777037D01*
X122807038Y-93000000D01*
X124030000Y-93000000D01*
X124030000Y-91777037D01*
X122807038Y-91777037D01*
X121490000Y-91777037D01*
X121490000Y-90460000D01*
X125347038Y-90460000D01*
X125347038Y-94317037D01*
X125347038Y-94317037D01*
G37*
X125347038Y-94317037D02*
X121490000Y-94317037D01*
X121490000Y-91777037D01*
X122807038Y-91777037D01*
X122807038Y-93000000D01*
X124030000Y-93000000D01*
X124030000Y-91777037D01*
X122807038Y-91777037D01*
X121490000Y-91777037D01*
X121490000Y-90460000D01*
X125347038Y-90460000D01*
X125347038Y-94317037D01*
G36*
X129157038Y-91730000D02*
X130427038Y-91730000D01*
X130427038Y-94317037D01*
X129110000Y-94317037D01*
X129110000Y-91777037D01*
X127887038Y-91777037D01*
X127887038Y-94317037D01*
X126570000Y-94317037D01*
X126570000Y-90460000D01*
X129157038Y-90460000D01*
X129157038Y-91730000D01*
X129157038Y-91730000D01*
G37*
X129157038Y-91730000D02*
X130427038Y-91730000D01*
X130427038Y-94317037D01*
X129110000Y-94317037D01*
X129110000Y-91777037D01*
X127887038Y-91777037D01*
X127887038Y-94317037D01*
X126570000Y-94317037D01*
X126570000Y-90460000D01*
X129157038Y-90460000D01*
X129157038Y-91730000D01*
G36*
X140540000Y-94317037D02*
X136682963Y-94317037D01*
X136682963Y-91777037D01*
X138000000Y-91777037D01*
X138000000Y-93000000D01*
X139222963Y-93000000D01*
X139222963Y-91777037D01*
X138000000Y-91777037D01*
X136682963Y-91777037D01*
X136682963Y-90460000D01*
X140540000Y-90460000D01*
X140540000Y-94317037D01*
X140540000Y-94317037D01*
G37*
X140540000Y-94317037D02*
X136682963Y-94317037D01*
X136682963Y-91777037D01*
X138000000Y-91777037D01*
X138000000Y-93000000D01*
X139222963Y-93000000D01*
X139222963Y-91777037D01*
X138000000Y-91777037D01*
X136682963Y-91777037D01*
X136682963Y-90460000D01*
X140540000Y-90460000D01*
X140540000Y-94317037D01*
G36*
X145620000Y-91777037D02*
X143080000Y-91777037D01*
X143080000Y-94317037D01*
X141762963Y-94317037D01*
X141762963Y-90460000D01*
X145620000Y-90460000D01*
X145620000Y-91777037D01*
X145620000Y-91777037D01*
G37*
X145620000Y-91777037D02*
X143080000Y-91777037D01*
X143080000Y-94317037D01*
X141762963Y-94317037D01*
X141762963Y-90460000D01*
X145620000Y-90460000D01*
X145620000Y-91777037D01*
G36*
X148160000Y-94317037D02*
X146842963Y-94317037D01*
X146842963Y-91730000D01*
X148160000Y-91730000D01*
X148160000Y-94317037D01*
X148160000Y-94317037D01*
G37*
X148160000Y-94317037D02*
X146842963Y-94317037D01*
X146842963Y-91730000D01*
X148160000Y-91730000D01*
X148160000Y-94317037D01*
G36*
X153192963Y-93000000D02*
X154462963Y-93000000D01*
X154462963Y-94317037D01*
X153145926Y-94317037D01*
X153145926Y-93047037D01*
X151922963Y-93047037D01*
X151922963Y-94317037D01*
X149335926Y-94317037D01*
X149335926Y-91777037D01*
X150652963Y-91777037D01*
X150652963Y-93000000D01*
X151875926Y-93000000D01*
X151875926Y-91777037D01*
X150652963Y-91777037D01*
X149335926Y-91777037D01*
X149335926Y-91730000D01*
X150605926Y-91730000D01*
X150605926Y-90460000D01*
X153192963Y-90460000D01*
X153192963Y-93000000D01*
X153192963Y-93000000D01*
G37*
X153192963Y-93000000D02*
X154462963Y-93000000D01*
X154462963Y-94317037D01*
X153145926Y-94317037D01*
X153145926Y-93047037D01*
X151922963Y-93047037D01*
X151922963Y-94317037D01*
X149335926Y-94317037D01*
X149335926Y-91777037D01*
X150652963Y-91777037D01*
X150652963Y-93000000D01*
X151875926Y-93000000D01*
X151875926Y-91777037D01*
X150652963Y-91777037D01*
X149335926Y-91777037D01*
X149335926Y-91730000D01*
X150605926Y-91730000D01*
X150605926Y-90460000D01*
X153192963Y-90460000D01*
X153192963Y-93000000D01*
G36*
X158272963Y-91730000D02*
X159542963Y-91730000D01*
X159542963Y-94317037D01*
X158225926Y-94317037D01*
X158225926Y-91777037D01*
X157002963Y-91777037D01*
X157002963Y-94317037D01*
X155685926Y-94317037D01*
X155685926Y-90460000D01*
X158272963Y-90460000D01*
X158272963Y-91730000D01*
X158272963Y-91730000D01*
G37*
X158272963Y-91730000D02*
X159542963Y-91730000D01*
X159542963Y-94317037D01*
X158225926Y-94317037D01*
X158225926Y-91777037D01*
X157002963Y-91777037D01*
X157002963Y-94317037D01*
X155685926Y-94317037D01*
X155685926Y-90460000D01*
X158272963Y-90460000D01*
X158272963Y-91730000D01*
G36*
X148160000Y-90507037D02*
X146842963Y-90507037D01*
X146842963Y-89190000D01*
X148160000Y-89190000D01*
X148160000Y-90507037D01*
X148160000Y-90507037D01*
G37*
X148160000Y-90507037D02*
X146842963Y-90507037D01*
X146842963Y-89190000D01*
X148160000Y-89190000D01*
X148160000Y-90507037D01*
G04 #@! TD*
M02*
