G04 #@! TF.GenerationSoftware,KiCad,Pcbnew,(5.0.0)*
G04 #@! TF.CreationDate,2018-11-07T01:02:59+09:00*
G04 #@! TF.ProjectId,handheld_machine,68616E6468656C645F6D616368696E65,rev?*
G04 #@! TF.SameCoordinates,Original*
G04 #@! TF.FileFunction,Soldermask,Top*
G04 #@! TF.FilePolarity,Negative*
%FSLAX46Y46*%
G04 Gerber Fmt 4.6, Leading zero omitted, Abs format (unit mm)*
G04 Created by KiCad (PCBNEW (5.0.0)) date 11/07/18 01:02:59*
%MOMM*%
%LPD*%
G01*
G04 APERTURE LIST*
%ADD10C,2.600000*%
%ADD11R,1.600000X1.300000*%
%ADD12C,6.550000*%
%ADD13C,2.750000*%
G04 APERTURE END LIST*
D10*
G04 #@! TO.C,h13*
X114500000Y-93000000D03*
G04 #@! TD*
G04 #@! TO.C,h11*
X104500000Y-93000000D03*
G04 #@! TD*
G04 #@! TO.C,h33*
X114500000Y-131000000D03*
G04 #@! TD*
G04 #@! TO.C,h31*
X104500000Y-131000000D03*
G04 #@! TD*
G04 #@! TO.C,h41*
X161500000Y-131000000D03*
G04 #@! TD*
G04 #@! TO.C,h43*
X171500000Y-131000000D03*
G04 #@! TD*
G04 #@! TO.C,h21*
X161500000Y-93000000D03*
G04 #@! TD*
G04 #@! TO.C,h23*
X171500000Y-93000000D03*
G04 #@! TD*
D11*
G04 #@! TO.C,D1*
X119000000Y-81850000D03*
X119000000Y-85150000D03*
G04 #@! TD*
G04 #@! TO.C,D2*
X138000000Y-81700000D03*
X138000000Y-85000000D03*
G04 #@! TD*
G04 #@! TO.C,D3*
X138000000Y-90650000D03*
X138000000Y-87350000D03*
G04 #@! TD*
G04 #@! TO.C,D4*
X157000000Y-81850000D03*
X157000000Y-85150000D03*
G04 #@! TD*
G04 #@! TO.C,D5*
X119000000Y-104150000D03*
X119000000Y-100850000D03*
G04 #@! TD*
G04 #@! TO.C,D6*
X138000000Y-95350000D03*
X138000000Y-98650000D03*
G04 #@! TD*
G04 #@! TO.C,D7*
X138000000Y-109650000D03*
X138000000Y-106350000D03*
G04 #@! TD*
G04 #@! TO.C,D8*
X157000000Y-100700000D03*
X157000000Y-104000000D03*
G04 #@! TD*
G04 #@! TO.C,D9*
X119000000Y-123150000D03*
X119000000Y-119850000D03*
G04 #@! TD*
G04 #@! TO.C,D10*
X138000000Y-114350000D03*
X138000000Y-117650000D03*
G04 #@! TD*
G04 #@! TO.C,D11*
X138000000Y-128800000D03*
X138000000Y-125500000D03*
G04 #@! TD*
G04 #@! TO.C,D12*
X157000000Y-123650000D03*
X157000000Y-120350000D03*
G04 #@! TD*
G04 #@! TO.C,D13*
X119000000Y-142150000D03*
X119000000Y-138850000D03*
G04 #@! TD*
G04 #@! TO.C,D14*
X138000000Y-136650000D03*
X138000000Y-133350000D03*
G04 #@! TD*
G04 #@! TO.C,D15*
X138000000Y-144350000D03*
X138000000Y-147650000D03*
G04 #@! TD*
G04 #@! TO.C,D16*
X157000000Y-138850000D03*
X157000000Y-142150000D03*
G04 #@! TD*
D12*
G04 #@! TO.C,SW1*
X109500000Y-83500000D03*
D13*
X112040000Y-78420000D03*
X105690000Y-80960000D03*
G04 #@! TD*
G04 #@! TO.C,SW2*
X124690000Y-80960000D03*
X131040000Y-78420000D03*
D12*
X128500000Y-83500000D03*
G04 #@! TD*
G04 #@! TO.C,SW3*
X147500000Y-83500000D03*
D13*
X150040000Y-78420000D03*
X143690000Y-80960000D03*
G04 #@! TD*
D12*
G04 #@! TO.C,SW4*
X166500000Y-83500000D03*
D13*
X169040000Y-78420000D03*
X162690000Y-80960000D03*
G04 #@! TD*
G04 #@! TO.C,SW5*
X105690000Y-99960000D03*
X112040000Y-97420000D03*
D12*
X109500000Y-102500000D03*
G04 #@! TD*
D13*
G04 #@! TO.C,SW6*
X124690000Y-99960000D03*
X131040000Y-97420000D03*
D12*
X128500000Y-102500000D03*
G04 #@! TD*
G04 #@! TO.C,SW7*
X147500000Y-102500000D03*
D13*
X150040000Y-97420000D03*
X143690000Y-99960000D03*
G04 #@! TD*
D12*
G04 #@! TO.C,SW8*
X166500000Y-102500000D03*
D13*
X169040000Y-97420000D03*
X162690000Y-99960000D03*
G04 #@! TD*
G04 #@! TO.C,SW9*
X105690000Y-118960000D03*
X112040000Y-116420000D03*
D12*
X109500000Y-121500000D03*
G04 #@! TD*
D13*
G04 #@! TO.C,SW10*
X124690000Y-118960000D03*
X131040000Y-116420000D03*
D12*
X128500000Y-121500000D03*
G04 #@! TD*
G04 #@! TO.C,SW11*
X147500000Y-121500000D03*
D13*
X150040000Y-116420000D03*
X143690000Y-118960000D03*
G04 #@! TD*
G04 #@! TO.C,SW12*
X162690000Y-118960000D03*
X169040000Y-116420000D03*
D12*
X166500000Y-121500000D03*
G04 #@! TD*
G04 #@! TO.C,SW13*
X109500000Y-140500000D03*
D13*
X112040000Y-135420000D03*
X105690000Y-137960000D03*
G04 #@! TD*
G04 #@! TO.C,SW14*
X124690000Y-137960000D03*
X131040000Y-135420000D03*
D12*
X128500000Y-140500000D03*
G04 #@! TD*
G04 #@! TO.C,SW15*
X147500000Y-140500000D03*
D13*
X150040000Y-135420000D03*
X143690000Y-137960000D03*
G04 #@! TD*
G04 #@! TO.C,SW16*
X162690000Y-137960000D03*
X169040000Y-135420000D03*
D12*
X166500000Y-140500000D03*
G04 #@! TD*
D10*
G04 #@! TO.C,h2*
X166500000Y-93000000D03*
G04 #@! TD*
G04 #@! TO.C,h1*
X109500000Y-93000000D03*
G04 #@! TD*
G04 #@! TO.C,h4*
X166500000Y-131000000D03*
G04 #@! TD*
G04 #@! TO.C,h3*
X109500000Y-131000000D03*
G04 #@! TD*
M02*
