M48
;DRILL file {KiCad (5.0.0)} date 11/07/18 01:03:03
;FORMAT={3:3/ absolute / metric / suppress leading zeros}
FMAT,2
METRIC,TZ
T1C0.400
T2C1.550
T3C4.100
T4C2.200
%
G90
G05
M71
T1
X134959Y-91550
X135249Y-102340
X137647Y-135477
X139782Y-117332
X142077Y-107648
T2
X124690Y-99960
X131040Y-97420
X162690Y-99960
X169040Y-97420
X162690Y-137960
X169040Y-135420
X105690Y-99960
X112040Y-97420
X162690Y-118960
X169040Y-116420
X105690Y-80960
X112040Y-78420
X143690Y-99960
X150040Y-97420
X124690Y-137960
X131040Y-135420
X162690Y-80960
X169040Y-78420
X105690Y-118960
X112040Y-116420
X105690Y-137960
X112040Y-135420
X143690Y-80960
X150040Y-78420
X124690Y-118960
X131040Y-116420
X124690Y-80960
X131040Y-78420
X143690Y-118960
X150040Y-116420
X143690Y-137960
X150040Y-135420
T3
X166500Y-140500
X109500Y-102500
X166500Y-121500
X109500Y-83500
X147500Y-102500
X128500Y-140500
X166500Y-83500
X109500Y-121500
X109500Y-140500
X147500Y-83500
X128500Y-121500
X128500Y-83500
X147500Y-121500
X147500Y-140500
X128500Y-102500
X166500Y-102500
T4
X114500Y-93000
X166500Y-93000
X171500Y-93000
X114500Y-131000
X109500Y-131000
X166500Y-131000
X104500Y-131000
X109500Y-93000
X161500Y-93000
X104500Y-93000
X161500Y-131000
X171500Y-131000
T0
M30
