G04 #@! TF.GenerationSoftware,KiCad,Pcbnew,(5.0.0)*
G04 #@! TF.CreationDate,2018-11-06T14:20:30+09:00*
G04 #@! TF.ProjectId,handheld_machine_back,68616E6468656C645F6D616368696E65,rev?*
G04 #@! TF.SameCoordinates,Original*
G04 #@! TF.FileFunction,Soldermask,Bot*
G04 #@! TF.FilePolarity,Negative*
%FSLAX46Y46*%
G04 Gerber Fmt 4.6, Leading zero omitted, Abs format (unit mm)*
G04 Created by KiCad (PCBNEW (5.0.0)) date 11/06/18 14:20:30*
%MOMM*%
%LPD*%
G01*
G04 APERTURE LIST*
%ADD10C,2.200000*%
%ADD11C,2.000000*%
%ADD12O,2.650000X2.127200*%
%ADD13O,2.000000X2.000000*%
%ADD14R,2.000000X2.000000*%
%ADD15C,3.100000*%
%ADD16C,1.825000*%
%ADD17R,1.825000X1.825000*%
%ADD18R,1.450000X1.050000*%
%ADD19C,1.300000*%
%ADD20R,1.800000X1.900000*%
%ADD21R,1.950000X1.000000*%
%ADD22R,2.200000X1.600000*%
%ADD23C,3.600000*%
%ADD24R,1.900000X1.900000*%
%ADD25C,1.900000*%
%ADD26R,1.400000X1.900000*%
%ADD27C,0.100000*%
%ADD28C,1.550000*%
%ADD29C,1.800000*%
%ADD30R,1.400000X1.400000*%
%ADD31O,1.400000X1.400000*%
%ADD32R,1.250000X1.250000*%
%ADD33O,1.250000X1.250000*%
G04 APERTURE END LIST*
D10*
G04 #@! TO.C,U4*
X103500000Y-125000000D03*
X115500000Y-137000000D03*
D11*
X111500000Y-122250000D03*
X109500000Y-122250000D03*
X107500000Y-122250000D03*
X118250000Y-133000000D03*
X118250000Y-131000000D03*
X118250000Y-129000000D03*
G04 #@! TD*
D10*
G04 #@! TO.C,U3*
X160500000Y-137000000D03*
X172500000Y-125000000D03*
D11*
X157750000Y-129000000D03*
X157750000Y-131000000D03*
X157750000Y-133000000D03*
X168500000Y-122250000D03*
X166500000Y-122250000D03*
X164500000Y-122250000D03*
G04 #@! TD*
D10*
G04 #@! TO.C,U2*
X172500000Y-99000000D03*
X160500000Y-87000000D03*
D11*
X164500000Y-101750000D03*
X166500000Y-101750000D03*
X168500000Y-101750000D03*
X157750000Y-91000000D03*
X157750000Y-93000000D03*
X157750000Y-95000000D03*
G04 #@! TD*
D10*
G04 #@! TO.C,U1*
X115500000Y-87000000D03*
X103500000Y-99000000D03*
D11*
X118250000Y-95000000D03*
X118250000Y-93000000D03*
X118250000Y-91000000D03*
X107500000Y-101750000D03*
X109500000Y-101750000D03*
X111500000Y-101750000D03*
G04 #@! TD*
D12*
G04 #@! TO.C,U6*
X153240000Y-125351600D03*
X153240000Y-122760800D03*
X153240000Y-120220800D03*
X153240000Y-117680800D03*
X153240000Y-115140800D03*
X153240000Y-112600800D03*
X153240000Y-110060800D03*
X153240000Y-107520800D03*
X153240000Y-104980800D03*
X153240000Y-102440800D03*
X153240000Y-99900800D03*
X153240000Y-97360800D03*
X153240000Y-94820800D03*
X153240000Y-92280800D03*
X153240000Y-89740800D03*
X153240000Y-87200800D03*
X153240000Y-84660800D03*
X153240000Y-82120800D03*
X153240000Y-79580800D03*
X153240000Y-77040800D03*
D13*
X138000000Y-82120800D03*
X138000000Y-84660800D03*
X138000000Y-87200800D03*
X138000000Y-89740800D03*
X138000000Y-92280800D03*
X138000000Y-94820800D03*
X138000000Y-97360800D03*
X138000000Y-99900800D03*
X138000000Y-102440800D03*
X138000000Y-104980800D03*
X138000000Y-110060800D03*
X138000000Y-112600800D03*
X138000000Y-115140800D03*
X138000000Y-117680800D03*
X138000000Y-120220800D03*
X138000000Y-122760800D03*
D14*
X138000000Y-125300800D03*
G04 #@! TD*
D13*
G04 #@! TO.C,SW6*
X153000000Y-148620000D03*
X160620000Y-141000000D03*
X155540000Y-148620000D03*
X158080000Y-141000000D03*
X158080000Y-148620000D03*
X155540000Y-141000000D03*
X160620000Y-148620000D03*
D14*
X153000000Y-141000000D03*
G04 #@! TD*
G04 #@! TO.C,SW5*
X115500000Y-141000000D03*
D13*
X123120000Y-148620000D03*
X118040000Y-141000000D03*
X120580000Y-148620000D03*
X120580000Y-141000000D03*
X118040000Y-148620000D03*
X123120000Y-141000000D03*
X115500000Y-148620000D03*
G04 #@! TD*
D15*
G04 #@! TO.C,MH1*
X105000000Y-79000000D03*
G04 #@! TD*
G04 #@! TO.C,MH2*
X171000000Y-79000000D03*
G04 #@! TD*
G04 #@! TO.C,MH3*
X105000000Y-145000000D03*
G04 #@! TD*
G04 #@! TO.C,MH4*
X171000000Y-145000000D03*
G04 #@! TD*
D16*
G04 #@! TO.C,IC1*
X130500000Y-86750000D03*
X130500000Y-89290000D03*
X130500000Y-91830000D03*
X130500000Y-94370000D03*
X130500000Y-96910000D03*
X130500000Y-99450000D03*
X130500000Y-101990000D03*
X130500000Y-104530000D03*
X130500000Y-107070000D03*
X130500000Y-109610000D03*
X130500000Y-112150000D03*
X130500000Y-114690000D03*
X145750000Y-114690000D03*
X145750000Y-112150000D03*
X145750000Y-109610000D03*
X145750000Y-107070000D03*
X145750000Y-104530000D03*
X145750000Y-101990000D03*
X145750000Y-99450000D03*
X145750000Y-96910000D03*
X145750000Y-94370000D03*
X145750000Y-91830000D03*
X145750000Y-89290000D03*
D17*
X145750000Y-86750000D03*
G04 #@! TD*
D18*
G04 #@! TO.C,SW1*
X121675000Y-90075000D03*
X125825000Y-90075000D03*
X121675000Y-87925000D03*
X125825000Y-87925000D03*
G04 #@! TD*
D19*
G04 #@! TO.C,SW2*
X174499635Y-111958817D03*
X171499635Y-111958817D03*
D20*
X174699635Y-114858817D03*
X171299635Y-114858817D03*
X174699635Y-109058817D03*
X171299635Y-109058817D03*
G04 #@! TD*
G04 #@! TO.C,SW3*
X104700365Y-114941183D03*
X101300365Y-114941183D03*
X104700365Y-109141183D03*
X101300365Y-109141183D03*
D19*
X104500365Y-112041183D03*
X101500365Y-112041183D03*
G04 #@! TD*
D21*
G04 #@! TO.C,J3*
X117000000Y-108500000D03*
X117000000Y-109500000D03*
X117000000Y-110500000D03*
X117000000Y-111500000D03*
X117000000Y-112500000D03*
X117000000Y-113500000D03*
X117000000Y-114500000D03*
X117000000Y-115500000D03*
D22*
X120875000Y-107200000D03*
X120875000Y-116800000D03*
G04 #@! TD*
D23*
G04 #@! TO.C,J4*
X132340000Y-141350000D03*
X143770000Y-141350000D03*
D24*
X142500000Y-135000000D03*
D25*
X141230000Y-132460000D03*
X139960000Y-135000000D03*
X138690000Y-132460000D03*
X137420000Y-135000000D03*
X136150000Y-132460000D03*
X134880000Y-135000000D03*
X133610000Y-132460000D03*
G04 #@! TD*
D26*
G04 #@! TO.C,JP1*
X103000000Y-83000000D03*
X101700000Y-83000000D03*
G04 #@! TD*
G04 #@! TO.C,JP2*
X101700000Y-86750000D03*
X103000000Y-86750000D03*
G04 #@! TD*
D27*
G04 #@! TO.C,R3*
G36*
X170221071Y-84851623D02*
X170253781Y-84856475D01*
X170285857Y-84864509D01*
X170316991Y-84875649D01*
X170346884Y-84889787D01*
X170375247Y-84906787D01*
X170401807Y-84926485D01*
X170426308Y-84948692D01*
X170448515Y-84973193D01*
X170468213Y-84999753D01*
X170485213Y-85028116D01*
X170499351Y-85058009D01*
X170510491Y-85089143D01*
X170518525Y-85121219D01*
X170523377Y-85153929D01*
X170525000Y-85186956D01*
X170525000Y-86313044D01*
X170523377Y-86346071D01*
X170518525Y-86378781D01*
X170510491Y-86410857D01*
X170499351Y-86441991D01*
X170485213Y-86471884D01*
X170468213Y-86500247D01*
X170448515Y-86526807D01*
X170426308Y-86551308D01*
X170401807Y-86573515D01*
X170375247Y-86593213D01*
X170346884Y-86610213D01*
X170316991Y-86624351D01*
X170285857Y-86635491D01*
X170253781Y-86643525D01*
X170221071Y-86648377D01*
X170188044Y-86650000D01*
X169311956Y-86650000D01*
X169278929Y-86648377D01*
X169246219Y-86643525D01*
X169214143Y-86635491D01*
X169183009Y-86624351D01*
X169153116Y-86610213D01*
X169124753Y-86593213D01*
X169098193Y-86573515D01*
X169073692Y-86551308D01*
X169051485Y-86526807D01*
X169031787Y-86500247D01*
X169014787Y-86471884D01*
X169000649Y-86441991D01*
X168989509Y-86410857D01*
X168981475Y-86378781D01*
X168976623Y-86346071D01*
X168975000Y-86313044D01*
X168975000Y-85186956D01*
X168976623Y-85153929D01*
X168981475Y-85121219D01*
X168989509Y-85089143D01*
X169000649Y-85058009D01*
X169014787Y-85028116D01*
X169031787Y-84999753D01*
X169051485Y-84973193D01*
X169073692Y-84948692D01*
X169098193Y-84926485D01*
X169124753Y-84906787D01*
X169153116Y-84889787D01*
X169183009Y-84875649D01*
X169214143Y-84864509D01*
X169246219Y-84856475D01*
X169278929Y-84851623D01*
X169311956Y-84850000D01*
X170188044Y-84850000D01*
X170221071Y-84851623D01*
X170221071Y-84851623D01*
G37*
D28*
X169750000Y-85750000D03*
D27*
G36*
X168171071Y-84851623D02*
X168203781Y-84856475D01*
X168235857Y-84864509D01*
X168266991Y-84875649D01*
X168296884Y-84889787D01*
X168325247Y-84906787D01*
X168351807Y-84926485D01*
X168376308Y-84948692D01*
X168398515Y-84973193D01*
X168418213Y-84999753D01*
X168435213Y-85028116D01*
X168449351Y-85058009D01*
X168460491Y-85089143D01*
X168468525Y-85121219D01*
X168473377Y-85153929D01*
X168475000Y-85186956D01*
X168475000Y-86313044D01*
X168473377Y-86346071D01*
X168468525Y-86378781D01*
X168460491Y-86410857D01*
X168449351Y-86441991D01*
X168435213Y-86471884D01*
X168418213Y-86500247D01*
X168398515Y-86526807D01*
X168376308Y-86551308D01*
X168351807Y-86573515D01*
X168325247Y-86593213D01*
X168296884Y-86610213D01*
X168266991Y-86624351D01*
X168235857Y-86635491D01*
X168203781Y-86643525D01*
X168171071Y-86648377D01*
X168138044Y-86650000D01*
X167261956Y-86650000D01*
X167228929Y-86648377D01*
X167196219Y-86643525D01*
X167164143Y-86635491D01*
X167133009Y-86624351D01*
X167103116Y-86610213D01*
X167074753Y-86593213D01*
X167048193Y-86573515D01*
X167023692Y-86551308D01*
X167001485Y-86526807D01*
X166981787Y-86500247D01*
X166964787Y-86471884D01*
X166950649Y-86441991D01*
X166939509Y-86410857D01*
X166931475Y-86378781D01*
X166926623Y-86346071D01*
X166925000Y-86313044D01*
X166925000Y-85186956D01*
X166926623Y-85153929D01*
X166931475Y-85121219D01*
X166939509Y-85089143D01*
X166950649Y-85058009D01*
X166964787Y-85028116D01*
X166981787Y-84999753D01*
X167001485Y-84973193D01*
X167023692Y-84948692D01*
X167048193Y-84926485D01*
X167074753Y-84906787D01*
X167103116Y-84889787D01*
X167133009Y-84875649D01*
X167164143Y-84864509D01*
X167196219Y-84856475D01*
X167228929Y-84851623D01*
X167261956Y-84850000D01*
X168138044Y-84850000D01*
X168171071Y-84851623D01*
X168171071Y-84851623D01*
G37*
D28*
X167700000Y-85750000D03*
G04 #@! TD*
D10*
G04 #@! TO.C,SW4*
X164592102Y-78407898D03*
X161000000Y-82000000D03*
X157407898Y-85592102D03*
G04 #@! TD*
D29*
G04 #@! TO.C,TP1*
X129000000Y-81000000D03*
G04 #@! TD*
G04 #@! TO.C,TP2*
X128000000Y-84000000D03*
G04 #@! TD*
D30*
G04 #@! TO.C,J5*
X109000000Y-83000000D03*
D31*
X110270000Y-83000000D03*
X111540000Y-83000000D03*
X112810000Y-83000000D03*
G04 #@! TD*
D32*
G04 #@! TO.C,J1*
X122000000Y-83000000D03*
D33*
X123000000Y-83000000D03*
X124000000Y-83000000D03*
X125000000Y-83000000D03*
G04 #@! TD*
D30*
G04 #@! TO.C,J6*
X166000000Y-145000000D03*
D31*
X166000000Y-146270000D03*
G04 #@! TD*
M02*
